<?xml version="1.0" encoding="UTF-8" standalone="no"?>
<!-- Created with Inkscape (http://www.inkscape.org/) -->
<svg xmlns:dc="http://purl.org/dc/elements/1.1/" xmlns:cc="http://creativecommons.org/ns#" xmlns:rdf="http://www.w3.org/1999/02/22-rdf-syntax-ns#" xmlns:svg="http://www.w3.org/2000/svg" xmlns="http://www.w3.org/2000/svg" xmlns:xlink="http://www.w3.org/1999/xlink" xmlns:sodipodi="http://sodipodi.sourceforge.net/DTD/sodipodi-0.dtd" xmlns:inkscape="http://www.inkscape.org/namespaces/inkscape" width="210mm" height="297mm" id="svg4034" version="1.1" inkscape:version="0.47 r22583" sodipodi:version="0.32" inkscape:output_extension="org.inkscape.output.svg.inkscape">
  <title id="title4197">itunes u</title>
  <defs id="defs3">
    <linearGradient inkscape:collect="always" id="linearGradient4161">
      <stop style="stop-color:#000000;stop-opacity:1;" offset="0" id="stop4163"/>
      <stop style="stop-color:#000000;stop-opacity:0;" offset="1" id="stop4165"/>
    </linearGradient>
    <linearGradient inkscape:collect="always" id="linearGradient4138">
      <stop style="stop-color:#000000;stop-opacity:1;" offset="0" id="stop4140"/>
      <stop style="stop-color:#000000;stop-opacity:0;" offset="1" id="stop4142"/>
    </linearGradient>
    <linearGradient inkscape:collect="always" id="linearGradient3984">
      <stop style="stop-color:#ffffff;stop-opacity:1;" offset="0" id="stop3986"/>
      <stop style="stop-color:#ffffff;stop-opacity:0;" offset="1" id="stop3988"/>
    </linearGradient>
    <linearGradient inkscape:collect="always" id="linearGradient3871">
      <stop style="stop-color:#babdb6;stop-opacity:1;" offset="0" id="stop3873"/>
      <stop style="stop-color:#babdb6;stop-opacity:0;" offset="1" id="stop3875"/>
    </linearGradient>
    <linearGradient id="linearGradient5348">
      <stop style="stop-color:#729fcf;stop-opacity:0;" offset="0" id="stop5350"/>
      <stop id="stop5368" offset="0.14182246" style="stop-color:#729fcf;stop-opacity:0.17514125;"/>
      <stop id="stop5366" offset="0.24686332" style="stop-color:#729fcf;stop-opacity:0.42937854;"/>
      <stop style="stop-color:#729fcf;stop-opacity:0.39215686;" offset="0.27796116" id="stop5394"/>
      <stop id="stop5364" offset="0.38030669" style="stop-color:#729fcf;stop-opacity:0.39215687;"/>
      <stop id="stop5362" offset="0.46561956" style="stop-color:#ffffff;stop-opacity:1;"/>
      <stop style="stop-color:#b8cfe7;stop-opacity:0.62352941;" offset="0.54757094" id="stop3727"/>
      <stop id="stop5360" offset="0.62952232" style="stop-color:#729fcf;stop-opacity:0.24858756;"/>
      <stop id="stop5358" offset="0.69749689" style="stop-color:#729fcf;stop-opacity:0.27683616;"/>
      <stop id="stop5356" offset="0.84827983" style="stop-color:#729fcf;stop-opacity:0.16384181;"/>
      <stop style="stop-color:#729fcf;stop-opacity:0;" offset="1" id="stop5352"/>
    </linearGradient>
    <linearGradient id="linearGradient5334">
      <stop style="stop-color:#ffffff;stop-opacity:0;" offset="0" id="stop5336"/>
      <stop id="stop5346" offset="0.125" style="stop-color:#ffffff;stop-opacity:0.8745098;"/>
      <stop id="stop5344" offset="0.25" style="stop-color:#ffffff;stop-opacity:0.74901961;"/>
      <stop id="stop5342" offset="0.5" style="stop-color:#ffffff;stop-opacity:0.49803922;"/>
      <stop style="stop-color:#ffffff;stop-opacity:0;" offset="1" id="stop5338"/>
    </linearGradient>
    <linearGradient id="linearGradient5314">
      <stop style="stop-color:#555753;stop-opacity:1;" offset="0" id="stop5316"/>
      <stop style="stop-color:#555753;stop-opacity:0;" offset="1" id="stop5318"/>
    </linearGradient>
    <linearGradient id="linearGradient5280">
      <stop style="stop-color:#555753;stop-opacity:0.01129944;" offset="0" id="stop5282"/>
      <stop id="stop5310" offset="0.00195313" style="stop-color:#555753;stop-opacity:0.22598869;"/>
      <stop id="stop5306" offset="0.00390625" style="stop-color:#555753;stop-opacity:0.01176471;"/>
      <stop id="stop5304" offset="0.0078125" style="stop-color:#555753;stop-opacity:0.01176471;"/>
      <stop id="stop5302" offset="0.015625" style="stop-color:#555753;stop-opacity:0.07344633;"/>
      <stop id="stop5298" offset="0.03125" style="stop-color:#555753;stop-opacity:0.01568627;"/>
      <stop id="stop5296" offset="0.0625" style="stop-color:#555753;stop-opacity:0.01129944;"/>
      <stop id="stop5294" offset="0.125" style="stop-color:#555753;stop-opacity:0.36723164;"/>
      <stop id="stop5290" offset="0.25" style="stop-color:#555753;stop-opacity:0.00564972;"/>
      <stop id="stop5288" offset="0.5" style="stop-color:#555753;stop-opacity:0.02259887;"/>
      <stop style="stop-color:#555753;stop-opacity:0.19774012;" offset="0.75" id="stop5292"/>
      <stop id="stop5300" offset="0.875" style="stop-color:#555753;stop-opacity:0.18079096;"/>
      <stop style="stop-color:#555753;stop-opacity:0.28813559;" offset="0.9375" id="stop5308"/>
      <stop style="stop-color:#555753;stop-opacity:0.07344633;" offset="1" id="stop5284"/>
    </linearGradient>
    <linearGradient id="linearGradient5210">
      <stop style="stop-color:#ffffff;stop-opacity:0.63973064" offset="0" id="stop5212"/>
      <stop style="stop-color:#ffffff;stop-opacity:0;" offset="1" id="stop5214"/>
    </linearGradient>
    <linearGradient id="linearGradient5170">
      <stop style="stop-color:#ffffff;stop-opacity:0.18039216;" offset="0" id="stop5172"/>
      <stop id="stop5178" offset="0.51451057" style="stop-color:#ffffff;stop-opacity:1;"/>
      <stop style="stop-color:#ffffff;stop-opacity:0;" offset="1" id="stop5174"/>
    </linearGradient>
    <inkscape:perspective sodipodi:type="inkscape:persp3d" inkscape:vp_x="0 : 526.18109 : 1" inkscape:vp_y="0 : 1000 : 0" inkscape:vp_z="744.09448 : 526.18109 : 1" inkscape:persp3d-origin="372.04724 : 350.78739 : 1" id="perspective4040"/>
    <linearGradient inkscape:collect="always" xlink:href="#linearGradient5170" id="linearGradient5176" x1="486.78616" y1="311.95883" x2="190.81146" y2="525.16638" gradientUnits="userSpaceOnUse"/>
    <linearGradient inkscape:collect="always" xlink:href="#linearGradient5210" id="linearGradient5216" x1="353.63306" y1="403.9296" x2="405.62701" y2="455.44739" gradientUnits="userSpaceOnUse"/>
    <linearGradient inkscape:collect="always" xlink:href="#linearGradient5170" id="linearGradient5226" gradientUnits="userSpaceOnUse" x1="486.78616" y1="311.95883" x2="190.81146" y2="525.16638"/>
    <linearGradient inkscape:collect="always" xlink:href="#linearGradient5170" id="linearGradient5230" gradientUnits="userSpaceOnUse" x1="486.78616" y1="311.95883" x2="190.81146" y2="525.16638"/>
    <linearGradient inkscape:collect="always" xlink:href="#linearGradient5170" id="linearGradient5234" gradientUnits="userSpaceOnUse" x1="486.78616" y1="311.95883" x2="190.81146" y2="525.16638"/>
    <linearGradient inkscape:collect="always" xlink:href="#linearGradient5170" id="linearGradient5238" gradientUnits="userSpaceOnUse" x1="486.78616" y1="311.95883" x2="190.81146" y2="525.16638"/>
    <linearGradient inkscape:collect="always" xlink:href="#linearGradient5170" id="linearGradient5242" gradientUnits="userSpaceOnUse" x1="486.78616" y1="311.95883" x2="190.81146" y2="525.16638"/>
    <linearGradient inkscape:collect="always" xlink:href="#linearGradient5170" id="linearGradient5246" gradientUnits="userSpaceOnUse" x1="486.78616" y1="311.95883" x2="190.81146" y2="525.16638"/>
    <radialGradient inkscape:collect="always" xlink:href="#linearGradient3984" id="radialGradient4075" gradientUnits="userSpaceOnUse" gradientTransform="matrix(0.37577722,0.03445303,-0.02757155,0.30072133,605.26915,586.90602)" cx="880.13934" cy="838.99133" fx="880.13934" fy="838.99133" r="365.07972"/>
    <radialGradient inkscape:collect="always" xlink:href="#linearGradient3984" id="radialGradient4077" gradientUnits="userSpaceOnUse" gradientTransform="matrix(0.37577722,0.03445303,-0.02757155,0.30072133,605.26915,586.90602)" cx="1989.9366" cy="503.58002" fx="1989.9366" fy="503.58002" r="365.07972"/>
    <linearGradient inkscape:collect="always" xlink:href="#linearGradient3984" id="linearGradient4079" gradientUnits="userSpaceOnUse" x1="1151.2692" y1="166.46587" x2="1415.8524" y2="463.56967"/>
    <radialGradient inkscape:collect="always" xlink:href="#linearGradient5280" id="radialGradient4098" gradientUnits="userSpaceOnUse" gradientTransform="matrix(0.98531897,0,0,0.98526623,7.6408419,4.688854)" cx="382.84375" cy="455.35938" fx="382.84375" fy="455.35938" r="291.9375"/>
    <linearGradient inkscape:collect="always" xlink:href="#linearGradient5348" id="linearGradient4100" gradientUnits="userSpaceOnUse" gradientTransform="translate(-0.28144371,0.63889057)" x1="175.96233" y1="697.14484" x2="670.4953" y2="207.12437"/>
    <linearGradient inkscape:collect="always" xlink:href="#linearGradient5170" id="linearGradient4102" gradientUnits="userSpaceOnUse" x1="486.78616" y1="311.95883" x2="190.81146" y2="525.16638"/>
    <linearGradient inkscape:collect="always" xlink:href="#linearGradient5210" id="linearGradient4104" gradientUnits="userSpaceOnUse" x1="353.63306" y1="403.9296" x2="405.62701" y2="455.44739"/>
    <linearGradient inkscape:collect="always" xlink:href="#linearGradient3871" id="linearGradient4106" gradientUnits="userSpaceOnUse" x1="313.77914" y1="375.51971" x2="467.50302" y2="556.33704"/>
    <radialGradient inkscape:collect="always" xlink:href="#linearGradient5280" id="radialGradient4125" gradientUnits="userSpaceOnUse" gradientTransform="matrix(0.98531897,0,0,0.98526623,7.6408419,4.688854)" cx="382.84375" cy="455.35938" fx="382.84375" fy="455.35938" r="291.9375"/>
    <linearGradient inkscape:collect="always" xlink:href="#linearGradient5348" id="linearGradient4127" gradientUnits="userSpaceOnUse" gradientTransform="translate(-0.28144371,0.63889057)" x1="54.72831" y1="579.81854" x2="748.02081" y2="355.68408"/>
    <linearGradient inkscape:collect="always" xlink:href="#linearGradient5170" id="linearGradient4129" gradientUnits="userSpaceOnUse" x1="486.78616" y1="311.95883" x2="190.81146" y2="525.16638"/>
    <linearGradient inkscape:collect="always" xlink:href="#linearGradient5210" id="linearGradient4131" gradientUnits="userSpaceOnUse" x1="353.63306" y1="403.9296" x2="405.62701" y2="455.44739"/>
    <linearGradient inkscape:collect="always" xlink:href="#linearGradient3871" id="linearGradient4133" gradientUnits="userSpaceOnUse" x1="313.77914" y1="375.51971" x2="467.50302" y2="556.33704"/>
    <radialGradient inkscape:collect="always" xlink:href="#linearGradient4138" id="radialGradient4144" cx="557.60419" cy="97.768028" fx="557.60419" fy="97.768028" r="319.20819" gradientTransform="matrix(1,0,0,0.10443038,0,87.558075)" gradientUnits="userSpaceOnUse"/>
    <radialGradient inkscape:collect="always" xlink:href="#linearGradient4161" id="radialGradient4167" cx="796.00017" cy="312.93051" fx="796.00017" fy="312.93051" r="254.55843" gradientTransform="matrix(0.91197809,0.59787327,-0.37789262,0.44532814,-337.2858,-25.69204)" gradientUnits="userSpaceOnUse"/>
    <radialGradient inkscape:collect="always" xlink:href="#linearGradient4161" id="radialGradient3817" gradientUnits="userSpaceOnUse" gradientTransform="matrix(0.91197809,0.59787327,-0.37789262,0.44532814,-337.2858,-25.69204)" cx="796.00017" cy="312.93051" fx="796.00017" fy="312.93051" r="254.55843"/>
    <radialGradient inkscape:collect="always" xlink:href="#linearGradient5280" id="radialGradient3819" gradientUnits="userSpaceOnUse" gradientTransform="matrix(0.98531897,0,0,0.98526623,7.6408419,4.688854)" cx="382.84375" cy="455.35938" fx="382.84375" fy="455.35938" r="291.9375"/>
    <linearGradient inkscape:collect="always" xlink:href="#linearGradient5348" id="linearGradient3821" gradientUnits="userSpaceOnUse" gradientTransform="translate(-0.28144371,0.63889057)" x1="54.72831" y1="579.81854" x2="748.02081" y2="355.68408"/>
    <linearGradient inkscape:collect="always" xlink:href="#linearGradient5170" id="linearGradient3823" gradientUnits="userSpaceOnUse" x1="486.78616" y1="311.95883" x2="190.81146" y2="525.16638"/>
    <linearGradient inkscape:collect="always" xlink:href="#linearGradient5210" id="linearGradient3825" gradientUnits="userSpaceOnUse" x1="353.63306" y1="403.9296" x2="405.62701" y2="455.44739"/>
    <linearGradient inkscape:collect="always" xlink:href="#linearGradient3871" id="linearGradient3827" gradientUnits="userSpaceOnUse" x1="313.77914" y1="375.51971" x2="467.50302" y2="556.33704"/>
    <radialGradient inkscape:collect="always" xlink:href="#linearGradient3984" id="radialGradient3829" gradientUnits="userSpaceOnUse" gradientTransform="matrix(0.37577722,0.03445303,-0.02757155,0.30072133,605.26915,586.90602)" cx="880.13934" cy="838.99133" fx="880.13934" fy="838.99133" r="365.07972"/>
    <radialGradient inkscape:collect="always" xlink:href="#linearGradient3984" id="radialGradient3831" gradientUnits="userSpaceOnUse" gradientTransform="matrix(0.37577722,0.03445303,-0.02757155,0.30072133,605.26915,586.90602)" cx="1989.9366" cy="503.58002" fx="1989.9366" fy="503.58002" r="365.07972"/>
    <linearGradient inkscape:collect="always" xlink:href="#linearGradient3984" id="linearGradient3833" gradientUnits="userSpaceOnUse" x1="1151.2692" y1="166.46587" x2="1415.8524" y2="463.56967"/>
    <radialGradient inkscape:collect="always" xlink:href="#linearGradient4161" id="radialGradient3886" gradientUnits="userSpaceOnUse" gradientTransform="matrix(0.91197809,0.59787327,-0.37789262,0.44532814,-337.2858,-25.69204)" cx="796.00017" cy="312.93051" fx="796.00017" fy="312.93051" r="254.55843"/>
    <radialGradient inkscape:collect="always" xlink:href="#linearGradient5280" id="radialGradient3888" gradientUnits="userSpaceOnUse" gradientTransform="matrix(0.98531897,0,0,0.98526623,7.6408419,4.688854)" cx="382.84375" cy="455.35938" fx="382.84375" fy="455.35938" r="291.9375"/>
    <linearGradient inkscape:collect="always" xlink:href="#linearGradient5348" id="linearGradient3890" gradientUnits="userSpaceOnUse" gradientTransform="translate(-0.28144371,0.63889057)" x1="54.72831" y1="579.81854" x2="748.02081" y2="355.68408"/>
    <linearGradient inkscape:collect="always" xlink:href="#linearGradient5170" id="linearGradient3892" gradientUnits="userSpaceOnUse" x1="486.78616" y1="311.95883" x2="190.81146" y2="525.16638"/>
    <linearGradient inkscape:collect="always" xlink:href="#linearGradient5210" id="linearGradient3894" gradientUnits="userSpaceOnUse" x1="353.63306" y1="403.9296" x2="405.62701" y2="455.44739"/>
    <linearGradient inkscape:collect="always" xlink:href="#linearGradient3871" id="linearGradient3896" gradientUnits="userSpaceOnUse" x1="313.77914" y1="375.51971" x2="467.50302" y2="556.33704"/>
    <radialGradient inkscape:collect="always" xlink:href="#linearGradient3984" id="radialGradient3898" gradientUnits="userSpaceOnUse" gradientTransform="matrix(0.37577722,0.03445303,-0.02757155,0.30072133,605.26915,586.90602)" cx="880.13934" cy="838.99133" fx="880.13934" fy="838.99133" r="365.07972"/>
    <radialGradient inkscape:collect="always" xlink:href="#linearGradient3984" id="radialGradient3900" gradientUnits="userSpaceOnUse" gradientTransform="matrix(0.37577722,0.03445303,-0.02757155,0.30072133,605.26915,586.90602)" cx="1989.9366" cy="503.58002" fx="1989.9366" fy="503.58002" r="365.07972"/>
    <linearGradient inkscape:collect="always" xlink:href="#linearGradient3984" id="linearGradient3902" gradientUnits="userSpaceOnUse" x1="1151.2692" y1="166.46587" x2="1415.8524" y2="463.56967"/>
  </defs>
  <sodipodi:namedview inkscape:document-units="mm" id="base" pagecolor="#ffffff" bordercolor="#666666" borderopacity="1.0" inkscape:pageopacity="0.0" inkscape:pageshadow="2" inkscape:zoom="0.24748737" inkscape:cx="-1603.0949" inkscape:cy="871.96149" inkscape:current-layer="text3810" showgrid="false" showguides="true" inkscape:guide-bbox="true" inkscape:snap-grids="false" inkscape:snap-to-guides="false" inkscape:window-width="1280" inkscape:window-height="962" inkscape:window-x="-8" inkscape:window-y="-8" inkscape:window-maximized="1">
    <sodipodi:guide orientation="0,1" position="-111.42857,942.85714" id="guide4555"/>
    <sodipodi:guide orientation="0,1" position="-117.14286,222.85714" id="guide4557"/>
    <sodipodi:guide orientation="1,0" position="731.42857,-91.428571" id="guide4559"/>
    <sodipodi:guide orientation="1,0" position="11.428571,-22.857143" id="guide4561"/>
    <sodipodi:guide orientation="1,0" position="382.84781,276.7818" id="guide4948"/>
    <sodipodi:guide orientation="0,1" position="28.284271,597.00015" id="guide4950"/>
  </sodipodi:namedview>
  <metadata id="metadata4">
    <rdf:RDF>
      <cc:Work rdf:about="">
        <dc:format>image/svg+xml</dc:format>
        <dc:type rdf:resource="http://purl.org/dc/dcmitype/StillImage"/>
        <dc:title>audio itunes u</dc:title>
        <dc:date>April 2010</dc:date>
        <dc:creator>
          <cc:Agent>
            <dc:title>Franziska Sponsel</dc:title>
          </cc:Agent>
        </dc:creator>
        <dc:rights>
          <cc:Agent>
            <dc:title>Franziska Sponsel</dc:title>
          </cc:Agent>
        </dc:rights>
        <dc:publisher>
          <cc:Agent>
            <dc:title>RRZE</dc:title>
          </cc:Agent>
        </dc:publisher>
        <dc:subject>
          <rdf:Bag>
            <rdf:li>music</rdf:li>
            <rdf:li>itunes</rdf:li>
            <rdf:li>apple</rdf:li>
            <rdf:li>university</rdf:li>
          </rdf:Bag>
        </dc:subject>
        <dc:contributor>
          <cc:Agent>
            <dc:title>Beate Kaspar</dc:title>
          </cc:Agent>
        </dc:contributor>
        <cc:license rdf:resource="http://creativecommons.org/licenses/by-sa/3.0/"/>
      </cc:Work>
      <cc:License rdf:about="http://creativecommons.org/licenses/by-sa/3.0/">
        <cc:permits rdf:resource="http://creativecommons.org/ns#Reproduction"/>
        <cc:permits rdf:resource="http://creativecommons.org/ns#Distribution"/>
        <cc:requires rdf:resource="http://creativecommons.org/ns#Notice"/>
        <cc:requires rdf:resource="http://creativecommons.org/ns#Attribution"/>
        <cc:permits rdf:resource="http://creativecommons.org/ns#DerivativeWorks"/>
        <cc:requires rdf:resource="http://creativecommons.org/ns#ShareAlike"/>
      </cc:License>
    </rdf:RDF>
  </metadata>
  <g inkscape:label="Layer 1" inkscape:groupmode="layer" id="layer1">
    <flowRoot style="font-size:144px;font-style:normal;font-weight:normal;fill:#000000;fill-opacity:1;stroke:none;font-family:Bitstream Vera Sans" id="flowRoot2937" xml:space="preserve"><flowRegion id="flowRegion2939"><rect y="-484.78067" x="-2697.1428" height="1554.2858" width="1617.1428" id="rect2941"/></flowRegion><flowPara id="flowPara2943"/></flowRoot>    <flowRoot xml:space="preserve" id="flowRoot3780" style="fill:black;stroke:none;stroke-opacity:1;stroke-width:1px;stroke-linejoin:miter;stroke-linecap:butt;fill-opacity:1;font-family:DilleniaUPC;font-style:normal;font-weight:normal;font-size:10px;-inkscape-font-specification:DilleniaUPC;font-stretch:normal;font-variant:normal;text-anchor:start;text-align:start;writing-mode:lr;line-height:125%"><flowRegion id="flowRegion3782"><rect id="rect3784" width="868.7312" height="686.90375" x="-1814.234" y="-268.91736" style="-inkscape-font-specification:DilleniaUPC;font-family:DilleniaUPC;font-weight:normal;font-style:normal;font-stretch:normal;font-variant:normal;font-size:10px;text-anchor:start;text-align:start;writing-mode:lr;line-height:125%"/></flowRegion><flowPara id="flowPara3786"/></flowRoot>    <flowRoot xml:space="preserve" id="flowRoot3788" style="font-size:144px;font-style:normal;font-weight:normal;fill:#000000;fill-opacity:1;stroke:none;font-family:Bitstream Vera Sans"><flowRegion id="flowRegion3790"><rect id="rect3792" width="1046.5181" height="977.82764" x="-1559.6755" y="-1012.3896"/></flowRegion><flowPara id="flowPara3794"/></flowRoot>    <g style="font-size:144px;font-style:normal;font-weight:normal;fill:#000000;fill-opacity:1;stroke:none;font-family:Californian FB;-inkscape-font-specification:Californian FB" id="text3810" transform="matrix(4.0024273,0,0,4.0024273,6532.7334,1743.069)">
      <g id="g3937">
        <path transform="matrix(0.24984839,0,0,0.24984839,-1632.1929,-435.50298)" style="color:#000000;fill:none;stroke:none;stroke-width:1px;marker:none;visibility:visible;display:inline;overflow:visible;enable-background:accumulate" d="m 11.428572,109.50504 719.999998,0 0,720 -719.999998,0 0,-720 z" id="rect4042"/>
        <g transform="matrix(0.20986428,0,0,0.20986428,-1627.8284,-427.8341)" id="g3860">
          <g transform="matrix(0.77603514,-0.41271904,0.46955479,0.88290334,-124.03206,235.5725)" id="g4081">
            <g transform="matrix(0.98846131,-0.13313895,0.17233309,0.98846131,-74.056744,56.226258)" id="g4108">
              <path id="path4158" d="M 502.5465,741.76563 C 449.41905,804.37376 302.41291,786.98824 174.19905,702.93399 45.985193,618.87974 -14.884373,499.9864 38.243076,437.37827 91.370518,374.77015 238.3767,392.15568 366.59055,476.20993 c 128.21386,84.05425 189.0834,202.94758 135.95595,265.5557 z" style="fill:url(#radialGradient3886);fill-opacity:1;fill-rule:evenodd;stroke:none"/>
              <path style="fill:#babdb6;fill-opacity:1;stroke:none" d="m 378.30083,386.98237 c -37.19327,0.45241 -69.69698,37.18451 -64.16094,74.39882 3.49773,30.61269 30.15453,58.09282 61.62208,59.26649 29.28132,2.12803 59.09291,-16.20963 68.05676,-44.48703 8.91504,-24.78782 1.92507,-54.76429 -18.43705,-72.00932 -12.77877,-11.44546 -29.82845,-18.02665 -47.08085,-17.16896 z m 2.41894,6.07699 c 28.47324,-0.54553 54.97578,21.4794 59.7773,49.48181 5.72571,27.67927 -10.57657,57.56315 -36.95902,67.73459 -25.25582,10.70042 -56.92407,1.4593 -72.43608,-21.22363 -17.0877,-23.17715 -14.18607,-58.21849 6.63734,-78.17482 11.20835,-11.33262 26.98869,-17.88986 42.98046,-17.81795 z" id="path5074"/>
              <path style="fill:#eeeeec;fill-rule:evenodd;stroke:#888a85;stroke-width:17;stroke-linecap:butt;stroke-linejoin:miter;stroke-miterlimit:4;stroke-opacity:1;stroke-dasharray:none" d="m 382.84375,163.4375 c -161.23075,0 -291.9375,130.70676 -291.9375,291.9375 0,161.23074 130.70675,291.90625 291.9375,291.90625 161.23074,0 291.9375,-130.67551 291.9375,-291.90625 0,-161.23074 -130.70676,-291.9375 -291.9375,-291.9375 z m -0.25,211.5 c 11.4955,-0.13601 22.97071,2.36837 33.40625,7.03125 22.69956,10.18163 40.08086,31.21945 45.53125,55.53125 5.88731,25.68351 -1.58708,54.13017 -19.84375,73.1875 -15.29773,16.28432 -37.56991,25.77431 -59.90625,25.46875 -23.23298,-0.27108 -46.0685,-11.30056 -60.84375,-29.125 -17.66836,-20.56938 -23.12189,-50.77233 -14.65625,-76.53125 9.89826,-32.36138 42.48127,-55.90877 76.3125,-55.5625 z" id="path4911"/>
              <path id="path4952" style="fill:#888a85;fill-opacity:1;stroke:none" d="m 381.31069,333.15948 c -61.07779,-0.6267 -116.73487,51.87683 -120.73952,112.68659 -4.25773,55.24724 33.11057,111.36164 86.68945,126.69506 51.69369,15.74214 113.02933,-6.7342 140.18801,-53.79816 25.17231,-41.71409 23.41348,-99.03556 -7.45446,-137.35324 -23.03596,-30.03971 -60.47012,-49.35112 -98.68348,-48.23025 z M 487.4445,455.33914 c 0,57.7975 -46.85413,104.65164 -104.65164,104.65164 -57.7975,0 -104.65163,-46.85414 -104.65163,-104.65164 0,-57.7975 46.85413,-104.65164 104.65163,-104.65164 57.79751,0 104.65164,46.85414 104.65164,104.65164 z"/>
              <path style="fill:#babdb6;fill-opacity:1;stroke:none" d="m 381.57073,351.32646 c -56.73188,-0.80428 -107.23617,52.65194 -103.06272,109.30296 2.63207,49.8564 44.77812,95.61795 95.29392,98.51483 47.79655,4.19325 97.01603,-27.93059 108.96792,-74.90923 12.59659,-42.64029 -5.12554,-92.96826 -43.51112,-116.05814 -17.00946,-11.07938 -37.25483,-17.43546 -57.688,-16.85042 z m 0.79062,14.79586 c 44.99306,-1.09457 87.15912,37.42462 89.36808,82.47841 3.26462,40.01253 -23.49737,81.04046 -62.75572,91.95555 -36.66518,11.53624 -80.39038,-3.3532 -100.6481,-36.13226 -20.60556,-30.86828 -19.74187,-75.25224 4.3505,-104.04874 16.62716,-21.00668 42.68385,-34.47864 69.68524,-34.25296 z" id="path5126"/>
              <path style="fill:#ffffff;fill-opacity:1;stroke:none" d="m 375.08977,169.14215 c -123.10813,2.01212 -237.05638,94.34998 -269.18569,212.39479 -22.244327,78.74014 -4.81197,165.87158 40.63333,233.06375 42.78777,64.47682 111.78092,112.01077 188.80849,123.30282 101.81503,15.87684 211.83358,-24.97376 274.77006,-107.0849 68.93802,-89.54421 78.7178,-221.60399 20.84276,-319.00136 C 579.15039,223.81574 478.7454,165.68917 376.02429,169.12657 l -0.93452,0.0156 z m 7.77526,13.44818 c 105.55362,-1.1695 208.12399,65.38111 249.74244,162.21246 39.16202,87.84924 28.1701,197.36728 -30.90807,273.63832 C 547.94979,691.00805 456.40623,734.668 365.74613,727.55876 279.98331,722.1251 197.62542,674.54942 152.58578,601.05714 107.4996,529.96452 97.075328,437.15793 128.15044,358.58466 157.97932,279.7094 225.77326,216.05664 307.27337,193.44092 c 24.55099,-7.08659 50.00568,-10.7729 75.59166,-10.85059 z" id="path5144"/>
              <path style="fill:url(#radialGradient3888);fill-opacity:1;fill-rule:evenodd;stroke:none" d="m 381.1875,167.71875 c -76.72384,0.50292 -152.43967,34.07484 -204.47077,90.01296 -53.40226,56.16423 -81.951178,134.85855 -77.018774,212.32807 4.064264,79.15349 43.549274,155.538 105.044034,204.97987 59.62417,49.09722 139.86833,71.73999 216.50801,61.64785 81.60666,-9.9496 157.29989,-57.46963 202.12657,-126.12532 C 669.74946,541.43672 682.67489,451.3582 658.71875,371.75 635.17728,291.86281 575.48153,224.55541 499.21875,191.5 462.11208,175.26307 421.71675,167.19038 381.1875,167.71875 z m 1.875,204.375 c 34.09992,-1.31305 66.75088,21.20841 78.25,53.0625 12.98813,33.58558 0.20787,75.16492 -29.84375,95.09375 -24.90092,17.69712 -59.93998,19.66367 -86.40747,4.14308 -27.28491,-14.76505 -43.95569,-46.07588 -41.26955,-77.04666 1.69621,-30.59893 22.78287,-58.56445 51.30202,-69.59642 8.86647,-3.54384 18.36744,-5.54371 27.96875,-5.65625 z" id="path5270"/>
              <path style="fill:url(#linearGradient3890);fill-opacity:1;fill-rule:evenodd;stroke:none" d="m 380.34375,172.15625 c -120.82907,-0.56857 -236.03188,85.63108 -270.01886,201.38239 -30.913353,102.90832 1.56587,223.09964 82.46873,294.14909 72.05933,63.86921 177.47474,89.0592 270.05013,60.93727 C 557.43256,700.35947 635.47235,620.82482 658.5625,524.53125 680.55813,433.356 655.36441,330.89852 590.99439,262.93542 536.90982,205.88049 459.27825,170.70784 380.34375,172.15625 z m 1.5625,199.78125 c 49.71803,-0.93162 92.88243,49.68078 83.66996,98.64103 -7.73295,46.71752 -60.7516,80.5573 -106.38871,66.32772 -43.2747,-12.20428 -71.59174,-63.44654 -56.34375,-106.3125 11.2151,-33.04991 43.731,-58.49521 79.0625,-58.65625 z" id="path3723"/>
              <g id="g5262">
                <path style="fill:#babdb6;fill-opacity:1;stroke:none" d="m 381.59375,341.3125 c -64.91948,-1.22597 -121.73753,62.87758 -112.625,127.1875 6.55314,55.15572 57.51766,102.60147 113.8125,101.15625 C 438.166,569.95387 491.05386,524.98081 496.20183,469.23629 502.65462,417.93722 470.30367,363.49878 420.5,347.75 c -12.45056,-4.40762 -25.65657,-6.83773 -38.90625,-6.4375 z m 2,34.59375 c 44.88497,-0.46683 85.35035,44.53352 77.78125,89.34375 -4.62356,42.03719 -47.73346,76.50074 -89.99228,68.46972 -36.4494,-4.92345 -67.80538,-37.97906 -67.78897,-75.50097 -1.49025,-33.54864 20.53696,-66.97693 52.6875,-77.5 8.72966,-3.17489 18.01913,-4.71559 27.3125,-4.8125 z" id="path5252"/>
                <path id="path5168" d="m 381.59375,341.3125 c -64.91948,-1.22597 -121.73753,62.87758 -112.625,127.1875 6.55314,55.15572 57.51766,102.60147 113.8125,101.15625 C 438.166,569.95387 491.05386,524.98081 496.20183,469.23629 502.65462,417.93722 470.30367,363.49878 420.5,347.75 c -12.45056,-4.40762 -25.65657,-6.83773 -38.90625,-6.4375 z m 2,34.59375 c 44.88497,-0.46683 85.35035,44.53352 77.78125,89.34375 -4.62356,42.03719 -47.73346,76.50074 -89.99228,68.46972 -36.4494,-4.92345 -67.80538,-37.97906 -67.78897,-75.50097 -1.49025,-33.54864 20.53696,-66.97693 52.6875,-77.5 8.72966,-3.17489 18.01913,-4.71559 27.3125,-4.8125 z" style="fill:url(#linearGradient3892);fill-opacity:1;stroke:none"/>
              </g>
              <g id="g5218" transform="matrix(0.90668998,0,0,0.90668998,35.706056,42.497804)">
                <path id="path5064" d="m 381.81408,369.03316 c -50.1739,-0.29054 -93.32024,50.38205 -84.642,99.92613 7.36226,46.03235 56.80695,81.61651 102.87492,71.06825 44.98219,-9.00878 78.53606,-58.16862 66.89174,-103.35224 -8.7952,-38.16996 -45.31064,-68.80457 -85.12466,-67.64214 z m 0.6477,17.39091 c 43.77257,-1.78195 80.38905,47.59223 66.42225,88.73572 -11.29693,40.08615 -63.82974,62.00958 -99.61718,40.57878 -36.87856,-19.31013 -47.63934,-75.88847 -17.79489,-105.85712 12.86545,-14.445 31.73574,-23.24138 50.98982,-23.45738 z" style="fill:#eeeeec;fill-opacity:1;stroke:none"/>
                <path style="fill:url(#linearGradient3894);fill-opacity:1;stroke:none" d="m 381.81408,369.03316 c -50.1739,-0.29054 -93.32024,50.38205 -84.642,99.92613 7.36226,46.03235 56.80695,81.61651 102.87492,71.06825 44.98219,-9.00878 78.53606,-58.16862 66.89174,-103.35224 -8.7952,-38.16996 -45.31064,-68.80457 -85.12466,-67.64214 z m 0.6477,17.39091 c 43.77257,-1.78195 80.38905,47.59223 66.42225,88.73572 -11.29693,40.08615 -63.82974,62.00958 -99.61718,40.57878 -36.87856,-19.31013 -47.63934,-75.88847 -17.79489,-105.85712 12.86545,-14.445 31.73574,-23.24138 50.98982,-23.45738 z" id="path5208"/>
              </g>
              <path d="m 381.31069,333.15948 c -61.07779,-0.6267 -116.73487,51.87683 -120.73952,112.68659 -4.25773,55.24724 33.11057,111.36164 86.68945,126.69506 51.69369,15.74214 113.02933,-6.7342 140.18801,-53.79816 25.17231,-41.71409 23.41348,-99.03556 -7.45446,-137.35324 -23.03596,-30.03971 -60.47012,-49.35112 -98.68348,-48.23025 z M 487.4445,455.33914 c 0,57.7975 -46.85413,104.65164 -104.65164,104.65164 -57.7975,0 -104.65163,-46.85414 -104.65163,-104.65164 0,-57.7975 46.85413,-104.65164 104.65163,-104.65164 57.79751,0 104.65164,46.85414 104.65164,104.65164 z" style="fill:#888a85;fill-opacity:1;stroke:none" id="path5180"/>
              <path id="path3869" style="fill:url(#linearGradient3896);fill-opacity:1;stroke:none" d="m 381.31069,333.15948 c -61.07779,-0.6267 -116.73487,51.87683 -120.73952,112.68659 -4.25773,55.24724 33.11057,111.36164 86.68945,126.69506 51.69369,15.74214 113.02933,-6.7342 140.18801,-53.79816 25.17231,-41.71409 23.41348,-99.03556 -7.45446,-137.35324 -23.03596,-30.03971 -60.47012,-49.35112 -98.68348,-48.23025 z M 487.4445,455.33914 c 0,57.7975 -46.85413,104.65164 -104.65164,104.65164 -57.7975,0 -104.65163,-46.85414 -104.65163,-104.65164 0,-57.7975 46.85413,-104.65164 104.65163,-104.65164 57.79751,0 104.65164,46.85414 104.65164,104.65164 z"/>
            </g>
          </g>
          <g transform="matrix(0.533305,0,0,0.533305,-163.19972,143.42393)" id="g4068">
            <path style="fill:#3465a4;fill-rule:evenodd;stroke:#204a87;stroke-width:17;stroke-linecap:butt;stroke-linejoin:miter;stroke-miterlimit:4;stroke-opacity:1;stroke-dasharray:none" d="m 1522.8438,223.78125 -481.4063,70 0,0.96875 -0.9687,0 0,504.875 c -27.8274,-21.07745 -66.4198,-34.15625 -109.0938,-34.15625 -84.79956,0 -153.5625,51.55659 -153.5625,115.15625 0,63.59967 68.76294,115.15625 153.5625,115.15625 84.7996,0 153.5312,-51.55658 153.5312,-115.15625 0,-6.3558 -0.7107,-12.58041 -2.0312,-18.65625 l 0,-406.34375 397.5938,-64.9375 0,344.9375 c -27.8273,-21.07745 -66.4198,-34.15625 -109.0938,-34.15625 -84.7996,0 -153.5625,51.55659 -153.5625,115.15625 0,63.59967 68.7629,115.15625 153.5625,115.15625 84.7996,0 153.5312,-51.55658 153.5312,-115.15625 0,-6.3558 -0.7107,-12.58041 -2.0312,-18.65625 l 0,-567.21875 -0.031,0 0,-6.96875 z" id="path3945"/>
            <path style="opacity:0.47464647;fill:none;stroke:#ffffff;stroke-width:11;stroke-linecap:butt;stroke-linejoin:miter;stroke-miterlimit:4;stroke-opacity:1;stroke-dasharray:none" d="m 1054.75,305.90625 c -0.6153,174.65566 -0.1146,349.31255 -0.2812,523.96875 -57.4265,-60.5376 -161.24442,-67.38058 -227.15592,-16.6878 -23.63771,19.06664 -40.68985,50.02653 -34.25359,80.79567 6.54279,34.08752 34.9663,59.85159 65.94071,72.89213 54.34144,24.02345 121.39424,19.27907 170.6562,-14.5625 24.8755,-17.6257 44.5273,-47.35873 40.7188,-79.03125 -3.0644,-27.36118 -0.884,-54.88675 -1.5,-82.34375 0,-115.70833 0,-231.41667 0,-347.125 141.8596,-23.20744 283.7186,-46.41907 425.5938,-69.53125 0,130.53125 -1e-4,261.0625 0,391.59375 -57.5208,-60.64008 -161.55,-67.38198 -227.4688,-16.46875 -23.0663,18.84822 -40.0452,49.16499 -34.125,79.59375 5.9886,33.20819 32.7556,58.97941 62.75,72.28125 54.8399,25.86277 123.7639,21.54296 174.0312,-12.96875 24.8755,-17.6257 44.5273,-47.35873 40.7188,-79.03125 -3.0644,-27.36118 -0.884,-54.88675 -1.5,-82.34375 -0.01,-162.32292 0.021,-324.64584 -0.031,-486.96875 -151.3646,21.97917 -302.7292,43.95833 -454.0938,65.9375 z" id="path3958"/>
            <path id="path3974" d="m 1054.75,305.90625 c -0.6153,174.65566 -0.1146,349.31255 -0.2812,523.96875 -57.4265,-60.5376 -161.24442,-67.38058 -227.15592,-16.6878 -23.63771,19.06664 -40.68985,50.02653 -34.25359,80.79567 6.54279,34.08752 34.9663,59.85159 65.94071,72.89213 54.34144,24.02345 121.39424,19.27907 170.6562,-14.5625 24.8755,-17.6257 44.5273,-47.35873 40.7188,-79.03125 -3.0644,-27.36118 -0.884,-54.88675 -1.5,-82.34375 0,-115.70833 0,-231.41667 0,-347.125 141.8596,-23.20744 283.7186,-46.41907 425.5938,-69.53125 0,130.53125 -1e-4,261.0625 0,391.59375 -57.5208,-60.64008 -161.55,-67.38198 -227.4688,-16.46875 -23.0663,18.84822 -40.0452,49.16499 -34.125,79.59375 5.9886,33.20819 32.7556,58.97941 62.75,72.28125 54.8399,25.86277 123.7639,21.54296 174.0312,-12.96875 24.8755,-17.6257 44.5273,-47.35873 40.7188,-79.03125 -3.0644,-27.36118 -0.884,-54.88675 -1.5,-82.34375 -0.01,-162.32292 0.021,-324.64584 -0.031,-486.96875 -151.3646,21.97917 -302.7292,43.95833 -454.0938,65.9375 z" style="opacity:0.61279464;fill:url(#radialGradient3898);fill-opacity:1;stroke:none"/>
            <path style="opacity:0.61279464;fill:url(#radialGradient3900);fill-opacity:1;stroke:none" d="m 1054.75,305.90625 c -0.6153,174.65566 -0.1146,349.31255 -0.2812,523.96875 -57.4265,-60.5376 -161.24442,-67.38058 -227.15592,-16.6878 -23.63771,19.06664 -40.68985,50.02653 -34.25359,80.79567 6.54279,34.08752 34.9663,59.85159 65.94071,72.89213 54.34144,24.02345 121.39424,19.27907 170.6562,-14.5625 24.8755,-17.6257 44.5273,-47.35873 40.7188,-79.03125 -3.0644,-27.36118 -0.884,-54.88675 -1.5,-82.34375 0,-115.70833 0,-231.41667 0,-347.125 141.8596,-23.20744 283.7186,-46.41907 425.5938,-69.53125 0,130.53125 -1e-4,261.0625 0,391.59375 -57.5208,-60.64008 -161.55,-67.38198 -227.4688,-16.46875 -23.0663,18.84822 -40.0452,49.16499 -34.125,79.59375 5.9886,33.20819 32.7556,58.97941 62.75,72.28125 54.8399,25.86277 123.7639,21.54296 174.0312,-12.96875 24.8755,-17.6257 44.5273,-47.35873 40.7188,-79.03125 -3.0644,-27.36118 -0.884,-54.88675 -1.5,-82.34375 -0.01,-162.32292 0.021,-324.64584 -0.031,-486.96875 -151.3646,21.97917 -302.7292,43.95833 -454.0938,65.9375 z" id="path3994"/>
            <path style="opacity:0.61279464;fill:url(#linearGradient3902);fill-opacity:1;stroke:none" d="m 1510.5312,235.6875 c -153.2431,22.37907 -306.5152,44.55906 -459.7812,66.78125 -0.099,49.45827 -0.3373,98.91659 -0.1875,148.375 154.1048,-25.18351 308.2099,-50.36535 462.3125,-75.5625 -0.014,-46.64584 0.043,-93.29174 -0.062,-139.9375 -0.7604,0.11458 -1.5208,0.22917 -2.2813,0.34375 z m -141.625,475.65625 c -47.4569,0.31265 -97.1273,19.02944 -125.8069,57.96499 -22.6315,30.79547 -19.3962,77.77668 8.1561,104.5661 30.4342,33.9611 77.4289,48.01201 122.0258,48.12516 47.2588,-0.4105 96.1225,-19.14214 125.6563,-56.96875 14.9704,-20.87955 18.2213,-48.03764 14.9687,-73.09375 -1.2164,-18.2894 -17.1411,-30.24698 -29.867,-41.35283 -32.1071,-26.16089 -73.7444,-39.86805 -115.133,-39.24092 z M 927.53125,775.375 c -47.58063,0.59857 -97.26596,19.68418 -125.40625,59.3125 -20.47637,29.31743 -18.645,72.81131 5.90625,99.40625 25.64219,31.67151 66.3771,47.2001 106,51.03125 51.89415,5.14909 107.76785,-12.26351 142.09375,-52.5 16.9742,-20.74965 21.3541,-49.30996 17.7812,-75.3125 -0.3385,-18.42106 -16.2133,-30.97299 -28.9687,-42.0625 -32.5935,-26.94317 -75.18436,-40.62561 -117.40625,-39.875 z" id="path4010"/>
          </g>
        </g>
        <g id="text3904" style="fill:#2e3436;font-family:Forte;-inkscape-font-specification:Forte" transform="matrix(0.85114965,0,0,0.85114965,-184.59092,-98.753026)">
          <path style="fill:#2e3436" id="path3909" d="m -1544.891,-197.99112 -1.1953,0.98438 c -0.2344,0.14064 -1.8047,1.33595 -4.7109,3.58593 -5.6251,4.40627 -10.2657,7.88673 -13.9219,10.44141 -3.6563,2.55469 -6.7032,4.42969 -9.1406,5.625 -2.4376,1.19531 -4.4063,1.79297 -5.9063,1.79297 -2.5313,0 -4.5586,-1.04297 -6.082,-3.12891 -1.5235,-2.08593 -2.2852,-4.79296 -2.2852,-8.12109 0,-5.62499 0.8438,-12.17576 2.5313,-19.65235 1.6875,-7.47652 3.9609,-14.84761 6.8203,-22.11328 3.1406,-8.06244 6.9843,-12.98431 11.5312,-14.76562 1.5938,-0.70306 3.4688,-1.05462 5.625,-1.05469 2.9531,7e-5 5.3437,0.91413 7.1719,2.74219 1.8281,1.82819 2.7422,4.24225 2.7422,7.24219 0,2.06255 -0.3516,4.24224 -1.0547,6.53906 -0.7032,2.29692 -1.8282,5.03911 -3.375,8.22656 l -0.8437,2.03906 c -4.0313,8.53129 -6.0469,13.71097 -6.0469,15.53907 0,1.07815 0.375,1.61721 1.125,1.61718 0.7031,3e-5 1.6171,-0.49216 2.7422,-1.47656 1.1249,-0.98435 2.8593,-2.78903 5.2031,-5.41406 1.4531,-1.78122 3.5156,-4.00778 6.1875,-6.67969 l 2.6016,-2.60156 2.25,-2.39063 c 4.7343,-4.68745 8.6015,-8.07416 11.6015,-10.16015 3,-2.08589 5.4843,-3.12885 7.4531,-3.12891 3.75,6e-5 5.625,3.25787 5.625,9.77344 0,1.35942 -0.1641,3.77348 -0.4921,7.24219 -0.5626,6.75003 -0.8439,12.46877 -0.8438,17.15625 0.047,0.93752 0.082,1.79298 0.1055,2.5664 0.023,0.77346 0.035,1.76955 0.035,2.98828 0.3281,3.14064 0.5625,5.5547 0.7032,7.24219 0.328,2.67188 0.4921,4.00782 0.4921,4.00781 0,1.40626 -1.2657,2.64844 -3.7968,3.72657 -2.5313,1.07812 -5.461,1.61718 -8.7891,1.61718 -3.0469,0 -5.6602,-0.59765 -7.8398,-1.79297 -2.1798,-1.19531 -3.8321,-2.96483 -4.9571,-5.30859 -1.125,-2.34374 -1.6875,-5.20311 -1.6875,-8.57812 0,-0.42186 0.047,-1.16014 0.1407,-2.21485 0.094,-1.05467 0.1874,-2.42576 0.2812,-4.11328 z"/>
        </g>
      </g>
    </g>
  </g>
</svg>
