<?xml version="1.0" encoding="UTF-8" standalone="no"?>
<!-- Created with Inkscape (http://www.inkscape.org/) -->
<svg xmlns:dc="http://purl.org/dc/elements/1.1/" xmlns:cc="http://creativecommons.org/ns#" xmlns:rdf="http://www.w3.org/1999/02/22-rdf-syntax-ns#" xmlns:svg="http://www.w3.org/2000/svg" xmlns="http://www.w3.org/2000/svg" xmlns:xlink="http://www.w3.org/1999/xlink" xmlns:sodipodi="http://sodipodi.sourceforge.net/DTD/sodipodi-0.dtd" xmlns:inkscape="http://www.inkscape.org/namespaces/inkscape" width="210mm" height="297mm" id="svg2" sodipodi:version="0.32" inkscape:version="0.46" inkscape:output_extension="org.inkscape.output.svg.inkscape">
  <defs id="defs4">
    <linearGradient inkscape:collect="always" id="linearGradient3275">
      <stop style="stop-color:#000000;stop-opacity:1;" offset="0" id="stop3277"/>
      <stop style="stop-color:#000000;stop-opacity:0;" offset="1" id="stop3279"/>
    </linearGradient>
    <linearGradient inkscape:collect="always" id="linearGradient3171">
      <stop style="stop-color:#ffffff;stop-opacity:1;" offset="0" id="stop3173"/>
      <stop style="stop-color:#ffffff;stop-opacity:0;" offset="1" id="stop3175"/>
    </linearGradient>
    <inkscape:perspective sodipodi:type="inkscape:persp3d" inkscape:vp_x="0 : 526.18109 : 1" inkscape:vp_y="0 : 1000 : 0" inkscape:vp_z="744.09448 : 526.18109 : 1" inkscape:persp3d-origin="372.04724 : 350.78739 : 1" id="perspective10"/>
    <radialGradient inkscape:collect="always" xlink:href="#linearGradient3171" id="radialGradient3221" gradientUnits="userSpaceOnUse" gradientTransform="matrix(1.7001916,3.4139097e-2,-3.2661958e-2,1.6266273,-225.36474,-314.79054)" cx="310.284" cy="456.20535" fx="310.284" fy="456.20535" r="250.87133"/>
    <radialGradient inkscape:collect="always" xlink:href="#linearGradient3171" id="radialGradient3225" gradientUnits="userSpaceOnUse" gradientTransform="matrix(1.7001916,3.4139097e-2,-3.2661958e-2,1.6266273,-225.36474,-314.79054)" cx="310.284" cy="456.20535" fx="310.284" fy="456.20535" r="250.87133"/>
    <radialGradient inkscape:collect="always" xlink:href="#linearGradient3171" id="radialGradient3229" gradientUnits="userSpaceOnUse" gradientTransform="matrix(1.7001916,3.4139097e-2,-3.2661958e-2,1.6266273,-225.36474,-314.79054)" cx="310.284" cy="456.20535" fx="310.284" fy="456.20535" r="250.87133"/>
    <radialGradient inkscape:collect="always" xlink:href="#linearGradient3171" id="radialGradient3233" gradientUnits="userSpaceOnUse" gradientTransform="matrix(1.7001916,3.4139097e-2,-3.2661958e-2,1.6266273,-225.36474,-314.79054)" cx="310.284" cy="456.20535" fx="310.284" fy="456.20535" r="250.87133"/>
    <radialGradient inkscape:collect="always" xlink:href="#linearGradient3171" id="radialGradient3237" gradientUnits="userSpaceOnUse" gradientTransform="matrix(1.7001916,3.4139097e-2,-3.2661958e-2,1.6266273,-225.36474,-314.79054)" cx="310.284" cy="456.20535" fx="310.284" fy="456.20535" r="250.87133"/>
    <radialGradient inkscape:collect="always" xlink:href="#linearGradient3171" id="radialGradient3241" gradientUnits="userSpaceOnUse" gradientTransform="matrix(1.7001916,3.4139097e-2,-3.2661958e-2,1.6266273,-225.36474,-314.79054)" cx="310.284" cy="456.20535" fx="310.284" fy="456.20535" r="250.87133"/>
    <radialGradient inkscape:collect="always" xlink:href="#linearGradient3171" id="radialGradient3245" gradientUnits="userSpaceOnUse" gradientTransform="matrix(1.7001916,3.4139097e-2,-3.2661958e-2,1.6266273,-225.36474,-314.79054)" cx="310.284" cy="456.20535" fx="310.284" fy="456.20535" r="250.87133"/>
    <radialGradient inkscape:collect="always" xlink:href="#linearGradient3171" id="radialGradient3249" gradientUnits="userSpaceOnUse" gradientTransform="matrix(1.7001916,3.4139097e-2,-3.2661958e-2,1.6266273,-225.36474,-314.79054)" cx="310.284" cy="456.20535" fx="310.284" fy="456.20535" r="250.87133"/>
    <radialGradient inkscape:collect="always" xlink:href="#linearGradient3171" id="radialGradient3253" gradientUnits="userSpaceOnUse" gradientTransform="matrix(1.7001916,3.4139097e-2,-3.2661958e-2,1.6266273,-225.36474,-314.79054)" cx="310.284" cy="456.20535" fx="310.284" fy="456.20535" r="250.87133"/>
    <radialGradient inkscape:collect="always" xlink:href="#linearGradient3171" id="radialGradient3257" gradientUnits="userSpaceOnUse" gradientTransform="matrix(1.7001916,3.4139097e-2,-3.2661958e-2,1.6266273,-225.36474,-314.79054)" cx="310.284" cy="456.20535" fx="310.284" fy="456.20535" r="250.87133"/>
    <radialGradient inkscape:collect="always" xlink:href="#linearGradient3171" id="radialGradient3261" gradientUnits="userSpaceOnUse" gradientTransform="matrix(1.7001916,3.4139097e-2,-3.2661958e-2,1.6266273,-225.36474,-314.79054)" cx="310.284" cy="456.20535" fx="310.284" fy="456.20535" r="250.87133"/>
    <radialGradient inkscape:collect="always" xlink:href="#linearGradient3171" id="radialGradient3265" gradientUnits="userSpaceOnUse" gradientTransform="matrix(1.7001916,3.4139097e-2,-3.2661958e-2,1.6266273,-225.36474,-314.79054)" cx="310.284" cy="456.20535" fx="310.284" fy="456.20535" r="250.87133"/>
    <radialGradient inkscape:collect="always" xlink:href="#linearGradient3171" id="radialGradient3269" gradientUnits="userSpaceOnUse" gradientTransform="matrix(1.7001916,3.4139097e-2,-3.2661958e-2,1.6266273,-225.36474,-314.79054)" cx="310.284" cy="456.20535" fx="310.284" fy="456.20535" r="250.87133"/>
    <radialGradient inkscape:collect="always" xlink:href="#linearGradient3275" id="radialGradient3281" cx="395" cy="741.64789" fx="395" fy="741.64789" r="280.71429" gradientTransform="matrix(1,0,0,0.2417303,0,562.36915)" gradientUnits="userSpaceOnUse"/>
  </defs>
  <sodipodi:namedview id="base" pagecolor="#ffffff" bordercolor="#666666" borderopacity="1.0" inkscape:pageopacity="0.0" inkscape:pageshadow="2" inkscape:zoom="0.7" inkscape:cx="270.80304" inkscape:cy="503.35915" inkscape:document-units="px" inkscape:current-layer="layer1" showgrid="false" showguides="true" inkscape:guide-bbox="true">
    <sodipodi:guide orientation="0,1" position="-98.994949,975.80736" id="guide2387"/>
    <sodipodi:guide orientation="0,1" position="-314.28571,248.57143" id="guide2389"/>
    <sodipodi:guide orientation="1,0" position="8.5714286,80" id="guide2391"/>
    <sodipodi:guide orientation="1,0" position="737.41136,148.49242" id="guide2393"/>
  </sodipodi:namedview>
  <metadata id="metadata7">
    <rdf:RDF>
      <cc:Work rdf:about="">
        <dc:format>image/svg+xml</dc:format>
        <dc:type rdf:resource="http://purl.org/dc/dcmitype/StillImage"/>
        <dc:title>network cloud</dc:title>
        <dc:source/>
        <dc:date>July 2010</dc:date>
        <dc:creator>
          <cc:Agent>
            <dc:title>Franziska Sponsel</dc:title>
          </cc:Agent>
        </dc:creator>
        <dc:rights>
          <cc:Agent>
            <dc:title>Franziska Sponsel</dc:title>
          </cc:Agent>
        </dc:rights>
        <dc:publisher>
          <cc:Agent>
            <dc:title>RRZE</dc:title>
          </cc:Agent>
        </dc:publisher>
        <dc:subject>
          <rdf:Bag>
            <rdf:li>cloud</rdf:li>
            <rdf:li>network</rdf:li>
            <rdf:li>network cloud</rdf:li>
          </rdf:Bag>
        </dc:subject>
        <dc:contributor>
          <cc:Agent>
            <dc:title>Beate Kaspar, Hendrik Eggers</dc:title>
          </cc:Agent>
        </dc:contributor>
        <cc:license rdf:resource="http://creativecommons.org/licenses/by-sa/3.0/"/>
      </cc:Work>
      <cc:License rdf:about="http://creativecommons.org/licenses/by-sa/3.0/">
        <cc:permits rdf:resource="http://creativecommons.org/ns#Reproduction"/>
        <cc:permits rdf:resource="http://creativecommons.org/ns#Distribution"/>
        <cc:requires rdf:resource="http://creativecommons.org/ns#Notice"/>
        <cc:requires rdf:resource="http://creativecommons.org/ns#Attribution"/>
        <cc:permits rdf:resource="http://creativecommons.org/ns#DerivativeWorks"/>
        <cc:requires rdf:resource="http://creativecommons.org/ns#ShareAlike"/>
      </cc:License>
    </rdf:RDF>
  </metadata>
  <g inkscape:label="Ebene 1" inkscape:groupmode="layer" id="layer1">
    <g id="g3283">
      <path transform="matrix(1,0,0,0.8736842,-52.857143,67.967557)" d="M 675.71429,741.64789 A 280.71429,67.85714 0 1 1 114.28571,741.64789 A 280.71429,67.85714 0 1 1 675.71429,741.64789 z" sodipodi:ry="67.85714" sodipodi:rx="280.71429" sodipodi:cy="741.64789" sodipodi:cx="395" id="path3273" style="opacity:0.69732941;fill:url(#radialGradient3281);fill-opacity:1;stroke:none;stroke-width:14;stroke-linecap:square;stroke-linejoin:round;stroke-miterlimit:4;stroke-dasharray:none;stroke-opacity:1" sodipodi:type="arc"/>
      <rect y="75.219322" x="8.5714283" height="728.57141" width="728.57141" id="rect2385" style="opacity:1;fill:none;fill-opacity:1;stroke:none;stroke-width:7;stroke-linecap:square;stroke-linejoin:miter;stroke-miterlimit:4;stroke-dasharray:none;stroke-opacity:1"/>
      <path sodipodi:nodetypes="cccccc" id="path3165" d="M 211.12189,403.84425 C 222.99655,267.68465 343.71483,220.32465 435.37575,331.11327 C 568.78107,288.0636 627.28861,373.12898 560.63467,495.76813 C 613.66782,558.65507 565.14669,707.15299 422.24376,635.16919 C 336.27491,726.67755 230.49992,722.47753 216.17265,590.72247 C 89.580091,598.92183 38.69458,443.08301 211.12189,403.84425 z" style="fill:#729fcf;fill-rule:evenodd;stroke:#204a87;stroke-width:14;stroke-linecap:butt;stroke-linejoin:round;stroke-opacity:1;stroke-miterlimit:4;stroke-dasharray:none"/>
      <path id="path3169" d="M 322.96875,283.5625 C 284.66648,284.39203 252.07441,313.66988 238.40775,348.10193 C 229.5731,368.33721 228.2282,390.97551 221.65625,411.71875 C 210.12222,422.82687 192.2775,420.37812 179.0082,428.27559 C 151.09739,439.38719 123.53394,459.86213 115.90625,490.34375 C 109.31538,521.55908 129.29164,554.03349 157.84375,566.34375 C 177.78713,576.83203 201.34989,576.18208 223.0625,579.15625 C 233.41151,587.3017 230.66664,602.28937 234.09451,613.66311 C 240.01426,640.41054 254.72822,668.63971 281.5,679.25 C 309.80004,689.60749 341.1356,679.68165 365.6651,664.41494 C 385.40423,652.5057 400.47551,634.49922 419.84375,622.21875 C 436.86024,622.26586 450.06534,635.76063 466.81241,637.37338 C 492.94129,644.02967 524.41694,640.59083 543.53125,620 C 574.14553,588.84928 575.07082,535.40928 548.75,501.40625 C 545.04989,488.1932 556.04544,477.32555 559.79824,465.50995 C 572.37962,436.01318 580.60958,401.31819 568.0625,370.4375 C 557.91923,347.40788 532.65644,334.68744 508.28125,333.84375 C 483.14628,331.86176 458.78915,340.07043 434.3125,343.90625 C 421.21119,341.54073 415.82875,327.78495 406.15625,320.125 C 383.71909,299.18895 354.46097,282.83405 322.96875,283.5625 z" style="fill:url(#radialGradient3221);fill-opacity:1;fill-rule:evenodd;stroke:#ffffff;stroke-width:14;stroke-linecap:butt;stroke-linejoin:round;stroke-miterlimit:4;stroke-dasharray:none;stroke-opacity:1;opacity:0.56973294"/>
      <path id="path3223" d="M 322.875,277.5625 C 279.00971,279.1035 242.0305,313.89304 229.1875,354.46875 C 222.70151,372.48014 223.83448,392.87443 214.09375,409.71875 C 194.54892,419.13143 171.4468,420.31204 153.86547,433.95895 C 128.69939,448.9474 107.35247,475.74543 108.83291,506.34241 C 111.22151,545.45798 146.30039,577.21671 184.40625,581.03125 C 196.71715,583.05442 210.12724,581.49665 221.53125,586.75 C 229.62709,603.0821 226.33235,622.94108 235.65625,638.96875 C 246.37601,664.9645 270.22225,687.869 299.53125,689.03125 C 338.21006,691.81418 373.7758,670.38232 400.73604,644.56506 C 407.72891,638.3981 415.15205,630.2538 424.87387,629.06492 C 446.02975,634.71024 465.70944,648.27272 488.5,646.75 C 523.97756,648.73344 559.23093,624.40988 568.56623,589.89507 C 578.94527,558.7923 572.15737,523.54944 554.40625,496.625 C 556.03829,478.88458 570.05653,465.24861 572.91371,447.79013 C 582.68525,418.18635 584.87775,382.60619 566.22687,355.90044 C 546.44537,330.38983 510.82818,323.34134 480.3125,328.8125 C 463.90732,331.1899 447.85374,338.18555 431.0625,336.03125 C 415.26477,324.46035 405.00034,305.95869 386.71875,297.3125 C 367.78929,285.13844 345.64464,276.9167 322.875,277.5625 z" style="opacity:0.69732938;fill:url(#radialGradient3269);fill-opacity:1;fill-rule:evenodd;stroke:none;stroke-width:14;stroke-linecap:butt;stroke-linejoin:round;stroke-miterlimit:4;stroke-dasharray:none;stroke-opacity:1"/>
      <path style="fill:none;fill-opacity:1;fill-rule:evenodd;stroke:#ffffff;stroke-width:14;stroke-linecap:butt;stroke-linejoin:round;stroke-miterlimit:4;stroke-dasharray:none;stroke-opacity:1;opacity:0.56973293999999997" d="M 322.96875,283.5625 C 284.66648,284.39203 252.07441,313.66988 238.40775,348.10193 C 229.5731,368.33721 228.2282,390.97551 221.65625,411.71875 C 210.12222,422.82687 192.2775,420.37812 179.0082,428.27559 C 151.09739,439.38719 123.53394,459.86213 115.90625,490.34375 C 109.31538,521.55908 129.29164,554.03349 157.84375,566.34375 C 177.78713,576.83203 201.34989,576.18208 223.0625,579.15625 C 233.41151,587.3017 230.66664,602.28937 234.09451,613.66311 C 240.01426,640.41054 254.72822,668.63971 281.5,679.25 C 309.80004,689.60749 341.1356,679.68165 365.6651,664.41494 C 385.40423,652.5057 400.47551,634.49922 419.84375,622.21875 C 436.86024,622.26586 450.06534,635.76063 466.81241,637.37338 C 492.94129,644.02967 524.41694,640.59083 543.53125,620 C 574.14553,588.84928 575.07082,535.40928 548.75,501.40625 C 545.04989,488.1932 556.04544,477.32555 559.79824,465.50995 C 572.37962,436.01318 580.60958,401.31819 568.0625,370.4375 C 557.91923,347.40788 532.65644,334.68744 508.28125,333.84375 C 483.14628,331.86176 458.78915,340.07043 434.3125,343.90625 C 421.21119,341.54073 415.82875,327.78495 406.15625,320.125 C 383.71909,299.18895 354.46097,282.83405 322.96875,283.5625 z" id="path3271"/>
    </g>
  </g>
</svg>
