<?xml version="1.0" encoding="UTF-8" standalone="no"?>
<!-- Created with Inkscape (http://www.inkscape.org/) -->
<svg xmlns:dc="http://purl.org/dc/elements/1.1/" xmlns:cc="http://creativecommons.org/ns#" xmlns:rdf="http://www.w3.org/1999/02/22-rdf-syntax-ns#" xmlns:svg="http://www.w3.org/2000/svg" xmlns="http://www.w3.org/2000/svg" xmlns:xlink="http://www.w3.org/1999/xlink" xmlns:sodipodi="http://sodipodi.sourceforge.net/DTD/sodipodi-0.dtd" xmlns:inkscape="http://www.inkscape.org/namespaces/inkscape" width="210mm" height="297mm" id="svg3625" version="1.1" inkscape:version="0.47 r22583" sodipodi:version="0.32" inkscape:output_extension="org.inkscape.output.svg.inkscape">
  <title id="title2869">film</title>
  <defs id="defs3">
    <linearGradient inkscape:collect="always" id="linearGradient4536">
      <stop style="stop-color:#000000;stop-opacity:1;" offset="0" id="stop4538"/>
      <stop style="stop-color:#000000;stop-opacity:0;" offset="1" id="stop4540"/>
    </linearGradient>
    <linearGradient id="linearGradient4479">
      <stop id="stop4495" offset="0" style="stop-color:#ffffff;stop-opacity:0.54802263;"/>
      <stop id="stop4493" offset="0.0625" style="stop-color:#ffffff;stop-opacity:0.6836158;"/>
      <stop id="stop4491" offset="0.26066756" style="stop-color:#ffffff;stop-opacity:0.96610171;"/>
      <stop id="stop4489" offset="0.42544201" style="stop-color:#ffffff;stop-opacity:0.74901962;"/>
      <stop style="stop-color:#ffffff;stop-opacity:0.62352943;" offset="0.64118212" id="stop4497"/>
      <stop id="stop4487" offset="0.80933452" style="stop-color:#ffffff;stop-opacity:0.49803922;"/>
      <stop style="stop-color:#ffffff;stop-opacity:0;" offset="1" id="stop4483"/>
    </linearGradient>
    <linearGradient id="linearGradient4239">
      <stop style="stop-color:#ffffff;stop-opacity:1;" offset="0" id="stop4241"/>
      <stop style="stop-color:#d3d7cf;stop-opacity:1;" offset="1" id="stop4243"/>
    </linearGradient>
    <linearGradient id="linearGradient4231">
      <stop style="stop-color:#888a85;stop-opacity:1;" offset="0" id="stop4233"/>
      <stop style="stop-color:#888a85;stop-opacity:0;" offset="1" id="stop4235"/>
    </linearGradient>
    <inkscape:perspective sodipodi:type="inkscape:persp3d" inkscape:vp_x="0 : 526.18109 : 1" inkscape:vp_y="0 : 1000 : 0" inkscape:vp_z="744.09448 : 526.18109 : 1" inkscape:persp3d-origin="372.04724 : 350.78739 : 1" id="perspective3631"/>
    <radialGradient inkscape:collect="always" xlink:href="#linearGradient4239" id="radialGradient4448" gradientUnits="userSpaceOnUse" gradientTransform="matrix(0.96474339,0,0,0.9676409,17.417478,19.132295)" cx="291.4241" cy="398.07635" fx="291.4241" fy="398.07635" r="239.51971"/>
    <radialGradient inkscape:collect="always" xlink:href="#linearGradient4239" id="radialGradient4451" gradientUnits="userSpaceOnUse" gradientTransform="matrix(0.96474339,0,0,0.9676409,103.13176,19.132295)" cx="291.4241" cy="398.07635" fx="291.4241" fy="398.07635" r="239.51971"/>
    <linearGradient inkscape:collect="always" xlink:href="#linearGradient4479" id="linearGradient4485" x1="25.821878" y1="665.11609" x2="272.74594" y2="551.54468" gradientUnits="userSpaceOnUse"/>
    <linearGradient inkscape:collect="always" xlink:href="#linearGradient4479" id="linearGradient4501" gradientUnits="userSpaceOnUse" x1="25.821878" y1="665.11609" x2="272.74594" y2="551.54468"/>
    <linearGradient inkscape:collect="always" xlink:href="#linearGradient4479" id="linearGradient4505" gradientUnits="userSpaceOnUse" x1="25.821878" y1="665.11609" x2="272.74594" y2="551.54468"/>
    <linearGradient inkscape:collect="always" xlink:href="#linearGradient4479" id="linearGradient4509" gradientUnits="userSpaceOnUse" x1="25.821878" y1="665.11609" x2="272.74594" y2="551.54468"/>
    <radialGradient inkscape:collect="always" xlink:href="#linearGradient4536" id="radialGradient4542" cx="-371.73614" cy="507.88996" fx="-371.73614" fy="507.88996" r="276.7818" gradientTransform="matrix(1.0474452,0,0,0.23722628,828.78962,613.67928)" gradientUnits="userSpaceOnUse"/>
    <radialGradient inkscape:collect="always" xlink:href="#linearGradient4536" id="radialGradient4546" gradientUnits="userSpaceOnUse" gradientTransform="matrix(0.67883211,0,0,0.1459854,450.33633,683.25311)" cx="-371.73614" cy="507.88996" fx="-371.73614" fy="507.88996" r="276.7818"/>
  </defs>
  <sodipodi:namedview inkscape:document-units="mm" id="base" pagecolor="#ffffff" bordercolor="#666666" borderopacity="1.0" inkscape:pageopacity="0.0" inkscape:pageshadow="2" inkscape:zoom="0.49497475" inkscape:cx="-207.85715" inkscape:cy="334.4162" inkscape:current-layer="layer1" showgrid="false" showguides="true" inkscape:guide-bbox="true" inkscape:snap-to-guides="false" inkscape:snap-grids="false" inkscape:window-width="1280" inkscape:window-height="962" inkscape:window-x="-8" inkscape:window-y="-8" inkscape:window-maximized="1">
    <sodipodi:guide orientation="0,1" position="-220,921.42857" id="guide3635"/>
    <sodipodi:guide orientation="0,1" position="-154.28571,191.42857" id="guide3637"/>
    <sodipodi:guide orientation="1,0" position="5.7142857,442.85714" id="guide3639"/>
    <sodipodi:guide orientation="1,0" position="737.14286,404.28571" id="guide3641"/>
    <sodipodi:guide orientation="-0.8660254,0.5" position="300,412.85714" id="guide4164"/>
    <sodipodi:guide orientation="-0.8660254,-0.5" position="581.42857,217.14286" id="guide4166"/>
    <sodipodi:guide orientation="0,1" position="109.28571,558.57143" id="guide4172"/>
    <sodipodi:guide orientation="0,1" position="-218.19295,636.3961" id="guide4176"/>
  </sodipodi:namedview>
  <metadata id="metadata4">
    <rdf:RDF>
      <cc:Work rdf:about="">
        <dc:format>image/svg+xml</dc:format>
        <dc:type rdf:resource="http://purl.org/dc/dcmitype/StillImage"/>
        <dc:title>video film</dc:title>
        <dc:date>April 2009</dc:date>
        <dc:creator>
          <cc:Agent>
            <dc:title>Franziska Sponsel</dc:title>
          </cc:Agent>
        </dc:creator>
        <dc:rights>
          <cc:Agent>
            <dc:title>Franziska Sponsel</dc:title>
          </cc:Agent>
        </dc:rights>
        <dc:publisher>
          <cc:Agent>
            <dc:title>RRZE</dc:title>
          </cc:Agent>
        </dc:publisher>
        <dc:subject>
          <rdf:Bag>
            <rdf:li>film</rdf:li>
            <rdf:li>movie</rdf:li>
            <rdf:li>role</rdf:li>
          </rdf:Bag>
        </dc:subject>
        <dc:contributor>
          <cc:Agent>
            <dc:title>Beate Kaspar, Hendrik Eggers</dc:title>
          </cc:Agent>
        </dc:contributor>
        <cc:license rdf:resource="http://creativecommons.org/licenses/by-sa/3.0/"/>
      </cc:Work>
      <cc:License rdf:about="http://creativecommons.org/licenses/by-sa/3.0/">
        <cc:permits rdf:resource="http://creativecommons.org/ns#Reproduction"/>
        <cc:permits rdf:resource="http://creativecommons.org/ns#Distribution"/>
        <cc:requires rdf:resource="http://creativecommons.org/ns#Notice"/>
        <cc:requires rdf:resource="http://creativecommons.org/ns#Attribution"/>
        <cc:permits rdf:resource="http://creativecommons.org/ns#DerivativeWorks"/>
        <cc:requires rdf:resource="http://creativecommons.org/ns#ShareAlike"/>
      </cc:License>
    </rdf:RDF>
  </metadata>
  <g inkscape:label="Layer 1" inkscape:groupmode="layer" id="layer1">
    <g id="g4548">
      <rect y="129.50504" x="5.7142859" height="731.42859" width="731.42859" id="rect3633" style="color:#000000;fill:none;fill-opacity:1;fill-rule:evenodd;stroke:none;stroke-width:1px;stroke-linecap:butt;stroke-linejoin:miter;stroke-miterlimit:4;stroke-opacity:1;stroke-dasharray:none;stroke-dashoffset:0;marker:none;visibility:visible;display:inline;overflow:visible;enable-background:accumulate"/>
      <path id="path4216" d="m 400.90179,211.59375 c -87.16702,0.273 -171.07812,53.75307 -208.65625,132 -35.31854,71.26561 -31.46868,161.07819 11.2465,228.40686 40.38887,65.46011 114.10561,109.31724 191.37708,111.63731 72.59598,3.04053 145.74724,-29.15693 191.50142,-85.54417 46.2239,-55.67899 65.07839,-133.23082 48.0422,-203.89147 C 618.03062,323.25107 567.30321,261.05008 500.43228,231.98514 469.27536,218.1029 435.07502,211.0011 400.90179,211.59375 z m 5.09375,32.65625 c 34.15071,-0.0363 64.18448,32.74876 60.625,66.875 -2.01597,30.56242 -28.96968,57.53465 -60.03125,57.75 -29.15219,1.14323 -57.53983,-20.05773 -63.0625,-48.90625 -5.74753,-26.07979 6.63518,-55.3259 30.5,-67.78125 9.80206,-5.49355 20.76167,-8.1116 31.96875,-7.9375 z m -123.3125,72.71875 c 34.24484,-0.96406 65.24072,31.43935 62.32959,65.68647 -1.34892,31.42373 -29.33025,59.22672 -61.04834,59.00103 -29.40971,0.76065 -57.72848,-21.34766 -62.5,-50.625 -5.03185,-26.13451 8.16279,-55.02507 32.21875,-66.84375 8.97774,-4.74852 18.89074,-7.11836 29,-7.21875 z m 241.59375,0.75 c 34.85968,-1.6438 66.17514,30.8544 63.4375,65.5625 -1.34272,30.84619 -28.34287,58.5474 -59.6875,59.03125 -29.75411,1.36847 -58.84234,-20.58411 -63.79415,-50.32346 -5.30031,-26.73718 8.55071,-56.46072 33.73165,-67.89529 8.18873,-4.03317 17.17624,-6.21164 26.3125,-6.375 z m -120.34375,93.5625 c 9.51147,-0.85893 13.77976,14.56572 4.6875,18.1875 -7.46686,4.22329 -17.62272,-4.7786 -13.09375,-12.5625 1.49748,-3.24502 4.80452,-5.63693 8.40625,-5.625 z m 23.0625,14.03125 c 8.308,-0.28395 12.77486,11.22916 6.46875,16.59375 -5.93131,6.01361 -17.02639,0.7332 -16.1875,-7.59375 0.16304,-4.87842 4.58436,-9.28749 9.71875,-9 z m -46.5,0.0312 c 8.66055,-1.14934 13.75844,11.42535 6.90625,16.8125 -5.85961,5.69259 -16.93738,0.21346 -15.875,-7.90625 0.0637,-4.73177 4.33849,-8.83487 8.96875,-8.90625 z m 47.21875,25.62505 c 8.48874,-0.40257 12.71994,11.10701 7,16.78125 -5.6639,6.08707 -17.40657,0.66231 -16.40625,-7.75 0.6733,-4.69679 4.54006,-8.85493 9.40625,-9.03125 z m -46.8125,0.4375 c 8.88667,-0.497 13.26069,12.60939 6,17.53125 -6.89697,5.31095 -18.63389,-2.47603 -14.90625,-10.875 1.30274,-3.67289 5.0221,-6.61914 8.90625,-6.65625 z m 145.75,4.0625 c 34.8517,-1.09565 66.23104,32.29003 62.33665,67.24758 -2.13989,29.92481 -28.29431,56.5219 -58.71165,57.34617 -29.12807,1.72778 -58.11528,-18.90878 -64.125,-47.90625 -6.29528,-26.38616 6.15064,-56.20234 30.44221,-68.81927 9.15577,-5.08152 19.61808,-7.82905 30.05779,-7.86823 z m -245.375,1.375 c 33.8486,-0.93463 64.70487,30.74483 62.375,64.6875 -0.80018,31.26496 -28.26143,59.65916 -59.90625,59.96875 -29.14625,1.34161 -57.90104,-20.11303 -63.40625,-49.0625 -5.89983,-26.95403 7.82864,-57.22363 33.09375,-68.9375 8.66129,-4.36162 18.17436,-6.58841 27.84375,-6.65625 z m 123.625,8.0625 c 8.51035,-0.37172 12.50813,12.20299 5.625,16.9375 -6.43207,6.02279 -18.3183,-1.52411 -15.34375,-9.96875 1.08288,-4.27076 5.35945,-7.21973 9.71875,-6.96875 z m -0.6875,61.1875 c 33.96847,-1.08727 65.01831,30.8209 62.53125,65 -1.03182,30.73985 -27.59873,58.73344 -58.71744,59.58246 -28.71771,1.69718 -57.17727,-17.99266 -63.87631,-46.26996 -6.96782,-26.1045 4.64951,-56.30203 28.4375,-69.5 9.55714,-5.66925 20.56649,-8.74747 31.625,-8.8125 z" style="fill:#888a85;fill-rule:evenodd;stroke:#888a85;stroke-width:12;stroke-linecap:butt;stroke-linejoin:miter;stroke-miterlimit:4;stroke-opacity:1;stroke-dasharray:none"/>
      <path id="path4297" d="m 407.39093,225.42536 c -74.90372,0.23655 -147.95332,40.79927 -188.37044,103.56583 -42.47988,64.3489 -48.91665,150.99012 -15.81307,220.62641 28.23857,61.04714 84.36938,108.44445 149.688,124.9892 68.01179,17.72518 143.88127,2.38402 198.83111,-41.75418 54.15907,-42.47461 87.49491,-110.42305 86.91511,-179.472 0.2559,-68.44437 -32.41108,-136.19014 -86.15235,-178.35326 -40.77238,-32.57428 -92.87796,-50.52111 -145.09836,-49.602 z m 3.03414,20.66252 c 34.22268,-0.79519 65.53955,28.21754 67.47934,62.38198 2.88323,31.35024 -19.08306,62.66884 -49.42618,70.51347 -29.57354,8.53624 -63.79601,-6.09108 -77.82577,-33.4059 -14.67272,-26.95245 -8.12033,-63.67694 15.65617,-83.13551 12.16257,-10.44286 28.02673,-16.39753 44.11644,-16.35404 z m -120.72854,72.12158 c 34.17155,-0.83627 65.63713,28.26503 67.54002,62.41232 2.99477,32.3141 -20.49119,64.5194 -52.27829,71.18099 -30.09565,7.27639 -63.98423,-8.92089 -76.43005,-37.25927 -13.46931,-27.09579 -5.01137,-62.57137 18.56895,-81.19366 11.86817,-9.86045 27.19794,-15.06531 42.59937,-15.14038 z m 240.69856,0.69786 c 34.22268,-0.79521 65.53954,28.21753 67.47934,62.38197 2.88322,31.35025 -19.08307,62.66884 -49.42619,70.51348 -29.57354,8.53624 -63.79601,-6.0911 -77.82577,-33.40591 -14.67272,-26.95245 -8.12033,-63.67694 15.65618,-83.13553 12.16256,-10.44284 28.02672,-16.39751 44.11644,-16.35401 z m -121.18366,92.81442 c 9.00064,-1.18803 16.30496,8.00087 16.68777,15.38311 9.71108,-4.89391 22.68359,2.77692 22.20993,13.77501 0.32845,4.93658 -3.30289,9.81775 -6.06829,12.68272 9.1746,5.70269 9.423,21.15136 -0.48545,26.39704 -4.65853,2.92662 -11.05051,2.3471 -15.56516,-0.0909 0.27575,10.84312 -12.22482,19.34519 -21.99754,14.23013 -5.40364,-2.37282 -8.63436,-8.45953 -8.98106,-13.80536 -9.07237,5.3977 -22.21557,-0.87732 -23.12017,-11.52974 -0.69593,-5.77424 2.62941,-11.60292 7.03921,-14.80662 -9.3207,-5.85834 -9.21587,-21.31089 0.7282,-26.5184 4.62181,-2.58082 10.49116,-2.17719 15.14037,0.1517 -0.29549,-8.0175 6.35828,-15.54936 14.41219,-15.86857 z m -6.52341,28.88504 c 0.26405,5.37161 -3.39781,10.64143 -6.9482,13.50195 4.34036,2.67897 6.73831,8.12137 7.03922,12.74339 4.71265,-2.78122 11.01343,-2.40575 15.59549,0.0607 -0.13003,-4.91492 2.39956,-9.73923 6.31102,-12.68273 -4.58509,-2.87473 -7.13308,-8.28141 -7.34263,-13.56261 -4.44836,2.50072 -10.3857,2.10241 -14.6549,-0.0607 z m 129.10278,14.92799 c 34.22267,-0.7952 65.53954,28.21754 67.47934,62.38198 2.88322,31.35024 -19.08307,62.66884 -49.4262,70.51348 -29.57353,8.53623 -63.796,-6.0911 -77.82576,-33.40591 -14.67273,-26.95245 -8.12033,-63.67694 15.65618,-83.13552 12.16256,-10.44285 28.02672,-16.39752 44.11644,-16.35403 z m -243.4293,1.36537 c 34.21065,-0.80462 65.51332,28.2429 67.47934,62.35164 2.9796,32.54275 -20.50837,64.59816 -52.40584,71.2748 -29.71373,7.08426 -62.92675,-8.59034 -75.90806,-36.20012 -13.53578,-27.12377 -6.16178,-63.26005 17.85703,-81.99898 11.98162,-9.87693 27.44165,-15.51207 42.97753,-15.42734 z m 122.06357,68.66265 c 34.21065,-0.80462 65.51332,28.24291 67.47934,62.35164 2.9796,32.54276 -20.50837,64.59816 -52.40584,71.2748 -29.71327,7.07609 -62.91131,-8.57181 -75.90806,-36.20011 -13.54755,-27.22939 -6.12769,-63.28258 17.88737,-82.02933 11.92979,-9.83866 27.38122,-15.46982 42.94719,-15.397 z" style="fill:#babdb6;fill-rule:evenodd;stroke:#eeeeec;stroke-width:7.83375216;stroke-linecap:butt;stroke-linejoin:miter;stroke-miterlimit:4;stroke-opacity:1;stroke-dasharray:none"/>
      <path sodipodi:nodetypes="csscccscc" d="m 333.53087,633.67498 c -64.1341,34.07869 -112.06589,15.54196 -149.42673,0.86809 -85.859852,-33.72239 -122.268793,28.76535 -131.966888,60.06025 -0.199536,0.64389 -0.451007,1.33757 -0.628346,1.95366 l -0.479722,-0.58839 -36.706519,-46.13116 c 8.796524,-30.56023 44.779425,-98.1979 132.405835,-63.78168 37.36083,14.67387 85.29263,33.2106 149.42673,-0.86809 l 37.37564,48.48732" style="fill:#2e3436;stroke:#000000;stroke-width:7;stroke-linecap:butt;stroke-linejoin:round;stroke-miterlimit:4;stroke-opacity:1;stroke-dasharray:none" id="path4371"/>
      <path id="path4477" d="m 98.3125,582.53125 c -30.57913,0.39334 -57.67945,22.08685 -70.343716,49.2271 -2.379921,5.50599 -6.508325,11.85354 -6.315268,17.61821 9.240494,11.62448 18.480989,23.24896 27.721484,34.87344 12.500141,-32.60132 41.278011,-61.17152 77.21875,-64.8125 30.45427,-3.88898 59.25925,9.41804 87.0625,19.65625 33.87682,11.12539 72.26309,10.77148 104.71875,-4.75 7.75333,-1.37093 4.84839,-5.50053 0.46498,-9.87099 C 310.60613,614.08839 302.63658,602.88473 294.25,593 c -38.61946,20.27092 -86.02704,22.88258 -126.82747,7.15828 -22.4749,-7.93479 -44.72959,-18.82633 -69.11003,-17.62703 z" style="fill:url(#linearGradient4509);fill-opacity:1;stroke:#eeeeec;stroke-width:7.00157498999999990;stroke-linecap:butt;stroke-linejoin:round;stroke-miterlimit:4;stroke-opacity:1;stroke-dasharray:none;opacity:0.59139785"/>
      <path sodipodi:nodetypes="cc" id="path4375" d="M 42.60333,601.47023 79.0319,647.18451" style="fill:none;stroke:#000000;stroke-width:4;stroke-linecap:butt;stroke-linejoin:miter;stroke-miterlimit:4;stroke-opacity:1;stroke-dasharray:none"/>
      <path id="path4218" d="m 642.85714,476.6479 c 0,103.35614 -83.78671,187.14285 -187.14286,187.14285 -103.35614,0 -187.14285,-83.78671 -187.14285,-187.14285 0,-103.35615 83.78671,-187.14286 187.14285,-187.14286 103.35615,0 187.14286,83.78671 187.14286,187.14286 z" style="fill:#2e3436;fill-rule:evenodd;stroke:#000000;stroke-width:7;stroke-linecap:butt;stroke-linejoin:miter;stroke-miterlimit:4;stroke-opacity:1;stroke-dasharray:none"/>
      <path id="path4533" d="m 729.33013,734.16412 c 0,36.26297 -129.79882,65.65992 -289.91378,65.65992 -160.11496,0 -289.91377,-29.39695 -289.91377,-65.65992 0,-36.26296 129.79881,-65.65991 289.91377,-65.65991 160.11496,0 289.91378,29.39695 289.91378,65.65991 z" style="opacity:0.51612902;fill:url(#radialGradient4542);fill-opacity:1;fill-rule:evenodd;stroke:none"/>
      <path id="path4153" d="m 466.83929,250.78125 c -82.39973,0.22321 -162.27963,46.22273 -204.59375,116.625 -40.2061,65.32739 -46.57516,150.29147 -16.34375,220.84375 30.14442,72.0832 96.93626,127.71563 173.5625,143.40625 72.85828,15.63871 152.43399,-4.26018 208.61277,-53.17581 C 685.30804,629.95228 717.91033,553.69738 712.65179,478.5 708.10751,398.53535 661.13211,322.69579 591.50456,283.24993 553.96621,261.53082 510.35798,250.02431 466.83929,250.78125 z m 1.9375,37.28125 c 32.52893,-1.56226 62.72447,26.91924 63,59.6875 1.22561,29.00928 -20.6068,57.11169 -49.25686,62.43826 -28.353,6.11549 -59.71173,-10.55741 -69.89939,-37.84451 -10.95371,-27.08102 0.27192,-61.38983 26.0625,-75.6875 9.05148,-5.37872 19.57202,-8.38499 30.09375,-8.59375 z m -124.34375,74.28125 c 32.46175,-1.55499 62.38142,26.67547 63.03125,58.96875 1.7069,29.80434 -21.22551,58.82701 -50.875,63.46875 -28.05244,5.20788 -58.53924,-11.55267 -68.375,-38.46875 -10.87217,-27.48305 0.78597,-61.7475 27.0625,-75.90625 8.69435,-4.98349 18.88818,-7.82571 29.15625,-8.0625 z m 247.90625,0.71875 c 32.52893,-1.56226 62.72447,26.91924 63,59.6875 1.22561,29.00928 -20.6068,57.11169 -49.25686,62.43826 -28.353,6.11549 -59.71173,-10.55741 -69.89939,-37.84451 -10.95371,-27.08102 0.27192,-61.38983 26.0625,-75.6875 9.05148,-5.37872 19.57202,-8.38499 30.09375,-8.59375 z m -122.78125,95.59375 c 7.73306,-0.85424 11.14094,11.39701 4.0625,14.71875 -6.32341,3.89918 -14.9948,-4.54156 -10.53125,-10.875 1.34232,-2.2342 3.82698,-3.81896 6.46875,-3.84375 z m -23.5625,14.28125 c 7.73711,-0.85375 11.13873,11.39868 4.0625,14.71875 -6.43065,3.99631 -15.19726,-4.80763 -10.40625,-11.09375 1.36912,-2.1112 3.7846,-3.5916 6.34375,-3.625 z m 46.78125,0 c 7.73702,-0.85388 11.13878,11.39877 4.0625,14.71875 -6.51774,4.01029 -15.21737,-4.94282 -10.3125,-11.21875 1.37938,-2.04445 3.746,-3.47987 6.25,-3.5 z m 1.09375,26.4375 c 7.78683,-0.8778 11.02503,11.39348 4.0625,14.71875 -6.43065,3.99631 -15.19726,-4.80763 -10.40625,-11.09375 1.36912,-2.1112 3.7846,-3.5916 6.34375,-3.625 z m -47.875,0.375 c 7.90293,-0.88586 11.09413,11.70204 3.8125,14.84375 -6.48509,3.62013 -14.8117,-5.09001 -10.15625,-11.25 1.36429,-2.10398 3.80157,-3.55734 6.34375,-3.59375 z m 147.78125,4.03125 c 32.52893,-1.56226 62.72447,26.91924 63,59.6875 1.22561,29.00928 -20.6068,57.11169 -49.25686,62.43826 -28.353,6.11549 -59.71173,-10.55741 -69.89939,-37.84451 -10.95371,-27.08102 0.27192,-61.38983 26.0625,-75.6875 9.05148,-5.37872 19.57202,-8.38499 30.09375,-8.59375 z m -250.78125,1.40625 c 32.19978,-1.51583 61.95598,26.13395 63,58.34375 1.9555,29.89937 -20.58096,59.01369 -50.25,63.96875 -28.65743,5.61207 -59.81271,-11.6506 -69.40625,-39.5 -10.0308,-27.12369 1.3855,-60.27328 26.90625,-74.375 9.00324,-5.3002 19.33361,-8.2161 29.75,-8.4375 z m 126.90625,8.125 c 7.85044,-0.82023 11.18633,11.52094 3.96875,14.75 -6.2218,3.65631 -14.64009,-4.35628 -10.625,-10.5625 1.33948,-2.38809 3.93307,-4.19024 6.65625,-4.1875 z m -1.1875,62.59375 c 32.19978,-1.51583 61.95598,26.13395 63,58.34375 1.9555,29.89937 -20.58096,59.01369 -50.25,63.96875 -28.65743,5.61207 -59.81271,-11.6506 -69.40625,-39.5 -10.02404,-27.11486 1.36769,-60.26063 26.90625,-74.375 9.00324,-5.3002 19.33361,-8.2161 29.75,-8.4375 z" style="fill:#888a85;fill-opacity:1;fill-rule:evenodd;stroke:#888a85;stroke-width:12;stroke-linecap:butt;stroke-linejoin:miter;stroke-miterlimit:4;stroke-opacity:1;stroke-dasharray:none"/>
      <path transform="matrix(-0.10682977,0.83034441,-0.83477628,-0.11987933,617.52302,749.12742)" d="m -303.04578,238.17923 c 1.44238,-4.45176 6.7125,-0.25205 7.39911,2.39732 1.86069,7.17963 -5.86987,12.43353 -12.19375,12.4009 -11.31194,-0.0584 -18.49581,-11.53992 -17.40269,-21.99018 1.60421,-15.33618 17.26628,-24.68073 31.78662,-22.40448 19.35332,3.03388 30.91445,23.00992 27.40626,41.58304 -4.41469,23.37239 -28.76113,37.17275 -51.37947,32.40806 -27.39384,-5.77068 -43.44514,-34.51649 -37.40985,-61.17591 7.11238,-31.4172 40.2744,-49.72634 70.97234,-42.41163 35.44199,8.44512 56.01345,46.03402 47.41343,80.76877 -9.7719,39.46783 -51.79485,62.30467 -90.56521,52.41521 -43.49448,-11.09448 -68.5989,-57.55655 -57.417,-100.36163 12.41403,-47.52176 63.31893,-74.89538 110.15807,-62.41879 51.54951,13.73129 81.19358,69.08182 67.42058,119.95449 -15.04681,55.57766 -74.84514,87.49315 -129.75093,72.42237 -59.60611,-16.36094 -93.7938,-80.60878 -77.42416,-139.54736 17.67398,-63.63482 86.37269,-100.09533 149.34379,-82.42594 67.66374,18.98612 106.3976,92.13683 87.42774,159.14022 -20.29753,71.69284 -97.90116,112.70046 -168.93666,92.42952 -75.72208,-21.60831 -119.00383,-103.66564 -97.43131,-178.73308 22.91859,-79.75147 109.43027,-125.307641 188.52951,-102.433105 83.78096,24.228425 131.61182,115.195015 107.4349,198.325945 -25.53789,87.81053 -120.95986,137.91632 -208.12238,112.43668 -91.84019,-26.84702 -144.22109,-126.72479 -117.43847,-217.9188 28.15588,-95.869935 132.4898,-150.526113 227.71524,-122.440266 99.89973,29.464487 156.83134,138.254886 127.44205,237.511676 C -148.8409,402.04184 -262.08805,461.24902 -365.37612,430.5561 -473.33562,398.47502 -534.81848,280.77087 -502.82175,173.45156 -469.43265,61.462118 -347.27129,-2.2965333 -235.92079,31.004144 -119.90135,65.70112 -53.866817,192.3199 -88.47158,307.70154 c -6.812401,22.71439 -17.22594,44.32316 -30.72651,63.81792" sodipodi:t0="0" sodipodi:argument="-45.239765" sodipodi:radius="227.1114" sodipodi:revolution="7.3000002" sodipodi:expansion="1" sodipodi:cy="238.17923" sodipodi:cx="-303.04578" id="path4367" style="fill:none;stroke:#000000;stroke-width:6;stroke-linecap:butt;stroke-linejoin:miter;stroke-miterlimit:4;stroke-opacity:1;stroke-dasharray:none" sodipodi:type="spiral"/>
      <path transform="matrix(0.96753247,0,0,0.96753247,111.02273,10.069737)" d="m 432.5,354.14789 a 60,60 0 1 1 -120,0 60,60 0 1 1 120,0 z" sodipodi:ry="60" sodipodi:rx="60" sodipodi:cy="354.14789" sodipodi:cx="372.5" id="path4343" style="fill:none;stroke:#555753;stroke-width:12;stroke-linecap:butt;stroke-linejoin:miter;stroke-miterlimit:4;stroke-opacity:1;stroke-dasharray:none" sodipodi:type="arc"/>
      <path sodipodi:type="arc" style="fill:none;stroke:#555753;stroke-width:12;stroke-linecap:butt;stroke-linejoin:miter;stroke-miterlimit:4;stroke-opacity:1;stroke-dasharray:none" id="path4345" sodipodi:cx="372.5" sodipodi:cy="354.14789" sodipodi:rx="60" sodipodi:ry="60" d="m 432.5,354.14789 a 60,60 0 1 1 -120,0 60,60 0 1 1 120,0 z" transform="matrix(0.96753247,0,0,0.96753247,-12.191557,83.641165)"/>
      <path sodipodi:nodetypes="cc" id="path4381" d="m 176.17476,596.11308 27.50001,44.28572" style="fill:none;stroke:#000000;stroke-width:4;stroke-linecap:butt;stroke-linejoin:miter;stroke-miterlimit:4;stroke-opacity:1;stroke-dasharray:none"/>
      <path sodipodi:nodetypes="cc" id="path4383" d="m 220.46048,602.54166 34.28571,50" style="fill:none;stroke:#000000;stroke-width:4;stroke-linecap:butt;stroke-linejoin:miter;stroke-miterlimit:4;stroke-opacity:1;stroke-dasharray:none"/>
      <path id="path4385" d="m 266.88905,598.25594 32.14286,47.85714" style="fill:none;stroke:#000000;stroke-width:4;stroke-linecap:butt;stroke-linejoin:miter;stroke-miterlimit:4;stroke-opacity:1;stroke-dasharray:none"/>
      <path sodipodi:nodetypes="cc" id="path4389" d="M 83.317615,580.3988 114.0319,627.89879" style="fill:none;stroke:#000000;stroke-width:4;stroke-linecap:butt;stroke-linejoin:miter;stroke-miterlimit:4;stroke-opacity:1;stroke-dasharray:none"/>
      <path sodipodi:nodetypes="cc" id="path4387" d="m 132.60333,582.54165 27.5,44.28573" style="fill:none;stroke:#000000;stroke-width:4;stroke-linecap:butt;stroke-linejoin:miter;stroke-miterlimit:4;stroke-opacity:1;stroke-dasharray:none"/>
      <path transform="matrix(0.96753247,0,0,0.96753247,-13.262985,222.2126)" d="m 432.5,354.14789 a 60,60 0 1 1 -120,0 60,60 0 1 1 120,0 z" sodipodi:ry="60" sodipodi:rx="60" sodipodi:cy="354.14789" sodipodi:cx="372.5" id="path4347" style="fill:none;stroke:#555753;stroke-width:12;stroke-linecap:butt;stroke-linejoin:miter;stroke-miterlimit:4;stroke-opacity:1;stroke-dasharray:none" sodipodi:type="arc"/>
      <path sodipodi:type="arc" style="fill:none;stroke:#555753;stroke-width:12;stroke-linecap:butt;stroke-linejoin:miter;stroke-miterlimit:4;stroke-opacity:1;stroke-dasharray:none" id="path4349" sodipodi:cx="372.5" sodipodi:cy="354.14789" sodipodi:rx="60" sodipodi:ry="60" d="m 432.5,354.14789 a 60,60 0 1 1 -120,0 60,60 0 1 1 120,0 z" transform="matrix(0.96753247,0,0,0.96753247,108.16559,290.42689)"/>
      <path transform="matrix(0.96753247,0,0,0.96753247,230.66559,222.2126)" d="m 432.5,354.14789 a 60,60 0 1 1 -120,0 60,60 0 1 1 120,0 z" sodipodi:ry="60" sodipodi:rx="60" sodipodi:cy="354.14789" sodipodi:cx="372.5" id="path4351" style="fill:none;stroke:#555753;stroke-width:12;stroke-linecap:butt;stroke-linejoin:miter;stroke-miterlimit:4;stroke-opacity:1;stroke-dasharray:none" sodipodi:type="arc"/>
      <path sodipodi:type="arc" style="fill:none;stroke:#555753;stroke-width:12;stroke-linecap:butt;stroke-linejoin:miter;stroke-miterlimit:4;stroke-opacity:1;stroke-dasharray:none" id="path4353" sodipodi:cx="372.5" sodipodi:cy="354.14789" sodipodi:rx="60" sodipodi:ry="60" d="m 432.5,354.14789 a 60,60 0 1 1 -120,0 60,60 0 1 1 120,0 z" transform="matrix(0.96753247,0,0,0.96753247,231.73701,83.64117)"/>
      <path id="path4229" d="m 472.92826,263.65612 c -85.43744,-0.68376 -168.34012,50.79464 -206.42338,127.24015 -35.57737,69.5112 -33.53789,157.3588 6.78177,224.36623 37.26603,63.66247 105.59275,107.99373 179.15526,114.12292 71.69752,6.69868 145.93073,-21.66333 193.76021,-75.62678 47.60393,-52.36871 69.73805,-127.36598 56.859,-197.40401 C 690.42911,383.74309 641.62401,318.33532 575.15737,286.85291 543.44614,271.5348 508.21341,263.34309 472.92826,263.65612 z m 1.11153,32.30207 c 34.05933,-1.00821 64.49531,31.53994 61.22631,65.5952 -1.56529,30.01348 -28.18875,56.96184 -58.41534,57.53172 -28.54568,1.49452 -56.93053,-19.13209 -62.77139,-47.65217 -6.1398,-26.99651 7.17437,-57.09829 32.20325,-68.84709 8.60585,-4.35614 18.11294,-6.65428 27.75717,-6.62766 z m -119.92083,71.88218 c 33.82831,-1.018 64.31239,31.2669 61.28807,65.25453 -1.47358,29.76105 -27.3381,56.66691 -57.33335,57.80106 -28.1768,2.04689 -56.83637,-17.75126 -63.39024,-45.62971 -7.20133,-26.78701 5.53006,-57.74895 30.53596,-70.20978 8.95364,-4.75915 18.80671,-7.23791 28.89956,-7.2161 z m 238.94626,0.65038 c 34.12338,-1.03942 64.77854,31.58308 61.41156,65.75005 -1.87279,30.26187 -28.22286,57.03945 -58.81801,57.41903 -28.17912,1.25949 -55.96835,-18.83059 -62.15258,-46.82717 -6.58569,-26.66852 6.29364,-57.20251 31.27698,-69.28067 8.67913,-4.61906 18.4586,-6.96191 28.28205,-7.06124 z m -119.45769,92.50844 c 8.92081,-0.78767 13.43507,13.89647 4.90922,17.68407 -7.06715,4.6013 -17.62312,-3.83355 -13.52351,-11.7068 1.38933,-3.3939 4.88178,-6.03175 8.61429,-5.97727 z m -22.44656,13.87471 c 8.56909,-0.35829 12.53454,12.15485 5.61936,16.97175 -6.03809,5.05511 -16.32752,-0.3412 -15.22167,-8.26908 0.19656,-4.94005 4.74047,-8.94587 9.60231,-8.70267 z m 45.51063,0.0309 c 8.63782,0.0626 12.00076,12.47304 4.97097,17.12661 -6.34004,4.95678 -16.01946,-0.93197 -14.97466,-8.6717 0.39646,-4.97849 4.96563,-8.9928 10.00369,-8.45491 z m -0.0618,25.33375 c 8.0385,-0.64355 12.52663,9.61953 7.93503,15.73294 -4.85238,6.65553 -16.6971,2.69877 -16.91983,-5.51273 -0.16008,-5.04359 3.91957,-9.87631 8.9848,-10.22021 z m -45.72676,0.40261 c 8.81862,-0.55406 13.22061,13.35091 5.24885,17.56019 -7.02903,5.03508 -18.13572,-3.51001 -13.86314,-11.58291 1.43867,-3.39763 4.99292,-5.9469 8.61429,-5.97728 z m 143.72591,4.05717 c 34.1046,-1.01285 64.77476,31.74051 61.22631,65.9049 -1.89419,29.39177 -27.05079,55.70947 -56.65673,57.10933 -28.70363,2.26121 -57.6689,-17.65954 -64.14359,-46.14132 -6.74902,-26.41583 5.51325,-56.70185 30.02606,-69.28518 9.04641,-4.94076 19.22873,-7.60132 29.54795,-7.58773 z m -241.84856,1.36269 c 33.933,-0.95812 64.45029,31.38574 61.24106,65.4702 -1.70179,29.52061 -26.717,55.83008 -56.20834,57.51306 -28.21374,2.44664 -56.98097,-16.52915 -64.19002,-44.46449 -7.81826,-26.88584 4.86121,-58.85594 30.31949,-71.30267 8.79291,-4.75374 18.79771,-7.22325 28.83781,-7.2161 z m 121.55723,7.95938 c 8.91876,-0.4348 12.44925,12.65336 5.06359,17.25049 -6.11873,4.32866 -15.49976,-0.80921 -14.82028,-8.33102 0.0713,-5.09446 4.77027,-9.3855 9.75669,-8.91947 z m -1.51291,60.4851 c 34.38766,-1.6615 65.56509,30.80086 62.49221,65.28549 -1.4768,30.77513 -29.14546,58.28014 -60.17654,57.88359 -27.9697,0.62309 -55.18612,-19.63655 -61.01018,-47.57046 -6.41628,-27.24205 7.58427,-58.08412 33.25302,-69.52843 8.00946,-3.80421 16.60184,-5.91171 25.44149,-6.07019 z" style="fill:url(#radialGradient4451);fill-opacity:1;fill-rule:evenodd;stroke:#ffffff;stroke-width:6.76346493;stroke-linecap:butt;stroke-linejoin:miter;stroke-miterlimit:4;stroke-opacity:1;stroke-dasharray:none"/>
      <path style="opacity:0.3010753;fill:url(#radialGradient4546);fill-opacity:1;fill-rule:evenodd;stroke:none" d="m 385.87826,757.39763 c 0,22.31567 -84.12049,40.4061 -187.88837,40.4061 -103.767884,0 -187.888365,-18.09043 -187.888365,-40.4061 0,-22.31567 84.120481,-40.4061 187.888365,-40.4061 103.76788,0 187.88837,18.09043 187.88837,40.4061 z" id="path4544"/>
    </g>
  </g>
</svg>
