<?xml version="1.0" encoding="utf-8"?>
<!-- Generator: Adobe Illustrator 14.0.0, SVG Export Plug-In . SVG Version: 6.00 Build 43363)  -->
<!DOCTYPE svg PUBLIC "-//W3C//DTD SVG 1.1//EN" "http://www.w3.org/Graphics/SVG/1.1/DTD/svg11.dtd">
<svg version="1.1" xmlns="http://www.w3.org/2000/svg" xmlns:xlink="http://www.w3.org/1999/xlink" x="0px" y="0px" width="800px"
	 height="600px" viewBox="0 0 800 600" enable-background="new 0 0 800 600" xml:space="preserve">
<g id="Layer_3" display="none">
	<g display="inline">
		<path fill="#3A7304" d="M406.167,516.071c-0.007,5.5,3.704,7.462,8.245,4.36l312.474-213.377c4.542-3.102,4.55-8.189,0.018-11.305
			L414.957,81.283c-4.532-3.116-8.246-1.166-8.253,4.334L406.167,516.071z"/>
	</g>
	<g display="inline">
		<path fill="#A3CB7E" d="M416.121,498.323c-0.008,5.5,3.688,7.439,8.211,4.31l282.635-195.58c4.522-3.13,4.53-8.263,0.018-11.407
			L424.825,99.081c-4.513-3.144-8.21-1.216-8.218,4.284L416.121,498.323z"/>
	</g>
	<g display="inline">
		<path fill="#A0E0A0" d="M427.074,477.575c-0.006,5.5,3.688,7.439,8.211,4.31l252.727-174.884c4.523-3.13,4.531-8.263,0.019-11.407
			L435.729,119.829c-4.513-3.144-8.211-1.216-8.217,4.284L427.074,477.575z"/>
	</g>
	<g display="inline">
		<path fill="#A0E0A0" d="M427.074,477.575c-0.006,5.5,3.688,7.439,8.211,4.31l252.727-174.884c4.523-3.13,4.531-8.263,0.019-11.407
			L435.729,119.829c-4.513-3.144-8.211-1.216-8.217,4.284L427.074,477.575z"/>
	</g>
	<g display="inline">
		
			<linearGradient id="SVGID_1_" gradientUnits="userSpaceOnUse" x1="630.6963" y1="331.2598" x2="617.9879" y2="143.5671" gradientTransform="matrix(1 0 0 1 -75.4004 0)">
			<stop  offset="0" style="stop-color:#89BD58"/>
			<stop  offset="1" style="stop-color:#519C0A"/>
		</linearGradient>
		<path fill="url(#SVGID_1_)" d="M427.074,477.575c-0.006,5.5,3.688,7.439,8.211,4.31l252.727-174.884
			c4.523-3.13,4.531-8.263,0.019-11.407L435.729,119.829c-4.513-3.144-8.211-1.216-8.217,4.284L427.074,477.575z"/>
	</g>
	<g display="inline">
		
			<linearGradient id="SVGID_2_" gradientUnits="userSpaceOnUse" x1="624.4941" y1="391.0684" x2="634.4072" y2="268.5085" gradientTransform="matrix(1 0 0 1 -75.4004 0)">
			<stop  offset="0" style="stop-color:#70BE25"/>
			<stop  offset="1" style="stop-color:#4E9A06"/>
		</linearGradient>
		<path fill="url(#SVGID_2_)" d="M427.063,477.575c0,5.5,3.691,7.426,8.201,4.279l247.77-172.823
			c4.512-3.146,4.103-3.865-0.908-1.597c0,0-107.343,48.588-152.343,9.728s-92.726-37.207-92.726-37.207
			c-5.497,0.19-9.994,4.846-9.994,10.346V477.575z"/>
	</g>
	
		<radialGradient id="SVGID_3_" cx="457.0117" cy="-155.2236" r="136.9415" gradientTransform="matrix(0 0.6255 -0.6121 0 440.8554 0.9963)" gradientUnits="userSpaceOnUse">
		<stop  offset="0" style="stop-color:#6FCC14;stop-opacity:0.61"/>
		<stop  offset="0.3077" style="stop-color:#68C111;stop-opacity:0.4223"/>
		<stop  offset="0.8482" style="stop-color:#54A309;stop-opacity:0.0926"/>
		<stop  offset="1" style="stop-color:#4E9A06;stop-opacity:0"/>
	</radialGradient>
	<ellipse display="inline" fill="url(#SVGID_3_)" cx="535.869" cy="286.857" rx="103.732" ry="106"/>
</g>
<g id="Layer_2" display="none">
	<g display="inline">
		<path fill="#3A7304" d="M81.984,503.77c-0.007,5.5,3.704,7.462,8.246,4.36l312.473-213.377c4.541-3.102,4.55-8.188,0.018-11.305
			L90.774,68.981c-4.532-3.116-8.246-1.166-8.253,4.334L81.984,503.77z"/>
	</g>
</g>
<g id="Layer_4" display="none">
	<g display="inline">
		<path fill="#A3CB7E" d="M91.938,486.021c-0.007,5.5,3.688,7.439,8.211,4.31l282.635-195.58c4.523-3.13,4.531-8.263,0.018-11.407
			L100.643,86.779c-4.513-3.144-8.21-1.216-8.217,4.284L91.938,486.021z"/>
	</g>
</g>
<g id="Layer_5" display="none">
	<g display="inline">
		<path fill="#A0E0A0" d="M102.892,465.273c-0.007,5.5,3.688,7.439,8.211,4.31L363.83,294.699c4.523-3.13,4.531-8.263,0.018-11.407
			L111.546,107.527c-4.513-3.144-8.21-1.216-8.217,4.284L102.892,465.273z"/>
	</g>
	<g display="inline">
		<path fill="#A0E0A0" d="M102.892,465.273c-0.007,5.5,3.688,7.439,8.211,4.31L363.83,294.699c4.523-3.13,4.531-8.263,0.018-11.407
			L111.546,107.527c-4.513-3.144-8.21-1.216-8.217,4.284L102.892,465.273z"/>
	</g>
	<g display="inline">
		
			<linearGradient id="SVGID_4_" gradientUnits="userSpaceOnUse" x1="306.5142" y1="318.958" x2="293.8058" y2="131.2654" gradientTransform="matrix(1 0 0 1 -75.4004 0)">
			<stop  offset="0" style="stop-color:#89BD58"/>
			<stop  offset="1" style="stop-color:#519C0A"/>
		</linearGradient>
		<path fill="url(#SVGID_4_)" d="M102.892,465.273c-0.007,5.5,3.688,7.439,8.211,4.31L363.83,294.699
			c4.523-3.13,4.531-8.263,0.018-11.407L111.546,107.527c-4.513-3.144-8.21-1.216-8.217,4.284L102.892,465.273z"/>
	</g>
</g>
<g id="Layer_7" display="none">
	<g display="inline">
		
			<linearGradient id="SVGID_5_" gradientUnits="userSpaceOnUse" x1="300.3115" y1="378.7676" x2="310.2245" y2="256.208" gradientTransform="matrix(1 0 0 1 -75.4004 0)">
			<stop  offset="0" style="stop-color:#70BE25"/>
			<stop  offset="1" style="stop-color:#4E9A06"/>
		</linearGradient>
		<path fill="url(#SVGID_5_)" d="M102.88,465.273c0,5.5,3.691,7.426,8.202,4.279l247.77-172.823
			c4.511-3.146,4.102-3.865-0.909-1.597c0,0-107.343,48.588-152.343,9.728s-92.726-37.207-92.726-37.207
			c-5.497,0.19-9.994,4.846-9.994,10.346V465.273z"/>
	</g>
</g>
<g id="radial_grad" display="none">
	
		<radialGradient id="SVGID_6_" cx="437.3447" cy="374.4004" r="136.9413" gradientTransform="matrix(0 0.6255 -0.6121 0 440.8554 0.9963)" gradientUnits="userSpaceOnUse">
		<stop  offset="0" style="stop-color:#6FCC14;stop-opacity:0.61"/>
		<stop  offset="0.3077" style="stop-color:#68C111;stop-opacity:0.4223"/>
		<stop  offset="0.8482" style="stop-color:#54A309;stop-opacity:0.0926"/>
		<stop  offset="1" style="stop-color:#4E9A06;stop-opacity:0"/>
	</radialGradient>
	<ellipse display="inline" fill="url(#SVGID_6_)" cx="211.687" cy="274.555" rx="103.732" ry="106"/>
</g>
<g id="green_stop" display="none">
	<g display="inline">
		<path fill="#3A7304" d="M588.097-56.792c-5.5,0-10,4.5-10,10V355c0,5.5,4.5,10,10,10h393.408c5.5,0,10-4.5,10-10V-46.792
			c0-5.5-4.5-10-10-10H588.097z"/>
	</g>
	<g display="inline">
		<path fill="#A3CB7E" d="M603.434-46.247c-5.5,0-10,4.5-10,10v380.702c0,5.5,4.5,10,10,10h362.734c5.5,0,10-4.5,10-10V-36.247
			c0-5.5-4.5-10-10-10H603.434z"/>
	</g>
	<g display="inline">
		<linearGradient id="SVGID_7_" gradientUnits="userSpaceOnUse" x1="784.7002" y1="158.3394" x2="789.1625" y2="-29.9799">
			<stop  offset="0" style="stop-color:#89BD58"/>
			<stop  offset="1" style="stop-color:#519C0A"/>
		</linearGradient>
		<path fill="url(#SVGID_7_)" d="M615.703-36.23c-5.5,0-10,4.5-10,10v360.667c0,5.5,4.5,10,10,10h338.195c5.5,0,10-4.5,10-10V-26.23
			c0-5.5-4.5-10-10-10H615.703z"/>
	</g>
	<g display="inline">
		<linearGradient id="SVGID_8_" gradientUnits="userSpaceOnUse" x1="784.3223" y1="192.417" x2="786.8515" y2="346.2719">
			<stop  offset="0" style="stop-color:#70BE25"/>
			<stop  offset="1" style="stop-color:#4E9A06"/>
		</linearGradient>
		<path fill="url(#SVGID_8_)" d="M615.703,344.438c-5.5,0-10-4.5-10-10V183.805c0-5.5,4.195-8.372,9.323-6.383
			c0,0,89.806,34.838,196.014,7.37s146.63-78.242,146.63-78.242c3.426-4.303,6.229-3.323,6.229,2.177v225.711c0,5.5-4.5,10-10,10
			H615.703z"/>
	</g>
	
		<radialGradient id="SVGID_9_" cx="184.5791" cy="-574.8589" r="167.1856" gradientTransform="matrix(0 0.6255 -0.6121 0 440.8554 0.9963)" gradientUnits="userSpaceOnUse">
		<stop  offset="0" style="stop-color:#6FCC14;stop-opacity:0.61"/>
		<stop  offset="0.3077" style="stop-color:#68C111;stop-opacity:0.4223"/>
		<stop  offset="0.8482" style="stop-color:#54A309;stop-opacity:0.0926"/>
		<stop  offset="1" style="stop-color:#4E9A06;stop-opacity:0"/>
	</radialGradient>
	<path display="inline" opacity="0.45" fill="url(#SVGID_9_)" d="M792.729-12.96c69.943,0,126.642,57.938,126.642,129.412
		c0,71.473-56.698,129.41-126.642,129.41c-69.945,0-126.645-57.938-126.645-129.412C666.084,44.978,722.783-12.96,792.729-12.96z"/>
</g>
<g id="red_stop">
	<g>
		<path fill="#B30909" d="M226.785,69.208c-5.5,0-10,4.5-10,10v401.09c0,5.5,4.5,10,10,10h392.72c5.5,0,10-4.5,10-10V79.208
			c0-5.5-4.5-10-10-10H226.785z"/>
	</g>
	<g>
		<path fill="#EF0C0C" d="M242.097,79.736c-5.5,0-10,4.5-10,10V469.77c0,5.5,4.5,10,10,10h362.097c5.5,0,10-4.5,10-10V89.736
			c0-5.5-4.5-10-10-10H242.097z"/>
	</g>
	<g>
		<linearGradient id="SVGID_10_" gradientUnits="userSpaceOnUse" x1="420.79" y1="120.0361" x2="424.5916" y2="377.907">
			<stop  offset="0.1083" style="stop-color:#C73600"/>
			<stop  offset="1" style="stop-color:#FF6B5C"/>
		</linearGradient>
		<path fill="url(#SVGID_10_)" d="M254.345,89.736c-5.5,0-10,4.5-10,10v360.033c0,5.5,4.5,10,10,10h337.599c5.5,0,10-4.5,10-10
			V99.736c0-5.5-4.5-10-10-10H254.345z"/>
	</g>
	<g>
		<linearGradient id="SVGID_11_" gradientUnits="userSpaceOnUse" x1="423.5361" y1="415.3027" x2="422.669" y2="264.3893">
			<stop  offset="0" style="stop-color:#C73600"/>
			<stop  offset="1" style="stop-color:#FF6B5C"/>
		</linearGradient>
		<path fill="url(#SVGID_11_)" d="M254.345,469.77c-5.5,0-10-4.5-10-10V309.42c0-5.5,4.195-8.372,9.323-6.383
			c0,0,89.641,34.775,195.671,7.353c106.031-27.422,146.376-78.099,146.376-78.099c3.426-4.303,6.229-3.324,6.229,2.176V459.77
			c0,5.5-4.5,10-10,10H254.345z"/>
	</g>
	
		<radialGradient id="SVGID_12_" cx="330.1245" cy="-69.9717" r="169.4683" gradientTransform="matrix(0 0.6255 -0.6121 0 440.8554 0.9963)" gradientUnits="userSpaceOnUse">
		<stop  offset="0" style="stop-color:#FFFFFF"/>
		<stop  offset="1" style="stop-color:#FFFFFF;stop-opacity:0"/>
	</radialGradient>
	<ellipse opacity="0.14" fill="url(#SVGID_12_)" cx="483.687" cy="207.489" rx="103.732" ry="106"/>
</g>
<g id="Layer_8" display="none">
	<g display="inline">
		<path fill="#3A7304" d="M116.972,533.356c5.5,0,10-4.5,10-10V78.332c0-5.5-4.5-10-10-10h-69.6c-5.5,0-10,4.5-10,10v445.024
			c0,5.5,4.5,10,10,10H116.972z"/>
	</g>
</g>
<g id="Layer_9" display="none">
	<g display="inline">
		<path fill="#A3CB7E" d="M108.012,521.729c5.5,0,10-4.5,10-10V89.958c0-5.5-4.5-10-10-10h-51.68c-5.5,0-10,4.5-10,10V511.73
			c0,5.5,4.5,10,10,10L108.012,521.729z"/>
	</g>
</g>
<g id="Layer_10" display="none">
	<g display="inline">
		
			<linearGradient id="SVGID_13_" gradientUnits="userSpaceOnUse" x1="369.5581" y1="-49.4897" x2="248.5782" y2="-48.8468" gradientTransform="matrix(0 1 1 0 131.8672 -107.5625)">
			<stop  offset="0" style="stop-color:#89BD58"/>
			<stop  offset="1" style="stop-color:#519C0A"/>
		</linearGradient>
		<path fill="url(#SVGID_13_)" d="M100.843,510.687c5.5,0,10-4.5,10-10V101.002c0-5.5-4.5-10-10-10l-37.344-0.001
			c-5.5,0-10,4.5-10,10v399.685c0,5.5,4.5,10,10,10H100.843z"/>
	</g>
</g>
<g id="Layer_11" display="none">
	<g display="inline">
		
			<linearGradient id="SVGID_14_" gradientUnits="userSpaceOnUse" x1="395.3843" y1="-49.6973" x2="618.248" y2="-49.6973" gradientTransform="matrix(0 1 1 0 131.8691 -107.5615)">
			<stop  offset="0" style="stop-color:#70BE25"/>
			<stop  offset="1" style="stop-color:#4E9A06"/>
		</linearGradient>
		<path fill="url(#SVGID_14_)" d="M100.844,510.687c5.5,0,10-4.5,10-10V310c0-5.5-0.424-5.521-0.943-0.045
			c0,0-1.24,13.095-27.729-9.955c-22.656-19.716-25.753-9.564-25.753-9.564C54.813,295.696,53.5,304.5,53.5,310v190.687
			c0,5.5,4.5,10,10,10H100.844z"/>
	</g>
</g>
</svg>
