<?xml version="1.0" encoding="utf-8"?>
<!-- Generator: Adobe Illustrator 14.0.0, SVG Export Plug-In . SVG Version: 6.00 Build 43363)  -->
<!DOCTYPE svg PUBLIC "-//W3C//DTD SVG 1.1//EN" "http://www.w3.org/Graphics/SVG/1.1/DTD/svg11.dtd">
<svg version="1.1" xmlns="http://www.w3.org/2000/svg" xmlns:xlink="http://www.w3.org/1999/xlink" x="0px" y="0px" width="800px"
	 height="600px" viewBox="0 0 800 600" enable-background="new 0 0 800 600" xml:space="preserve">
<g id="Layer_3">
	<g>
		<path fill="#3A7304" d="M361.567,516.071c-0.007,5.5,3.704,7.462,8.246,4.36l312.473-213.377c4.542-3.102,4.55-8.188,0.018-11.305
			L370.357,81.283c-4.532-3.116-8.246-1.166-8.253,4.334L361.567,516.071z"/>
	</g>
	<g>
		<path fill="#A3CB7E" d="M371.521,498.323c-0.007,5.5,3.688,7.439,8.211,4.31l282.634-195.58c4.523-3.13,4.531-8.263,0.019-11.407
			L380.226,99.081c-4.513-3.144-8.21-1.216-8.217,4.284L371.521,498.323z"/>
	</g>
	<g>
		<path fill="#A0E0A0" d="M382.475,477.575c-0.007,5.5,3.688,7.439,8.21,4.31l252.728-174.884c4.522-3.13,4.53-8.263,0.018-11.406
			L391.129,119.829c-4.513-3.144-8.21-1.216-8.217,4.284L382.475,477.575z"/>
	</g>
	<g>
		<path fill="#A0E0A0" d="M382.475,477.575c-0.007,5.5,3.688,7.439,8.21,4.31l252.728-174.884c4.522-3.13,4.53-8.263,0.018-11.406
			L391.129,119.829c-4.513-3.144-8.21-1.216-8.217,4.284L382.475,477.575z"/>
	</g>
	<g>
		<linearGradient id="SVGID_1_" gradientUnits="userSpaceOnUse" x1="510.6963" y1="331.2598" x2="497.9879" y2="143.5671">
			<stop  offset="0" style="stop-color:#89BD58"/>
			<stop  offset="1" style="stop-color:#519C0A"/>
		</linearGradient>
		<path fill="url(#SVGID_1_)" d="M382.475,477.575c-0.007,5.5,3.688,7.439,8.21,4.31l252.728-174.884
			c4.522-3.13,4.53-8.263,0.018-11.406L391.129,119.829c-4.513-3.144-8.21-1.216-8.217,4.284L382.475,477.575z"/>
	</g>
	<g>
		<linearGradient id="SVGID_2_" gradientUnits="userSpaceOnUse" x1="504.4941" y1="391.0693" x2="514.4072" y2="268.5097">
			<stop  offset="0" style="stop-color:#70BE25"/>
			<stop  offset="1" style="stop-color:#4E9A06"/>
		</linearGradient>
		<path fill="url(#SVGID_2_)" d="M382.463,477.575c0,5.5,3.691,7.426,8.201,4.279l247.77-172.823
			c4.512-3.146,4.103-3.865-0.908-1.597c0,0-107.343,48.588-152.343,9.728s-92.726-37.206-92.726-37.206
			c-5.497,0.189-9.994,4.846-9.994,10.346V477.575z"/>
	</g>
	
		<radialGradient id="SVGID_3_" cx="457.0117" cy="40.8213" r="136.9415" gradientTransform="matrix(0 0.6255 -0.6121 0 516.2558 0.9963)" gradientUnits="userSpaceOnUse">
		<stop  offset="0" style="stop-color:#6FCC14;stop-opacity:0.61"/>
		<stop  offset="0.3077" style="stop-color:#68C111;stop-opacity:0.4223"/>
		<stop  offset="0.8482" style="stop-color:#54A309;stop-opacity:0.0926"/>
		<stop  offset="1" style="stop-color:#4E9A06;stop-opacity:0"/>
	</radialGradient>
	<ellipse fill="url(#SVGID_3_)" cx="491.27" cy="286.857" rx="103.732" ry="106"/>
</g>
<g id="Layer_2">
	<g>
		<path fill="#3A7304" d="M37.385,503.77c-0.007,5.5,3.704,7.462,8.246,4.36l312.473-213.377c4.542-3.102,4.55-8.188,0.018-11.305
			L46.175,68.981c-4.532-3.116-8.246-1.166-8.253,4.334L37.385,503.77z"/>
	</g>
</g>
<g id="Layer_4">
	<g>
		<path fill="#A3CB7E" d="M47.338,486.021c-0.007,5.5,3.688,7.439,8.211,4.31l282.634-195.58c4.523-3.13,4.531-8.263,0.019-11.407
			L56.043,86.779c-4.513-3.144-8.21-1.216-8.217,4.284L47.338,486.021z"/>
	</g>
</g>
<g id="Layer_5">
	<g>
		<path fill="#A0E0A0" d="M58.292,465.273c-0.007,5.5,3.688,7.439,8.211,4.31L319.23,294.699c4.522-3.13,4.53-8.263,0.018-11.407
			L66.946,107.527c-4.513-3.144-8.21-1.216-8.217,4.284L58.292,465.273z"/>
	</g>
	<g>
		<path fill="#A0E0A0" d="M58.292,465.273c-0.007,5.5,3.688,7.439,8.211,4.31L319.23,294.699c4.522-3.13,4.53-8.263,0.018-11.407
			L66.946,107.527c-4.513-3.144-8.21-1.216-8.217,4.284L58.292,465.273z"/>
	</g>
	<g>
		<linearGradient id="SVGID_4_" gradientUnits="userSpaceOnUse" x1="186.5137" y1="318.959" x2="173.8053" y2="131.2663">
			<stop  offset="0" style="stop-color:#89BD58"/>
			<stop  offset="1" style="stop-color:#519C0A"/>
		</linearGradient>
		<path fill="url(#SVGID_4_)" d="M58.292,465.273c-0.007,5.5,3.688,7.439,8.211,4.31L319.23,294.699
			c4.522-3.13,4.53-8.263,0.018-11.407L66.946,107.527c-4.513-3.144-8.21-1.216-8.217,4.284L58.292,465.273z"/>
	</g>
</g>
<g id="Layer_7">
	<g>
		<linearGradient id="SVGID_5_" gradientUnits="userSpaceOnUse" x1="180.3115" y1="378.7666" x2="190.2246" y2="256.2067">
			<stop  offset="0" style="stop-color:#70BE25"/>
			<stop  offset="1" style="stop-color:#4E9A06"/>
		</linearGradient>
		<path fill="url(#SVGID_5_)" d="M58.28,465.273c0,5.5,3.691,7.426,8.202,4.279l247.769-172.823
			c4.512-3.146,4.103-3.865-0.908-1.597c0,0-107.343,48.588-152.343,9.728s-92.726-37.207-92.726-37.207
			c-5.497,0.19-9.994,4.846-9.994,10.346V465.273z"/>
	</g>
</g>
<g id="radial_grad" display="none">
	
		<radialGradient id="SVGID_6_" cx="437.3447" cy="570.4453" r="136.9413" gradientTransform="matrix(0 0.6255 -0.6121 0 516.2558 0.9963)" gradientUnits="userSpaceOnUse">
		<stop  offset="0" style="stop-color:#6FCC14;stop-opacity:0.61"/>
		<stop  offset="0.3077" style="stop-color:#68C111;stop-opacity:0.4223"/>
		<stop  offset="0.8482" style="stop-color:#54A309;stop-opacity:0.0926"/>
		<stop  offset="1" style="stop-color:#4E9A06;stop-opacity:0"/>
	</radialGradient>
	<ellipse display="inline" fill="url(#SVGID_6_)" cx="167.087" cy="274.555" rx="103.732" ry="106"/>
</g>
<g id="Layer_6">
</g>
<g id="Layer_8">
	<g>
		<path fill="#3A7304" d="M695.544,533.356c-5.5,0-10-4.5-10-10V78.332c0-5.5,4.5-10,10-10h69.6c5.5,0,10,4.5,10,10v445.024
			c0,5.5-4.5,10-10,10H695.544z"/>
	</g>
</g>
<g id="Layer_9">
	<g>
		<path fill="#A3CB7E" d="M704.504,521.729c-5.5,0-10-4.5-10-10V89.958c0-5.5,4.5-10,10-10h51.68c5.5,0,10,4.5,10,10V511.73
			c0,5.5-4.5,10-10,10L704.504,521.729z"/>
	</g>
</g>
<g id="Layer_10">
	<g>
		
			<linearGradient id="SVGID_7_" gradientUnits="userSpaceOnUse" x1="369.5581" y1="-49.4902" x2="248.5782" y2="-48.8473" gradientTransform="matrix(0 1 -1 0 680.6484 -107.5625)">
			<stop  offset="0" style="stop-color:#89BD58"/>
			<stop  offset="1" style="stop-color:#519C0A"/>
		</linearGradient>
		<path fill="url(#SVGID_7_)" d="M711.673,510.687c-5.5,0-10-4.5-10-10V101.002c0-5.5,4.5-10,10-10l37.344-0.001c5.5,0,10,4.5,10,10
			v399.685c0,5.5-4.5,10-10,10H711.673z"/>
	</g>
</g>
<g id="Layer_11">
	<g>
		
			<linearGradient id="SVGID_8_" gradientUnits="userSpaceOnUse" x1="395.3843" y1="-49.6973" x2="618.248" y2="-49.6973" gradientTransform="matrix(0 1 -1 0 680.6465 -107.5615)">
			<stop  offset="0" style="stop-color:#70BE25"/>
			<stop  offset="1" style="stop-color:#4E9A06"/>
		</linearGradient>
		<path fill="url(#SVGID_8_)" d="M711.672,510.687c-5.5,0-10-4.5-10-10V310c0-5.5,0.425-5.521,0.943-0.045
			c0,0,1.24,13.095,27.729-9.955c22.656-19.716,25.754-9.564,25.754-9.564c1.604,5.26,2.918,14.064,2.918,19.564v190.687
			c0,5.5-4.5,10-10,10H711.672z"/>
	</g>
</g>
</svg>
