<?xml version="1.0" encoding="utf-8"?>
<!-- Generator: Adobe Illustrator 14.0.0, SVG Export Plug-In . SVG Version: 6.00 Build 43363)  -->
<!DOCTYPE svg PUBLIC "-//W3C//DTD SVG 1.1//EN" "http://www.w3.org/Graphics/SVG/1.1/DTD/svg11.dtd">
<svg version="1.1" xmlns="http://www.w3.org/2000/svg" xmlns:xlink="http://www.w3.org/1999/xlink" x="0px" y="0px" width="800px"
	 height="600px" viewBox="0 0 800 600" enable-background="new 0 0 800 600" xml:space="preserve">
<g id="Layer_3">
	<g>
		<path fill="#3A7304" d="M450.948,516.071c0.007,5.5-3.703,7.462-8.245,4.36L130.23,307.055c-4.542-3.102-4.55-8.189-0.018-11.305
			L442.158,81.283c4.532-3.116,8.246-1.166,8.253,4.334L450.948,516.071z"/>
	</g>
	<g>
		<path fill="#A3CB7E" d="M440.994,498.323c0.007,5.5-3.688,7.439-8.211,4.31l-282.634-195.58c-4.523-3.13-4.531-8.263-0.018-11.407
			L432.29,99.081c4.513-3.144,8.211-1.216,8.218,4.284L440.994,498.323z"/>
	</g>
	<g>
		<path fill="#A0E0A0" d="M430.04,477.575c0.007,5.5-3.688,7.439-8.21,4.31L169.103,307.001c-4.523-3.13-4.531-8.263-0.018-11.407
			l252.302-175.765c4.513-3.144,8.211-1.216,8.218,4.284L430.04,477.575z"/>
	</g>
	<g>
		<path fill="#A0E0A0" d="M430.04,477.575c0.007,5.5-3.688,7.439-8.21,4.31L169.103,307.001c-4.523-3.13-4.531-8.263-0.018-11.407
			l252.302-175.765c4.513-3.144,8.211-1.216,8.218,4.284L430.04,477.575z"/>
	</g>
	<g>
		
			<linearGradient id="SVGID_1_" gradientUnits="userSpaceOnUse" x1="510.6963" y1="331.2598" x2="497.9879" y2="143.5671" gradientTransform="matrix(-1 0 0 1 812.5156 0)">
			<stop  offset="0" style="stop-color:#89BD58"/>
			<stop  offset="1" style="stop-color:#519C0A"/>
		</linearGradient>
		<path fill="url(#SVGID_1_)" d="M430.04,477.575c0.007,5.5-3.688,7.439-8.21,4.31L169.103,307.001
			c-4.523-3.13-4.531-8.263-0.018-11.407l252.302-175.765c4.513-3.144,8.211-1.216,8.218,4.284L430.04,477.575z"/>
	</g>
	<g>
		
			<linearGradient id="SVGID_2_" gradientUnits="userSpaceOnUse" x1="504.4941" y1="391.0684" x2="514.4072" y2="268.5085" gradientTransform="matrix(-1 0 0 1 812.5156 0)">
			<stop  offset="0" style="stop-color:#70BE25"/>
			<stop  offset="1" style="stop-color:#4E9A06"/>
		</linearGradient>
		<path fill="url(#SVGID_2_)" d="M430.053,477.575c0,5.5-3.69,7.426-8.202,4.279L174.082,309.031
			c-4.511-3.146-4.102-3.865,0.909-1.597c0,0,107.343,48.588,152.343,9.728s92.726-37.207,92.726-37.207
			c5.497,0.19,9.994,4.846,9.994,10.346V477.575z"/>
	</g>
	
		<radialGradient id="SVGID_3_" cx="457.0117" cy="40.8218" r="136.9415" gradientTransform="matrix(0 0.6255 0.6121 0 296.2598 0.9963)" gradientUnits="userSpaceOnUse">
		<stop  offset="0" style="stop-color:#6FCC14;stop-opacity:0.61"/>
		<stop  offset="0.3077" style="stop-color:#68C111;stop-opacity:0.4223"/>
		<stop  offset="0.8482" style="stop-color:#54A309;stop-opacity:0.0926"/>
		<stop  offset="1" style="stop-color:#4E9A06;stop-opacity:0"/>
	</radialGradient>
	<ellipse fill="url(#SVGID_3_)" cx="321.246" cy="286.857" rx="103.732" ry="106"/>
</g>
<g id="Layer_2">
	<g>
		<path fill="#3A7304" d="M775.131,503.77c0.007,5.5-3.703,7.462-8.245,4.36L454.412,294.753c-4.542-3.102-4.55-8.188-0.018-11.305
			L766.341,68.981c4.532-3.116,8.246-1.166,8.253,4.334L775.131,503.77z"/>
	</g>
</g>
<g id="Layer_4">
	<g>
		<path fill="#A3CB7E" d="M765.177,486.021c0.007,5.5-3.688,7.439-8.21,4.31l-282.635-195.58c-4.523-3.13-4.531-8.263-0.019-11.407
			L756.473,86.779c4.513-3.144,8.211-1.216,8.218,4.284L765.177,486.021z"/>
	</g>
</g>
<g id="Layer_5">
	<g>
		<path fill="#A0E0A0" d="M754.223,465.273c0.007,5.5-3.688,7.439-8.211,4.31L493.285,294.699c-4.522-3.13-4.53-8.263-0.018-11.407
			l252.302-175.765c4.513-3.144,8.211-1.216,8.218,4.284L754.223,465.273z"/>
	</g>
	<g>
		<path fill="#A0E0A0" d="M754.223,465.273c0.007,5.5-3.688,7.439-8.211,4.31L493.285,294.699c-4.522-3.13-4.53-8.263-0.018-11.407
			l252.302-175.765c4.513-3.144,8.211-1.216,8.218,4.284L754.223,465.273z"/>
	</g>
	<g>
		
			<linearGradient id="SVGID_4_" gradientUnits="userSpaceOnUse" x1="186.5137" y1="318.959" x2="173.8053" y2="131.2663" gradientTransform="matrix(-1 0 0 1 812.5156 0)">
			<stop  offset="0" style="stop-color:#89BD58"/>
			<stop  offset="1" style="stop-color:#519C0A"/>
		</linearGradient>
		<path fill="url(#SVGID_4_)" d="M754.223,465.273c0.007,5.5-3.688,7.439-8.211,4.31L493.285,294.699
			c-4.522-3.13-4.53-8.263-0.018-11.407l252.302-175.765c4.513-3.144,8.211-1.216,8.218,4.284L754.223,465.273z"/>
	</g>
</g>
<g id="Layer_7">
	<g>
		
			<linearGradient id="SVGID_5_" gradientUnits="userSpaceOnUse" x1="180.3115" y1="378.7666" x2="190.2246" y2="256.2067" gradientTransform="matrix(-1 0 0 1 812.5156 0)">
			<stop  offset="0" style="stop-color:#70BE25"/>
			<stop  offset="1" style="stop-color:#4E9A06"/>
		</linearGradient>
		<path fill="url(#SVGID_5_)" d="M754.235,465.273c0,5.5-3.69,7.426-8.202,4.279L498.265,296.729
			c-4.512-3.146-4.103-3.865,0.908-1.597c0,0,107.343,48.588,152.343,9.728s92.726-37.207,92.726-37.207
			c5.497,0.19,9.994,4.846,9.994,10.346V465.273z"/>
	</g>
</g>
<g id="radial_grad">
	
		<radialGradient id="SVGID_6_" cx="437.3447" cy="570.4453" r="136.9417" gradientTransform="matrix(0 0.6255 0.6121 0 296.2598 0.9963)" gradientUnits="userSpaceOnUse">
		<stop  offset="0" style="stop-color:#6FCC14;stop-opacity:0.61"/>
		<stop  offset="0.3077" style="stop-color:#68C111;stop-opacity:0.4223"/>
		<stop  offset="0.8482" style="stop-color:#54A309;stop-opacity:0.0926"/>
		<stop  offset="1" style="stop-color:#4E9A06;stop-opacity:0"/>
	</radialGradient>
	<ellipse fill="url(#SVGID_6_)" cx="645.429" cy="274.555" rx="103.732" ry="106"/>
</g>
<g id="Layer_6">
</g>
<g id="Layer_8">
	<g>
		<path fill="#3A7304" d="M116.972,533.356c5.5,0,10-4.5,10-10V78.332c0-5.5-4.5-10-10-10h-69.6c-5.5,0-10,4.5-10,10v445.024
			c0,5.5,4.5,10,10,10H116.972z"/>
	</g>
</g>
<g id="Layer_9">
	<g>
		<path fill="#A3CB7E" d="M108.012,521.729c5.5,0,10-4.5,10-10V89.958c0-5.5-4.5-10-10-10h-51.68c-5.5,0-10,4.5-10,10V511.73
			c0,5.5,4.5,10,10,10L108.012,521.729z"/>
	</g>
</g>
<g id="Layer_10">
	<g>
		
			<linearGradient id="SVGID_7_" gradientUnits="userSpaceOnUse" x1="369.5581" y1="-49.4897" x2="248.5782" y2="-48.8468" gradientTransform="matrix(0 1 1 0 131.8672 -107.5625)">
			<stop  offset="0" style="stop-color:#89BD58"/>
			<stop  offset="1" style="stop-color:#519C0A"/>
		</linearGradient>
		<path fill="url(#SVGID_7_)" d="M100.843,510.687c5.5,0,10-4.5,10-10V101.002c0-5.5-4.5-10-10-10l-37.344-0.001
			c-5.5,0-10,4.5-10,10v399.685c0,5.5,4.5,10,10,10H100.843z"/>
	</g>
</g>
<g id="Layer_11">
	<g>
		
			<linearGradient id="SVGID_8_" gradientUnits="userSpaceOnUse" x1="395.3843" y1="-49.6973" x2="618.248" y2="-49.6973" gradientTransform="matrix(0 1 1 0 131.8691 -107.5615)">
			<stop  offset="0" style="stop-color:#70BE25"/>
			<stop  offset="1" style="stop-color:#4E9A06"/>
		</linearGradient>
		<path fill="url(#SVGID_8_)" d="M100.844,510.687c5.5,0,10-4.5,10-10V310c0-5.5-0.424-5.521-0.943-0.045
			c0,0-1.24,13.095-27.729-9.955c-22.656-19.716-25.753-9.564-25.753-9.564C54.813,295.696,53.5,304.5,53.5,310v190.687
			c0,5.5,4.5,10,10,10H100.844z"/>
	</g>
</g>
</svg>
