<?xml version="1.0" encoding="UTF-8" standalone="no"?>
<!-- Generator: Adobe Illustrator 14.0.0, SVG Export Plug-In . SVG Version: 6.00 Build 43363)  -->

<svg
   xmlns:dc="http://purl.org/dc/elements/1.1/"
   xmlns:cc="http://creativecommons.org/ns#"
   xmlns:rdf="http://www.w3.org/1999/02/22-rdf-syntax-ns#"
   xmlns:svg="http://www.w3.org/2000/svg"
   xmlns="http://www.w3.org/2000/svg"
   xmlns:sodipodi="http://sodipodi.sourceforge.net/DTD/sodipodi-0.dtd"
   xmlns:inkscape="http://www.inkscape.org/namespaces/inkscape"
   version="1.1"
   x="0px"
   y="0px"
   width="800px"
   height="600px"
   viewBox="0 0 800 600"
   enable-background="new 0 0 800 600"
   xml:space="preserve"
   id="svg2"
   inkscape:version="0.48.0 r9654"
   sodipodi:docname="media_playback_backward.svg"><metadata
   id="metadata94"><rdf:RDF><cc:Work
       rdf:about=""><dc:format>image/svg+xml</dc:format><dc:type
         rdf:resource="http://purl.org/dc/dcmitype/StillImage" /><dc:title></dc:title><cc:license
         rdf:resource="http://creativecommons.org/licenses/publicdomain/" /></cc:Work><cc:License
       rdf:about="http://creativecommons.org/licenses/publicdomain/"><cc:permits
         rdf:resource="http://creativecommons.org/ns#Reproduction" /><cc:permits
         rdf:resource="http://creativecommons.org/ns#Distribution" /><cc:permits
         rdf:resource="http://creativecommons.org/ns#DerivativeWorks" /></cc:License></rdf:RDF></metadata><defs
   id="defs92" /><sodipodi:namedview
   pagecolor="#ffffff"
   bordercolor="#666666"
   borderopacity="1"
   objecttolerance="10"
   gridtolerance="10"
   guidetolerance="10"
   inkscape:pageopacity="0"
   inkscape:pageshadow="2"
   inkscape:window-width="1920"
   inkscape:window-height="1141"
   id="namedview90"
   showgrid="false"
   inkscape:zoom="0.48833333"
   inkscape:cx="10.921503"
   inkscape:cy="300"
   inkscape:window-x="-3"
   inkscape:window-y="-3"
   inkscape:window-maximized="1"
   inkscape:current-layer="svg2" />





<g
   id="g3109"
   transform="matrix(-1,0,0,1,820.90075,-3.1691454e-6)"><g
     id="Layer_3">
</g><g
     transform="translate(3.1691454e-6,-2.6662781e-7)"
     id="Layer_2">
	<g
   id="g6">
		<path
   style="fill:#3a7304"
   inkscape:connector-curvature="0"
   id="path8"
   d="m 308.385,501.77 c -0.007,5.5 3.704,7.462 8.246,4.36 L 629.104,292.753 c 4.542,-3.102 4.55,-8.188 0.018,-11.305 L 317.175,66.981 c -4.532,-3.116 -8.246,-1.166 -8.253,4.334 l -0.537,430.455 z" />
	</g>
</g><g
     transform="translate(4.5251102e-7,-3.0873455e-6)"
     id="Layer_4">
	<g
   id="g11">
		<path
   style="fill:#a3cb7e"
   inkscape:connector-curvature="0"
   id="path13"
   d="m 318.338,484.021 c -0.007,5.5 3.688,7.439 8.211,4.31 l 282.634,-195.58 c 4.523,-3.13 4.531,-8.263 0.019,-11.407 L 327.043,84.779 c -4.513,-3.144 -8.21,-1.216 -8.217,4.284 l -0.488,394.958 z" />
	</g>
</g><g
     transform="translate(-1.7729047e-6,4.6872386e-6)"
     id="Layer_5">
	<g
   id="g16">
		<path
   style="fill:#a0e0a0"
   inkscape:connector-curvature="0"
   id="path18"
   d="m 329.292,463.273 c -0.007,5.5 3.688,7.439 8.211,4.31 L 590.23,292.699 c 4.522,-3.13 4.53,-8.263 0.018,-11.407 L 337.946,105.527 c -4.513,-3.144 -8.21,-1.216 -8.217,4.284 l -0.437,353.462 z" />
	</g>
	<g
   id="g20">
		<path
   style="fill:#a0e0a0"
   inkscape:connector-curvature="0"
   id="path22"
   d="m 329.292,463.273 c -0.007,5.5 3.688,7.439 8.211,4.31 L 590.23,292.699 c 4.522,-3.13 4.53,-8.263 0.018,-11.407 L 337.946,105.527 c -4.513,-3.144 -8.21,-1.216 -8.217,4.284 l -0.437,353.462 z" />
	</g>
	<g
   id="g24">
		<linearGradient
   y2="129.2654"
   x2="444.8053"
   y1="316.95801"
   x1="457.5137"
   gradientUnits="userSpaceOnUse"
   id="SVGID_1_">
			<stop
   id="stop27"
   style="stop-color:#89BD58"
   offset="0" />
			<stop
   id="stop29"
   style="stop-color:#519C0A"
   offset="1" />
		</linearGradient>
		<path
   inkscape:connector-curvature="0"
   style="fill:url(#SVGID_1_)"
   id="path31"
   d="m 329.292,463.273 c -0.007,5.5 3.688,7.439 8.211,4.31 L 590.23,292.699 c 4.522,-3.13 4.53,-8.263 0.018,-11.407 L 337.946,105.527 c -4.513,-3.144 -8.21,-1.216 -8.217,4.284 l -0.437,353.462 z" />
	</g>
</g><g
     transform="translate(2.7873002e-6,4.0463367e-6)"
     id="Layer_7">
	<g
   id="g34">
		<linearGradient
   y2="254.2067"
   x2="461.22549"
   y1="376.7666"
   x1="451.3125"
   gradientUnits="userSpaceOnUse"
   id="SVGID_2_">
			<stop
   id="stop37"
   style="stop-color:#70BE25"
   offset="0" />
			<stop
   id="stop39"
   style="stop-color:#4E9A06"
   offset="1" />
		</linearGradient>
		<path
   inkscape:connector-curvature="0"
   style="fill:url(#SVGID_2_)"
   id="path41"
   d="m 329.28,463.273 c 0,5.5 3.691,7.426 8.202,4.279 L 585.251,294.729 c 4.512,-3.146 4.103,-3.865 -0.908,-1.597 0,0 -107.343,48.588 -152.343,9.728 -45,-38.86 -92.726,-37.207 -92.726,-37.207 -5.497,0.19 -9.994,4.846 -9.994,10.346 v 187.274 z" />
	</g>
</g><g
     transform="translate(-2.9394531e-6,1.7089844e-6)"
     id="radial_grad">
	
		<radialGradient
   gradientUnits="userSpaceOnUse"
   gradientTransform="matrix(0,0.6255,-0.6121,0,516.2558,0.9963)"
   r="136.9415"
   cy="127.707"
   cx="434.14749"
   id="SVGID_3_">
		<stop
   id="stop45"
   style="stop-color:#6FCC14;stop-opacity:0.61"
   offset="0" />
		<stop
   id="stop47"
   style="stop-color:#68C111;stop-opacity:0.4223"
   offset="0.3077" />
		<stop
   id="stop49"
   style="stop-color:#54A309;stop-opacity:0.0926"
   offset="0.8482" />
		<stop
   id="stop51"
   style="stop-color:#4E9A06;stop-opacity:0"
   offset="1" />
	</radialGradient>
	<ellipse
   sodipodi:ry="106"
   sodipodi:rx="103.732"
   sodipodi:cy="272.55499"
   sodipodi:cx="438.08701"
   style="fill:url(#SVGID_3_)"
   d="m 541.81901,272.55499 c 0,58.54219 -46.4424,106 -103.732,106 -57.28961,0 -103.73201,-47.45781 -103.73201,-106 0,-58.54218 46.4424,-106 103.73201,-106 57.2896,0 103.732,47.45782 103.732,106 z"
   id="ellipse53"
   ry="106"
   rx="103.732"
   cy="272.55499"
   cx="438.08701" />
</g></g>
<g
   id="Layer_6"
   display="none">
</g>
<g
   id="Layer_8"
   display="none">
	<g
   display="inline"
   id="g57">
		<path
   fill="#3A7304"
   d="M160.847,519.055c-5.5,0-10-4.5-10-10V64.03c0-5.5,4.5-10,10-10h69.6c5.5,0,10,4.5,10,10v445.024    c0,5.5-4.5,10-10,10H160.847z"
   id="path59" />
	</g>
</g>
<g
   id="Layer_9"
   display="none">
	<g
   display="inline"
   id="g62">
		<path
   fill="#A3CB7E"
   d="M169.807,507.428c-5.5,0-10-4.5-10-10V75.656c0-5.5,4.5-10,10-10h51.68c5.5,0,10,4.5,10,10v421.773    c0,5.5-4.5,10-10,10L169.807,507.428z"
   id="path64" />
	</g>
</g>
<g
   id="Layer_10"
   display="none">
	<g
   display="inline"
   id="g67">
		
			<linearGradient
   id="SVGID_4_"
   gradientUnits="userSpaceOnUse"
   x1="608.3945"
   y1="478.1465"
   x2="189.5502"
   y2="491.5441"
   gradientTransform="matrix(0 1 -1 0 680.6465 -107.5615)">
			<stop
   offset="0"
   style="stop-color:#89BD58"
   id="stop70" />
			<stop
   offset="1"
   style="stop-color:#519C0A"
   id="stop72" />
		</linearGradient>
		<path
   fill="url(#SVGID_4_)"
   d="M176.975,496.385c-5.5,0-10-4.5-10-10V86.7c0-5.5,4.5-10,10-10h37.344c5.5,0,10,4.5,10,10v399.685    c0,5.5-4.5,10-10,10H176.975z"
   id="path74" />
	</g>
</g>
<g
   id="Layer_11"
   display="none">
	<g
   display="inline"
   id="g77">
		
			<radialGradient
   id="SVGID_5_"
   cx="585.3682"
   cy="502.0566"
   r="146.28"
   gradientTransform="matrix(0 1 -1 0 680.6465 -107.5615)"
   gradientUnits="userSpaceOnUse">
			<stop
   offset="0"
   style="stop-color:#6FCC14;stop-opacity:0.61"
   id="stop80" />
			<stop
   offset="0.3077"
   style="stop-color:#68C111;stop-opacity:0.4223"
   id="stop82" />
			<stop
   offset="0.8482"
   style="stop-color:#54A309;stop-opacity:0.0926"
   id="stop84" />
			<stop
   offset="1"
   style="stop-color:#4E9A06;stop-opacity:0"
   id="stop86" />
		</radialGradient>
		<path
   fill="url(#SVGID_5_)"
   d="M176.975,496.385c-5.5,0-10-4.5-10-10V86.7c0-5.5,0.275-5.508,0.611-0.019    c0,0,12.902,210.844,22.54,272.449c9.638,61.604,31.106,127.742,31.106,127.742c1.698,5.231-1.413,9.512-6.913,9.512H176.975z"
   id="path88" />
	</g>
</g>
</svg>