<?xml version="1.0" encoding="UTF-8" standalone="no"?>
<!-- Generator: Adobe Illustrator 14.0.0, SVG Export Plug-In . SVG Version: 6.00 Build 43363)  -->

<svg
   xmlns:dc="http://purl.org/dc/elements/1.1/"
   xmlns:cc="http://creativecommons.org/ns#"
   xmlns:rdf="http://www.w3.org/1999/02/22-rdf-syntax-ns#"
   xmlns:svg="http://www.w3.org/2000/svg"
   xmlns="http://www.w3.org/2000/svg"
   xmlns:sodipodi="http://sodipodi.sourceforge.net/DTD/sodipodi-0.dtd"
   xmlns:inkscape="http://www.inkscape.org/namespaces/inkscape"
   version="1.1"
   x="0px"
   y="0px"
   width="48"
   height="48"
   viewBox="0 0 48 48"
   enable-background="new 0 0 800 600"
   xml:space="preserve"
   id="svg2"
   inkscape:version="0.48.0 r9654"
   sodipodi:docname="media_playback_stop.svg"><metadata
   id="metadata206"><rdf:RDF><cc:Work
       rdf:about=""><dc:format>image/svg+xml</dc:format><dc:type
         rdf:resource="http://purl.org/dc/dcmitype/StillImage" /><dc:title></dc:title><cc:license
         rdf:resource="http://creativecommons.org/licenses/publicdomain/" /></cc:Work><cc:License
       rdf:about="http://creativecommons.org/licenses/publicdomain/"><cc:permits
         rdf:resource="http://creativecommons.org/ns#Reproduction" /><cc:permits
         rdf:resource="http://creativecommons.org/ns#Distribution" /><cc:permits
         rdf:resource="http://creativecommons.org/ns#DerivativeWorks" /></cc:License></rdf:RDF></metadata><defs
   id="defs204" /><sodipodi:namedview
   pagecolor="#ffffff"
   bordercolor="#666666"
   borderopacity="1"
   objecttolerance="10"
   gridtolerance="10"
   guidetolerance="10"
   inkscape:pageopacity="0"
   inkscape:pageshadow="2"
   inkscape:window-width="1007"
   inkscape:window-height="857"
   id="namedview202"
   showgrid="false"
   fit-margin-top="0"
   fit-margin-left="0"
   fit-margin-right="0"
   fit-margin-bottom="0"
   inkscape:zoom="6.0151217"
   inkscape:cx="-21.31537"
   inkscape:cy="28.263968"
   inkscape:window-x="649"
   inkscape:window-y="0"
   inkscape:window-maximized="0"
   inkscape:current-layer="svg2" />
<g
   id="Layer_3"
   display="none"
   style="display:none"
   transform="translate(-399.14501,-255.753)">
	<g
   display="inline"
   id="g5"
   style="display:inline">
		<path
   d="m 406.167,516.071 c -0.007,5.5 3.704,7.462 8.245,4.36 L 726.886,307.054 c 4.542,-3.102 4.55,-8.189 0.018,-11.305 L 414.957,81.283 c -4.532,-3.116 -8.246,-1.166 -8.253,4.334 l -0.537,430.454 z"
   id="path7"
   inkscape:connector-curvature="0"
   style="fill:#3a7304" />
	</g>
	<g
   display="inline"
   id="g9"
   style="display:inline">
		<path
   d="m 416.121,498.323 c -0.008,5.5 3.688,7.439 8.211,4.31 l 282.635,-195.58 c 4.522,-3.13 4.53,-8.263 0.018,-11.407 L 424.825,99.081 c -4.513,-3.144 -8.21,-1.216 -8.218,4.284 l -0.486,394.958 z"
   id="path11"
   inkscape:connector-curvature="0"
   style="fill:#a3cb7e" />
	</g>
	<g
   display="inline"
   id="g13"
   style="display:inline">
		<path
   d="m 427.074,477.575 c -0.006,5.5 3.688,7.439 8.211,4.31 L 688.012,307.001 c 4.523,-3.13 4.531,-8.263 0.019,-11.407 L 435.729,119.829 c -4.513,-3.144 -8.211,-1.216 -8.217,4.284 l -0.438,353.462 z"
   id="path15"
   inkscape:connector-curvature="0"
   style="fill:#a0e0a0" />
	</g>
	<g
   display="inline"
   id="g17"
   style="display:inline">
		<path
   d="m 427.074,477.575 c -0.006,5.5 3.688,7.439 8.211,4.31 L 688.012,307.001 c 4.523,-3.13 4.531,-8.263 0.019,-11.407 L 435.729,119.829 c -4.513,-3.144 -8.211,-1.216 -8.217,4.284 l -0.438,353.462 z"
   id="path19"
   inkscape:connector-curvature="0"
   style="fill:#a0e0a0" />
	</g>
	<g
   display="inline"
   id="g21"
   style="display:inline">
		
			<linearGradient
   id="SVGID_1_"
   gradientUnits="userSpaceOnUse"
   x1="630.69629"
   y1="331.2598"
   x2="617.98792"
   y2="143.56709"
   gradientTransform="translate(-75.4004,0)">
			<stop
   offset="0"
   style="stop-color:#89BD58"
   id="stop24" />
			<stop
   offset="1"
   style="stop-color:#519C0A"
   id="stop26" />
		</linearGradient>
		<path
   d="m 427.074,477.575 c -0.006,5.5 3.688,7.439 8.211,4.31 L 688.012,307.001 c 4.523,-3.13 4.531,-8.263 0.019,-11.407 L 435.729,119.829 c -4.513,-3.144 -8.211,-1.216 -8.217,4.284 l -0.438,353.462 z"
   id="path28"
   inkscape:connector-curvature="0"
   style="fill:url(#SVGID_1_)" />
	</g>
	<g
   display="inline"
   id="g30"
   style="display:inline">
		
			<linearGradient
   id="SVGID_2_"
   gradientUnits="userSpaceOnUse"
   x1="624.49408"
   y1="391.06839"
   x2="634.40723"
   y2="268.50851"
   gradientTransform="translate(-75.4004,0)">
			<stop
   offset="0"
   style="stop-color:#70BE25"
   id="stop33" />
			<stop
   offset="1"
   style="stop-color:#4E9A06"
   id="stop35" />
		</linearGradient>
		<path
   d="m 427.063,477.575 c 0,5.5 3.691,7.426 8.201,4.279 l 247.77,-172.823 c 4.512,-3.146 4.103,-3.865 -0.908,-1.597 0,0 -107.343,48.588 -152.343,9.728 -45,-38.86 -92.726,-37.207 -92.726,-37.207 -5.497,0.19 -9.994,4.846 -9.994,10.346 v 187.274 z"
   id="path37"
   inkscape:connector-curvature="0"
   style="fill:url(#SVGID_2_)" />
	</g>
	
		<radialGradient
   id="SVGID_3_"
   cx="457.01169"
   cy="-155.2236"
   r="136.9415"
   gradientTransform="matrix(0,0.6255,-0.6121,0,440.8554,0.9963)"
   gradientUnits="userSpaceOnUse">
		<stop
   offset="0"
   style="stop-color:#6FCC14;stop-opacity:0.61"
   id="stop40" />
		<stop
   offset="0.3077"
   style="stop-color:#68C111;stop-opacity:0.4223"
   id="stop42" />
		<stop
   offset="0.8482"
   style="stop-color:#54A309;stop-opacity:0.0926"
   id="stop44" />
		<stop
   offset="1"
   style="stop-color:#4E9A06;stop-opacity:0"
   id="stop46" />
	</radialGradient>
	<ellipse
   display="inline"
   cx="535.86902"
   cy="286.85699"
   rx="103.732"
   ry="106"
   id="ellipse48"
   sodipodi:cx="535.86902"
   sodipodi:cy="286.85699"
   sodipodi:rx="103.732"
   sodipodi:ry="106"
   style="fill:url(#SVGID_3_);display:inline"
   d="m 639.60102,286.85699 c 0,58.54219 -46.4424,106 -103.732,106 -57.2896,0 -103.732,-47.45781 -103.732,-106 0,-58.54218 46.4424,-106 103.732,-106 57.2896,0 103.732,47.45782 103.732,106 z" />
</g>
<g
   id="Layer_2"
   display="none"
   style="display:none"
   transform="translate(-399.14501,-255.753)">
	<g
   display="inline"
   id="g51"
   style="display:inline">
		<path
   d="m 81.984,503.77 c -0.007,5.5 3.704,7.462 8.246,4.36 L 402.703,294.753 c 4.541,-3.102 4.55,-8.188 0.018,-11.305 L 90.774,68.981 c -4.532,-3.116 -8.246,-1.166 -8.253,4.334 L 81.984,503.77 z"
   id="path53"
   inkscape:connector-curvature="0"
   style="fill:#3a7304" />
	</g>
</g>
<g
   id="Layer_4"
   display="none"
   style="display:none"
   transform="translate(-399.14501,-255.753)">
	<g
   display="inline"
   id="g56"
   style="display:inline">
		<path
   d="m 91.938,486.021 c -0.007,5.5 3.688,7.439 8.211,4.31 l 282.635,-195.58 c 4.523,-3.13 4.531,-8.263 0.018,-11.407 L 100.643,86.779 c -4.513,-3.144 -8.21,-1.216 -8.217,4.284 l -0.488,394.958 z"
   id="path58"
   inkscape:connector-curvature="0"
   style="fill:#a3cb7e" />
	</g>
</g>
<g
   id="Layer_5"
   display="none"
   style="display:none"
   transform="translate(-399.14501,-255.753)">
	<g
   display="inline"
   id="g61"
   style="display:inline">
		<path
   d="m 102.892,465.273 c -0.007,5.5 3.688,7.439 8.211,4.31 L 363.83,294.699 c 4.523,-3.13 4.531,-8.263 0.018,-11.407 L 111.546,107.527 c -4.513,-3.144 -8.21,-1.216 -8.217,4.284 l -0.437,353.462 z"
   id="path63"
   inkscape:connector-curvature="0"
   style="fill:#a0e0a0" />
	</g>
	<g
   display="inline"
   id="g65"
   style="display:inline">
		<path
   d="m 102.892,465.273 c -0.007,5.5 3.688,7.439 8.211,4.31 L 363.83,294.699 c 4.523,-3.13 4.531,-8.263 0.018,-11.407 L 111.546,107.527 c -4.513,-3.144 -8.21,-1.216 -8.217,4.284 l -0.437,353.462 z"
   id="path67"
   inkscape:connector-curvature="0"
   style="fill:#a0e0a0" />
	</g>
	<g
   display="inline"
   id="g69"
   style="display:inline">
		
			<linearGradient
   id="SVGID_4_"
   gradientUnits="userSpaceOnUse"
   x1="306.51419"
   y1="318.95801"
   x2="293.80579"
   y2="131.2654"
   gradientTransform="translate(-75.4004,0)">
			<stop
   offset="0"
   style="stop-color:#89BD58"
   id="stop72" />
			<stop
   offset="1"
   style="stop-color:#519C0A"
   id="stop74" />
		</linearGradient>
		<path
   d="m 102.892,465.273 c -0.007,5.5 3.688,7.439 8.211,4.31 L 363.83,294.699 c 4.523,-3.13 4.531,-8.263 0.018,-11.407 L 111.546,107.527 c -4.513,-3.144 -8.21,-1.216 -8.217,4.284 l -0.437,353.462 z"
   id="path76"
   inkscape:connector-curvature="0"
   style="fill:url(#SVGID_4_)" />
	</g>
</g>
<g
   id="Layer_7"
   display="none"
   style="display:none"
   transform="translate(-399.14501,-255.753)">
	<g
   display="inline"
   id="g79"
   style="display:inline">
		
			<linearGradient
   id="SVGID_5_"
   gradientUnits="userSpaceOnUse"
   x1="300.31149"
   y1="378.76761"
   x2="310.22449"
   y2="256.20801"
   gradientTransform="translate(-75.4004,0)">
			<stop
   offset="0"
   style="stop-color:#70BE25"
   id="stop82" />
			<stop
   offset="1"
   style="stop-color:#4E9A06"
   id="stop84" />
		</linearGradient>
		<path
   d="m 102.88,465.273 c 0,5.5 3.691,7.426 8.202,4.279 l 247.77,-172.823 c 4.511,-3.146 4.102,-3.865 -0.909,-1.597 0,0 -107.343,48.588 -152.343,9.728 -45,-38.86 -92.726,-37.207 -92.726,-37.207 -5.497,0.19 -9.994,4.846 -9.994,10.346 v 187.274 z"
   id="path86"
   inkscape:connector-curvature="0"
   style="fill:url(#SVGID_5_)" />
	</g>
</g>
<g
   id="radial_grad"
   display="none"
   style="display:none"
   transform="translate(-399.14501,-255.753)">
	
		<radialGradient
   id="SVGID_6_"
   cx="437.3447"
   cy="374.40039"
   r="136.9413"
   gradientTransform="matrix(0,0.6255,-0.6121,0,440.8554,0.9963)"
   gradientUnits="userSpaceOnUse">
		<stop
   offset="0"
   style="stop-color:#6FCC14;stop-opacity:0.61"
   id="stop90" />
		<stop
   offset="0.3077"
   style="stop-color:#68C111;stop-opacity:0.4223"
   id="stop92" />
		<stop
   offset="0.8482"
   style="stop-color:#54A309;stop-opacity:0.0926"
   id="stop94" />
		<stop
   offset="1"
   style="stop-color:#4E9A06;stop-opacity:0"
   id="stop96" />
	</radialGradient>
	<ellipse
   display="inline"
   cx="211.687"
   cy="274.55499"
   rx="103.732"
   ry="106"
   id="ellipse98"
   sodipodi:cx="211.687"
   sodipodi:cy="274.55499"
   sodipodi:rx="103.732"
   sodipodi:ry="106"
   style="fill:url(#SVGID_6_);display:inline"
   d="m 315.419,274.55499 c 0,58.54219 -46.4424,106 -103.732,106 -57.28961,0 -103.73201,-47.45781 -103.73201,-106 0,-58.54218 46.4424,-106 103.73201,-106 57.2896,0 103.732,47.45782 103.732,106 z" />
</g>
<g
   id="green_stop"
   display="none"
   style="display:none"
   transform="translate(-399.14501,-255.753)">
	<g
   display="inline"
   id="g101"
   style="display:inline">
		<path
   d="m 588.097,-56.792 c -5.5,0 -10,4.5 -10,10 V 355 c 0,5.5 4.5,10 10,10 h 393.408 c 5.5,0 10,-4.5 10,-10 V -46.792 c 0,-5.5 -4.5,-10 -10,-10 H 588.097 z"
   id="path103"
   inkscape:connector-curvature="0"
   style="fill:#3a7304" />
	</g>
	<g
   display="inline"
   id="g105"
   style="display:inline">
		<path
   d="m 603.434,-46.247 c -5.5,0 -10,4.5 -10,10 v 380.702 c 0,5.5 4.5,10 10,10 h 362.734 c 5.5,0 10,-4.5 10,-10 V -36.247 c 0,-5.5 -4.5,-10 -10,-10 H 603.434 z"
   id="path107"
   inkscape:connector-curvature="0"
   style="fill:#a3cb7e" />
	</g>
	<g
   display="inline"
   id="g109"
   style="display:inline">
		<linearGradient
   id="SVGID_7_"
   gradientUnits="userSpaceOnUse"
   x1="784.7002"
   y1="158.3394"
   x2="789.16248"
   y2="-29.9799">
			<stop
   offset="0"
   style="stop-color:#89BD58"
   id="stop112" />
			<stop
   offset="1"
   style="stop-color:#519C0A"
   id="stop114" />
		</linearGradient>
		<path
   d="m 615.703,-36.23 c -5.5,0 -10,4.5 -10,10 v 360.667 c 0,5.5 4.5,10 10,10 h 338.195 c 5.5,0 10,-4.5 10,-10 V -26.23 c 0,-5.5 -4.5,-10 -10,-10 H 615.703 z"
   id="path116"
   inkscape:connector-curvature="0"
   style="fill:url(#SVGID_7_)" />
	</g>
	<g
   display="inline"
   id="g118"
   style="display:inline">
		<linearGradient
   id="SVGID_8_"
   gradientUnits="userSpaceOnUse"
   x1="784.32233"
   y1="192.41701"
   x2="786.8515"
   y2="346.27191">
			<stop
   offset="0"
   style="stop-color:#70BE25"
   id="stop121" />
			<stop
   offset="1"
   style="stop-color:#4E9A06"
   id="stop123" />
		</linearGradient>
		<path
   d="m 615.703,344.438 c -5.5,0 -10,-4.5 -10,-10 V 183.805 c 0,-5.5 4.195,-8.372 9.323,-6.383 0,0 89.806,34.838 196.014,7.37 106.208,-27.468 146.63,-78.242 146.63,-78.242 3.426,-4.303 6.229,-3.323 6.229,2.177 v 225.711 c 0,5.5 -4.5,10 -10,10 H 615.703 z"
   id="path125"
   inkscape:connector-curvature="0"
   style="fill:url(#SVGID_8_)" />
	</g>
	
		<radialGradient
   id="SVGID_9_"
   cx="184.5791"
   cy="-574.85889"
   r="167.18559"
   gradientTransform="matrix(0,0.6255,-0.6121,0,440.8554,0.9963)"
   gradientUnits="userSpaceOnUse">
		<stop
   offset="0"
   style="stop-color:#6FCC14;stop-opacity:0.61"
   id="stop128" />
		<stop
   offset="0.3077"
   style="stop-color:#68C111;stop-opacity:0.4223"
   id="stop130" />
		<stop
   offset="0.8482"
   style="stop-color:#54A309;stop-opacity:0.0926"
   id="stop132" />
		<stop
   offset="1"
   style="stop-color:#4E9A06;stop-opacity:0"
   id="stop134" />
	</radialGradient>
	<path
   display="inline"
   d="m 792.729,-12.96 c 69.943,0 126.642,57.938 126.642,129.412 0,71.473 -56.698,129.41 -126.642,129.41 -69.945,0 -126.645,-57.938 -126.645,-129.412 0,-71.472 56.699,-129.41 126.645,-129.41 z"
   id="path136"
   inkscape:connector-curvature="0"
   style="opacity:0.45;fill:url(#SVGID_9_);display:inline" />
</g>
<g
   id="red_stop"
   transform="matrix(0.11630161,0,0,0.11398988,-25.212447,-7.8890116)">
	<g
   id="g139">
		<path
   d="m 226.785,69.208 c -5.5,0 -10,4.5 -10,10 v 401.09 c 0,5.5 4.5,10 10,10 h 392.72 c 5.5,0 10,-4.5 10,-10 V 79.208 c 0,-5.5 -4.5,-10 -10,-10 h -392.72 z"
   id="path141"
   inkscape:connector-curvature="0"
   style="fill:#b30909" />
	</g>
	<g
   id="g143">
		<path
   d="m 242.097,79.736 c -5.5,0 -10,4.5 -10,10 V 469.77 c 0,5.5 4.5,10 10,10 h 362.097 c 5.5,0 10,-4.5 10,-10 V 89.736 c 0,-5.5 -4.5,-10 -10,-10 H 242.097 z"
   id="path145"
   inkscape:connector-curvature="0"
   style="fill:#ef0c0c" />
	</g>
	<g
   id="g147">
		<linearGradient
   id="SVGID_10_"
   gradientUnits="userSpaceOnUse"
   x1="420.79001"
   y1="120.0361"
   x2="424.59161"
   y2="377.90701">
			<stop
   offset="0.1083"
   style="stop-color:#C73600"
   id="stop150" />
			<stop
   offset="1"
   style="stop-color:#FF6B5C"
   id="stop152" />
		</linearGradient>
		<path
   d="m 254.345,89.736 c -5.5,0 -10,4.5 -10,10 v 360.033 c 0,5.5 4.5,10 10,10 h 337.599 c 5.5,0 10,-4.5 10,-10 V 99.736 c 0,-5.5 -4.5,-10 -10,-10 H 254.345 z"
   id="path154"
   inkscape:connector-curvature="0"
   style="fill:url(#SVGID_10_)" />
	</g>
	<g
   id="g156">
		<linearGradient
   id="SVGID_11_"
   gradientUnits="userSpaceOnUse"
   x1="423.5361"
   y1="415.3027"
   x2="422.66901"
   y2="264.38931">
			<stop
   offset="0"
   style="stop-color:#C73600"
   id="stop159" />
			<stop
   offset="1"
   style="stop-color:#FF6B5C"
   id="stop161" />
		</linearGradient>
		<path
   d="m 254.345,469.77 c -5.5,0 -10,-4.5 -10,-10 V 309.42 c 0,-5.5 4.195,-8.372 9.323,-6.383 0,0 89.641,34.775 195.671,7.353 106.031,-27.422 146.376,-78.099 146.376,-78.099 3.426,-4.303 6.229,-3.324 6.229,2.176 V 459.77 c 0,5.5 -4.5,10 -10,10 H 254.345 z"
   id="path163"
   inkscape:connector-curvature="0"
   style="fill:url(#SVGID_11_)" />
	</g>
	
		<radialGradient
   id="SVGID_12_"
   cx="330.12451"
   cy="-69.971703"
   r="169.46831"
   gradientTransform="matrix(0,0.6255,-0.6121,0,440.8554,0.9963)"
   gradientUnits="userSpaceOnUse">
		<stop
   offset="0"
   style="stop-color:#FFFFFF"
   id="stop166" />
		<stop
   offset="1"
   style="stop-color:#FFFFFF;stop-opacity:0"
   id="stop168" />
	</radialGradient>
	<ellipse
   cx="483.68701"
   cy="207.489"
   rx="103.732"
   ry="106"
   id="ellipse170"
   sodipodi:cx="483.68701"
   sodipodi:cy="207.489"
   sodipodi:rx="103.732"
   sodipodi:ry="106"
   style="opacity:0.13999999;fill:url(#SVGID_12_)"
   d="m 587.41901,207.489 c 0,58.54218 -46.4424,106 -103.732,106 -57.2896,0 -103.732,-47.45782 -103.732,-106 0,-58.54219 46.4424,-106 103.732,-106 57.2896,0 103.732,47.45781 103.732,106 z" />
</g>
<g
   id="Layer_8"
   display="none"
   style="display:none"
   transform="translate(-399.14501,-255.753)">
	<g
   display="inline"
   id="g173"
   style="display:inline">
		<path
   d="m 116.972,533.356 c 5.5,0 10,-4.5 10,-10 V 78.332 c 0,-5.5 -4.5,-10 -10,-10 h -69.6 c -5.5,0 -10,4.5 -10,10 v 445.024 c 0,5.5 4.5,10 10,10 h 69.6 z"
   id="path175"
   inkscape:connector-curvature="0"
   style="fill:#3a7304" />
	</g>
</g>
<g
   id="Layer_9"
   display="none"
   style="display:none"
   transform="translate(-399.14501,-255.753)">
	<g
   display="inline"
   id="g178"
   style="display:inline">
		<path
   d="m 108.012,521.729 c 5.5,0 10,-4.5 10,-10 V 89.958 c 0,-5.5 -4.5,-10 -10,-10 h -51.68 c -5.5,0 -10,4.5 -10,10 V 511.73 c 0,5.5 4.5,10 10,10 l 51.68,-10e-4 z"
   id="path180"
   inkscape:connector-curvature="0"
   style="fill:#a3cb7e" />
	</g>
</g>
<g
   id="Layer_10"
   display="none"
   style="display:none"
   transform="translate(-399.14501,-255.753)">
	<g
   display="inline"
   id="g183"
   style="display:inline">
		
			<linearGradient
   id="SVGID_13_"
   gradientUnits="userSpaceOnUse"
   x1="369.55811"
   y1="-49.4897"
   x2="248.5782"
   y2="-48.846802"
   gradientTransform="matrix(0,1,1,0,131.8672,-107.5625)">
			<stop
   offset="0"
   style="stop-color:#89BD58"
   id="stop186" />
			<stop
   offset="1"
   style="stop-color:#519C0A"
   id="stop188" />
		</linearGradient>
		<path
   d="m 100.843,510.687 c 5.5,0 10,-4.5 10,-10 V 101.002 c 0,-5.5 -4.5,-10 -10,-10 L 63.499,91.001 c -5.5,0 -10,4.5 -10,10 v 399.685 c 0,5.5 4.5,10 10,10 h 37.344 z"
   id="path190"
   inkscape:connector-curvature="0"
   style="fill:url(#SVGID_13_)" />
	</g>
</g>
<g
   id="Layer_11"
   display="none"
   style="display:none"
   transform="translate(-399.14501,-255.753)">
	<g
   display="inline"
   id="g193"
   style="display:inline">
		
			<linearGradient
   id="SVGID_14_"
   gradientUnits="userSpaceOnUse"
   x1="395.38431"
   y1="-49.6973"
   x2="618.24799"
   y2="-49.6973"
   gradientTransform="matrix(0,1,1,0,131.8691,-107.5615)">
			<stop
   offset="0"
   style="stop-color:#70BE25"
   id="stop196" />
			<stop
   offset="1"
   style="stop-color:#4E9A06"
   id="stop198" />
		</linearGradient>
		<path
   d="m 100.844,510.687 c 5.5,0 10,-4.5 10,-10 V 310 c 0,-5.5 -0.424,-5.521 -0.943,-0.045 0,0 -1.24,13.095 -27.729,-9.955 C 59.516,280.284 56.419,290.436 56.419,290.436 54.813,295.696 53.5,304.5 53.5,310 v 190.687 c 0,5.5 4.5,10 10,10 h 37.344 z"
   id="path200"
   inkscape:connector-curvature="0"
   style="fill:url(#SVGID_14_)" />
	</g>
</g>
</svg>