<?xml version="1.0" encoding="UTF-8" standalone="no"?>
<!-- Created with Inkscape (http://www.inkscape.org/) -->
<svg xmlns:dc="http://purl.org/dc/elements/1.1/" xmlns:cc="http://creativecommons.org/ns#" xmlns:rdf="http://www.w3.org/1999/02/22-rdf-syntax-ns#" xmlns:svg="http://www.w3.org/2000/svg" xmlns="http://www.w3.org/2000/svg" xmlns:xlink="http://www.w3.org/1999/xlink" xmlns:sodipodi="http://sodipodi.sourceforge.net/DTD/sodipodi-0.dtd" xmlns:inkscape="http://www.inkscape.org/namespaces/inkscape" width="210mm" height="297mm" id="svg2" sodipodi:version="0.32" inkscape:version="0.46" inkscape:output_extension="org.inkscape.output.svg.inkscape">
  <defs id="defs4">
    <linearGradient inkscape:collect="always" id="linearGradient3404">
      <stop style="stop-color:#000000;stop-opacity:1;" offset="0" id="stop3406"/>
      <stop style="stop-color:#000000;stop-opacity:0;" offset="1" id="stop3408"/>
    </linearGradient>
    <linearGradient inkscape:collect="always" id="linearGradient3330">
      <stop style="stop-color:#000000;stop-opacity:1;" offset="0" id="stop3332"/>
      <stop style="stop-color:#000000;stop-opacity:0;" offset="1" id="stop3334"/>
    </linearGradient>
    <linearGradient inkscape:collect="always" id="linearGradient3292">
      <stop style="stop-color:#ffffff;stop-opacity:1;" offset="0" id="stop3294"/>
      <stop style="stop-color:#ffffff;stop-opacity:0;" offset="1" id="stop3296"/>
    </linearGradient>
    <linearGradient inkscape:collect="always" id="linearGradient3242">
      <stop style="stop-color:#ffffff;stop-opacity:1;" offset="0" id="stop3244"/>
      <stop style="stop-color:#ffffff;stop-opacity:0;" offset="1" id="stop3246"/>
    </linearGradient>
    <linearGradient inkscape:collect="always" id="linearGradient3204">
      <stop style="stop-color:#ffffff;stop-opacity:1;" offset="0" id="stop3206"/>
      <stop style="stop-color:#ffffff;stop-opacity:0;" offset="1" id="stop3208"/>
    </linearGradient>
    <inkscape:perspective sodipodi:type="inkscape:persp3d" inkscape:vp_x="0 : 526.18109 : 1" inkscape:vp_y="0 : 1000 : 0" inkscape:vp_z="744.09448 : 526.18109 : 1" inkscape:persp3d-origin="372.04724 : 350.78739 : 1" id="perspective10"/>
    <linearGradient inkscape:collect="always" xlink:href="#linearGradient3204" id="linearGradient3210" x1="92.436419" y1="610.025" x2="478.99215" y2="610.025" gradientUnits="userSpaceOnUse"/>
    <linearGradient inkscape:collect="always" xlink:href="#linearGradient3204" id="linearGradient3214" gradientUnits="userSpaceOnUse" x1="92.436419" y1="610.025" x2="478.99215" y2="610.025"/>
    <linearGradient inkscape:collect="always" xlink:href="#linearGradient3204" id="linearGradient3218" gradientUnits="userSpaceOnUse" x1="92.436419" y1="610.025" x2="478.99215" y2="610.025"/>
    <linearGradient inkscape:collect="always" xlink:href="#linearGradient3204" id="linearGradient3222" gradientUnits="userSpaceOnUse" x1="92.436419" y1="610.025" x2="478.99215" y2="610.025"/>
    <linearGradient inkscape:collect="always" xlink:href="#linearGradient3204" id="linearGradient3226" gradientUnits="userSpaceOnUse" x1="92.436419" y1="610.025" x2="478.99215" y2="610.025"/>
    <linearGradient inkscape:collect="always" xlink:href="#linearGradient3204" id="linearGradient3230" gradientUnits="userSpaceOnUse" x1="92.436419" y1="610.025" x2="478.99215" y2="610.025"/>
    <linearGradient inkscape:collect="always" xlink:href="#linearGradient3204" id="linearGradient3234" gradientUnits="userSpaceOnUse" x1="92.436419" y1="610.025" x2="478.99215" y2="610.025"/>
    <linearGradient inkscape:collect="always" xlink:href="#linearGradient3204" id="linearGradient3238" gradientUnits="userSpaceOnUse" x1="42.938942" y1="461.53259" x2="364.84491" y2="712.05042"/>
    <linearGradient inkscape:collect="always" xlink:href="#linearGradient3242" id="linearGradient3248" x1="93.994949" y1="460.91787" x2="646.44687" y2="460.91787" gradientUnits="userSpaceOnUse"/>
    <linearGradient inkscape:collect="always" xlink:href="#linearGradient3242" id="linearGradient3252" gradientUnits="userSpaceOnUse" x1="93.994949" y1="460.91787" x2="646.44687" y2="460.91787"/>
    <linearGradient inkscape:collect="always" xlink:href="#linearGradient3242" id="linearGradient3256" gradientUnits="userSpaceOnUse" x1="93.994949" y1="460.91787" x2="646.44687" y2="460.91787"/>
    <linearGradient inkscape:collect="always" xlink:href="#linearGradient3242" id="linearGradient3260" gradientUnits="userSpaceOnUse" x1="93.994949" y1="460.91787" x2="646.44687" y2="460.91787"/>
    <linearGradient inkscape:collect="always" xlink:href="#linearGradient3242" id="linearGradient3264" gradientUnits="userSpaceOnUse" x1="93.994949" y1="460.91787" x2="646.44687" y2="460.91787"/>
    <linearGradient inkscape:collect="always" xlink:href="#linearGradient3242" id="linearGradient3268" gradientUnits="userSpaceOnUse" x1="93.994949" y1="460.91787" x2="646.44687" y2="460.91787"/>
    <linearGradient inkscape:collect="always" xlink:href="#linearGradient3242" id="linearGradient3272" gradientUnits="userSpaceOnUse" x1="93.994949" y1="460.91787" x2="646.44687" y2="460.91787"/>
    <linearGradient inkscape:collect="always" xlink:href="#linearGradient3242" id="linearGradient3276" gradientUnits="userSpaceOnUse" x1="93.994949" y1="460.91787" x2="646.44687" y2="460.91787"/>
    <linearGradient inkscape:collect="always" xlink:href="#linearGradient3242" id="linearGradient3280" gradientUnits="userSpaceOnUse" x1="174.80716" y1="315.4559" x2="564.62457" y2="589.20728"/>
    <linearGradient inkscape:collect="always" xlink:href="#linearGradient3292" id="linearGradient3298" x1="468.76154" y1="524.55748" x2="645.43671" y2="524.55748" gradientUnits="userSpaceOnUse"/>
    <linearGradient inkscape:collect="always" xlink:href="#linearGradient3292" id="linearGradient3302" gradientUnits="userSpaceOnUse" x1="468.76154" y1="524.55748" x2="645.43671" y2="524.55748"/>
    <linearGradient inkscape:collect="always" xlink:href="#linearGradient3292" id="linearGradient3306" gradientUnits="userSpaceOnUse" x1="468.76154" y1="524.55748" x2="645.43671" y2="524.55748"/>
    <linearGradient inkscape:collect="always" xlink:href="#linearGradient3292" id="linearGradient3310" gradientUnits="userSpaceOnUse" x1="468.76154" y1="524.55748" x2="645.43671" y2="524.55748"/>
    <linearGradient inkscape:collect="always" xlink:href="#linearGradient3292" id="linearGradient3314" gradientUnits="userSpaceOnUse" x1="430.37573" y1="344.75034" x2="645.43671" y2="590.21741"/>
    <radialGradient inkscape:collect="always" xlink:href="#linearGradient3330" id="radialGradient3336" cx="322.85715" cy="729.50507" fx="322.85715" fy="729.50507" r="255.71428" gradientTransform="matrix(1,0,0,0.1843575,0,595.0153)" gradientUnits="userSpaceOnUse"/>
    <radialGradient inkscape:collect="always" xlink:href="#linearGradient3404" id="radialGradient3410" cx="367.14285" cy="560.2193" fx="367.14285" fy="560.2193" r="275.71428" gradientTransform="matrix(2.3517144,-6.691555e-2,3.4279078e-2,1.2047215,-504.04749,-51.549928)" gradientUnits="userSpaceOnUse"/>
    <filter inkscape:collect="always" id="filter3488" x="-0.078509845" width="1.1570197" y="-0.18591901" height="1.371838">
      <feGaussianBlur inkscape:collect="always" stdDeviation="18.038572" id="feGaussianBlur3490"/>
    </filter>
    <radialGradient inkscape:collect="always" xlink:href="#linearGradient3404" id="radialGradient3509" gradientUnits="userSpaceOnUse" gradientTransform="matrix(2.3517144,-6.691555e-2,3.4279078e-2,1.2047215,-504.04749,-51.549928)" cx="367.14285" cy="560.2193" fx="367.14285" fy="560.2193" r="275.71428"/>
    <linearGradient inkscape:collect="always" xlink:href="#linearGradient3204" id="linearGradient3511" gradientUnits="userSpaceOnUse" x1="42.938942" y1="461.53259" x2="364.84491" y2="712.05042"/>
    <linearGradient inkscape:collect="always" xlink:href="#linearGradient3242" id="linearGradient3513" gradientUnits="userSpaceOnUse" x1="174.80716" y1="315.4559" x2="564.62457" y2="589.20728"/>
    <linearGradient inkscape:collect="always" xlink:href="#linearGradient3292" id="linearGradient3515" gradientUnits="userSpaceOnUse" x1="430.37573" y1="344.75034" x2="645.43671" y2="590.21741"/>
    <linearGradient inkscape:collect="always" xlink:href="#linearGradient3292" id="linearGradient3524" gradientUnits="userSpaceOnUse" x1="430.37573" y1="344.75034" x2="645.43671" y2="590.21741"/>
    <linearGradient inkscape:collect="always" xlink:href="#linearGradient3242" id="linearGradient3527" gradientUnits="userSpaceOnUse" x1="174.80716" y1="315.4559" x2="564.62457" y2="589.20728"/>
    <linearGradient inkscape:collect="always" xlink:href="#linearGradient3204" id="linearGradient3530" gradientUnits="userSpaceOnUse" x1="42.938942" y1="461.53259" x2="364.84491" y2="712.05042"/>
  </defs>
  <sodipodi:namedview id="base" pagecolor="#ffffff" bordercolor="#666666" borderopacity="1.0" inkscape:pageopacity="0.0" inkscape:pageshadow="2" inkscape:zoom="0.7" inkscape:cx="361.41058" inkscape:cy="500.71291" inkscape:document-units="px" inkscape:current-layer="layer1" showgrid="false" showguides="true" inkscape:guide-bbox="true">
    <sodipodi:guide orientation="0,1" position="-285.71429,845.71429" id="guide2387"/>
    <sodipodi:guide orientation="0,1" position="-434.28571,117.14286" id="guide2389"/>
    <sodipodi:guide orientation="1,0" position="740,-45.714286" id="guide2391"/>
    <sodipodi:guide orientation="1,0" position="11.428571,-100" id="guide2393"/>
    <sodipodi:guide orientation="0,1" position="34.285714,508.57143" id="guide3169"/>
  </sodipodi:namedview>
  <metadata id="metadata7">
    <rdf:RDF>
      <cc:Work rdf:about="">
        <dc:format>image/svg+xml</dc:format>
        <dc:type rdf:resource="http://purl.org/dc/dcmitype/StillImage"/>
        <dc:title>wlan access point</dc:title>
        <dc:date>July 2010</dc:date>
        <dc:creator>
          <cc:Agent>
            <dc:title>Franziska Sponsel</dc:title>
          </cc:Agent>
        </dc:creator>
        <dc:rights>
          <cc:Agent>
            <dc:title>Franziska Sponsel</dc:title>
          </cc:Agent>
        </dc:rights>
        <dc:publisher>
          <cc:Agent>
            <dc:title>RRZE</dc:title>
          </cc:Agent>
        </dc:publisher>
        <dc:subject>
          <rdf:Bag>
            <rdf:li>wlan</rdf:li>
            <rdf:li>wireless lan</rdf:li>
            <rdf:li>access point</rdf:li>
            <rdf:li>access</rdf:li>
            <rdf:li>wlan access point</rdf:li>
          </rdf:Bag>
        </dc:subject>
        <dc:contributor>
          <cc:Agent>
            <dc:title>Beate Kaspar, Hendrik Eggers</dc:title>
          </cc:Agent>
        </dc:contributor>
        <cc:license rdf:resource="http://creativecommons.org/licenses/by-sa/3.0/"/>
      </cc:Work>
      <cc:License rdf:about="http://creativecommons.org/licenses/by-sa/3.0/">
        <cc:permits rdf:resource="http://creativecommons.org/ns#Reproduction"/>
        <cc:permits rdf:resource="http://creativecommons.org/ns#Distribution"/>
        <cc:requires rdf:resource="http://creativecommons.org/ns#Notice"/>
        <cc:requires rdf:resource="http://creativecommons.org/ns#Attribution"/>
        <cc:permits rdf:resource="http://creativecommons.org/ns#DerivativeWorks"/>
        <cc:requires rdf:resource="http://creativecommons.org/ns#ShareAlike"/>
      </cc:License>
    </rdf:RDF>
  </metadata>
  <g inkscape:label="Ebene 1" inkscape:groupmode="layer" id="layer1">
    <g id="g3547">
      <path transform="matrix(1.0958549,0,0,1.1656442,-44.145077,-128.47191)" id="path3338" d="M 102.85714,709.50504 L 317.14286,482.36218 L 654.28571,545.21933 L 480,715.21933 L 102.85714,709.50504 z" style="opacity:0.96439173;fill:url(#radialGradient3509);fill-opacity:1;fill-rule:evenodd;stroke:none;stroke-width:1px;stroke-linecap:butt;stroke-linejoin:miter;stroke-opacity:1;filter:url(#filter3488)"/>
      <rect y="206.6479" x="8.5714283" height="731.42859" width="731.42859" id="rect2385" style="opacity:0.72997036;fill:none;fill-opacity:1;stroke:none;stroke-width:8;stroke-linecap:round;stroke-linejoin:miter;stroke-miterlimit:4;stroke-dasharray:none;stroke-opacity:1"/>
      <path style="opacity:0.72997036;fill:#000000;fill-opacity:1;stroke:#000000;stroke-width:8.5871172;stroke-linecap:round;stroke-linejoin:miter;stroke-miterlimit:4;stroke-opacity:1" d="M 263.10144,378.41931 L 639.65717,378.41931 L 639.65717,510.30065 L 263.10144,510.30065 L 263.10144,378.41931 z" id="path3176"/>
      <path sodipodi:nodetypes="cccccc" id="path3178" d="M 97.857143,540.93361 L 257.14286,375.21933 L 641.42857,375.21933 L 641.42857,508.79075 L 475,675.93361 L 97.857143,540.93361 z" style="fill:#73d216;fill-rule:evenodd;stroke:#4e9a06;stroke-width:10;stroke-linecap:butt;stroke-linejoin:round;stroke-miterlimit:4;stroke-dasharray:none;stroke-opacity:1"/>
      <path id="rect3171" d="M 97.436419,544.08433 L 473.99215,544.08433 L 473.99215,675.96567 L 97.436419,675.96567 L 97.436419,544.08433 z" style="fill:#73d216;fill-opacity:1;stroke:#4e9a06;stroke-width:10;stroke-linecap:round;stroke-linejoin:round;stroke-miterlimit:4;stroke-dasharray:none;stroke-opacity:1"/>
      <path sodipodi:nodetypes="cc" id="path3180" d="M 474.28571,545.21933 L 637.85714,378.07646" style="fill:none;fill-rule:evenodd;stroke:#4e9a06;stroke-width:10;stroke-linecap:round;stroke-linejoin:miter;stroke-miterlimit:4;stroke-dasharray:none;stroke-opacity:1"/>
      <path id="path3182" d="M 107.4375,556.09375 C 107.4375,592.71875 107.4375,629.34375 107.4375,665.96875 C 226.29167,665.96875 345.14583,665.96875 464,665.96875 C 464,628.67708 464,591.38542 464,554.09375 C 345.14583,554.09375 226.29167,554.09375 107.4375,554.09375 L 107.4375,555.09375 L 107.4375,556.09375 z" style="opacity:0.4;fill:url(#linearGradient3530);fill-opacity:1;stroke:#ffffff;stroke-width:10;stroke-linecap:round;stroke-linejoin:miter;stroke-miterlimit:4;stroke-dasharray:none;stroke-opacity:1"/>
      <path sodipodi:nodetypes="ccccc" id="path3240" d="M 262.88515,384.54299 C 217.90598,430.87632 163.83545,487.31118 118.85628,533.64451 C 233.1167,535.54034 356.46848,531.88034 470.7289,533.77617 C 518.40598,484.93242 570.12368,434.06837 617.80076,385.22462 C 500.84243,385.8392 379.84348,383.92841 262.88515,384.54299 z" style="opacity:0.4;fill:url(#linearGradient3527);fill-opacity:1;fill-rule:evenodd;stroke:#ffffff;stroke-width:10;stroke-linecap:butt;stroke-linejoin:miter;stroke-miterlimit:4;stroke-dasharray:none;stroke-opacity:1"/>
      <path sodipodi:nodetypes="ccccc" id="path3282" d="M 484.01541,549.76541 C 484.59874,585.01541 483.42175,616.98985 484.00508,652.23985 C 533.65091,601.69818 581.27644,555.19713 630.92227,504.65546 C 630.6306,469.42629 631.85417,435.20728 631.5625,399.97811 C 581.625,450.49894 533.95291,499.24458 484.01541,549.76541 z" style="opacity:0.4;fill:url(#linearGradient3524);fill-opacity:1;fill-rule:evenodd;stroke:#ffffff;stroke-width:10;stroke-linecap:butt;stroke-linejoin:miter;stroke-miterlimit:4;stroke-dasharray:none;stroke-opacity:1"/>
      <path sodipodi:nodetypes="ccscccc" id="path3324" d="M 134.99575,604.73699 C 151.6009,651.82759 170.46397,658.43876 192.69124,604.73699 C 209.27043,571.42858 230.8513,566.92186 242.42877,603.0908 C 263.26165,668.17441 277.81649,634.96929 291.82493,604.73699 C 309.92757,561.72586 333.88934,578.87927 344.61736,602.99092 C 360.21344,645.09077 376.41325,651.64373 390.1345,605.31899 C 407.84695,567.53376 425.77695,574.27579 439.75131,601.44461" style="fill:none;fill-rule:evenodd;stroke:#ffffff;stroke-width:20;stroke-linecap:round;stroke-linejoin:round;stroke-miterlimit:4;stroke-dasharray:none;stroke-opacity:1"/>
      <path sodipodi:nodetypes="ccccccc" id="path3326" d="M 122.14286,637.36218 C 143.476,613.81296 159.97735,533.12201 192.14286,601.6479 C 200.58719,647.58234 213.20144,671.9722 244.28571,600.93361 C 268.93274,551.79093 282.66464,564.03704 292.14286,600.21932 C 306.93559,646.38507 322.68916,676.93715 345,600.93361 C 366.97429,543.34155 379.44071,573.22197 392.14286,600.93361 C 409.7766,642.16521 426.58372,667.69094 438.57143,601.6479" style="fill:none;fill-rule:evenodd;stroke:#ffffff;stroke-width:6;stroke-linecap:butt;stroke-linejoin:miter;stroke-miterlimit:4;stroke-dasharray:none;stroke-opacity:1"/>
      <path id="flowRoot3538" d="M 254.54871,412.35891 L 263.15101,412.35891 L 197.59712,500.54125 L 228.55687,500.54125 L 220.13346,511.87231 L 180.57143,511.87231 L 254.54871,412.35891 M 289.42633,412.35891 L 298.1138,412.35891 L 248.95431,496.47539 L 324.81497,412.35891 L 334.4819,412.35891 L 285.32241,496.47539 L 361.18308,412.35891 L 369.91312,412.35891 L 279.96623,511.87231 L 269.14949,511.87231 L 319.95107,425.48962 L 242.19281,511.87231 L 231.37605,511.87231 L 289.42633,412.35891 M 387.90377,425.62292 L 339.4201,475.14634 L 362.7996,475.14634 L 387.90377,425.62292 M 392.90935,412.35891 L 402.66145,412.35891 L 352.91537,511.87231 L 343.9724,511.87231 L 357.15818,486.34408 L 328.49808,486.34408 L 303.729,511.87231 L 294.65827,511.87231 L 392.90935,412.35891 M 436.51082,423.42336 L 408.71359,460.81588 L 419.53034,460.81588 C 423.53333,460.81592 427.83359,459.19401 432.4311,455.95019 C 437.02851,452.70644 441.55694,448.08516 446.0165,442.0863 C 450.4428,436.13201 452.76868,431.53293 452.99412,428.28906 C 453.21938,425.04533 451.33052,423.42346 447.32756,423.42336 L 436.51082,423.42336 M 436.13374,412.35891 L 455.55278,412.35891 C 462.67867,412.359 466.17574,414.89183 466.04408,419.9574 C 465.9736,424.97868 462.32134,432.35497 455.08722,442.0863 C 447.78686,451.90659 440.43918,459.32732 433.04417,464.3485 C 425.67741,469.36975 418.43105,471.88036 411.30514,471.88032 L 400.4884,471.88032 L 370.75874,511.87231 L 362.15645,511.87231 L 436.13374,412.35891 M 489.14663,423.42336 L 461.34939,460.81588 L 472.16615,460.81588 C 476.16914,460.81592 480.4694,459.19401 485.06691,455.95019 C 489.66432,452.70644 494.19275,448.08516 498.65228,442.0863 C 503.0786,436.13201 505.40449,431.53293 505.62992,428.28906 C 505.85518,425.04533 503.96633,423.42346 499.96337,423.42336 L 489.14663,423.42336 M 488.76954,412.35891 L 508.18859,412.35891 C 515.31446,412.359 518.81155,414.89183 518.67988,419.9574 C 518.60942,424.97868 514.95714,432.35497 507.72303,442.0863 C 500.42265,451.90659 493.07499,459.32732 485.67997,464.3485 C 478.31322,469.36975 471.06686,471.88036 463.94095,471.88032 L 453.1242,471.88032 L 423.39454,511.87231 L 414.79225,511.87231 L 488.76954,412.35891" style="font-size:64px;font-style:normal;font-weight:normal;fill:#ffffff;fill-opacity:1;stroke:#ffffff;stroke-width:3;stroke-linecap:butt;stroke-linejoin:miter;stroke-opacity:1;font-family:Bitstream Vera Sans;stroke-miterlimit:4;stroke-dasharray:none"/>
    </g>
  </g>
</svg>
