<?xml version="1.0" encoding="UTF-8" standalone="no"?>
<!-- Created with Sodipodi ("http://www.sodipodi.com/") -->

<svg
   xmlns:dc="http://purl.org/dc/elements/1.1/"
   xmlns:cc="http://creativecommons.org/ns#"
   xmlns:rdf="http://www.w3.org/1999/02/22-rdf-syntax-ns#"
   xmlns:svg="http://www.w3.org/2000/svg"
   xmlns="http://www.w3.org/2000/svg"
   xmlns:sodipodi="http://sodipodi.sourceforge.net/DTD/sodipodi-0.dtd"
   xmlns:inkscape="http://www.inkscape.org/namespaces/inkscape"
   xml:space="preserve"
   width="48"
   height="48"
   style="fill-rule:evenodd"
   viewBox="0 0 1763.84 2388.1532"
   id="svg614"
   sodipodi:version="0.34"
   sodipodi:docname="taurus.svg"
   version="1.1"
   inkscape:version="0.47 r22583"><metadata
     id="metadata8"><rdf:RDF><cc:Work
         rdf:about=""><dc:format>image/svg+xml</dc:format><dc:type
           rdf:resource="http://purl.org/dc/dcmitype/StillImage" /></cc:Work></rdf:RDF></metadata><sodipodi:namedview
     id="base"
     showgrid="false"
     inkscape:zoom="1.0042553"
     inkscape:cx="112.5"
     inkscape:cy="113.51687"
     inkscape:window-width="1052"
     inkscape:window-height="557"
     inkscape:window-x="1280"
     inkscape:window-y="23"
     inkscape:window-maximized="0"
     inkscape:current-layer="svg614" /><defs
     id="defs615"><inkscape:perspective
       sodipodi:type="inkscape:persp3d"
       inkscape:vp_x="0 : 117.5 : 1"
       inkscape:vp_y="0 : 1000 : 0"
       inkscape:vp_z="225 : 117.5 : 1"
       inkscape:persp3d-origin="112.5 : 78.333333 : 1"
       id="perspective10" /><style
       type="text/css"
       id="style616">
    .fil0 {fill:#000000}
   </style></defs><g
     id="Layer 1"
     transform="matrix(0.97118877,0,0,0.92743813,-1792.2483,-2696.0626)"><path
       class="fil0"
       d="m 2373,3861 c -89,-35 -160,-80 -216,-134 -55,-54 -116,-141 -183,-262 l -80,-144 c -98,-176 -210,-264 -334,-264 l -36,0 0,-150 99,0 c 176,0 336,124 479,371 l 109,192 c 74,126 150,214 230,264 80,51 184,76 313,76 129,0 233,-25 313,-76 80,-50 156,-138 229,-264 l 111,-192 c 142,-247 302,-371 477,-371 l 99,0 0,150 -35,0 c -125,0 -237,88 -335,264 l -80,144 c -67,121 -128,208 -183,262 -56,54 -128,99 -216,134 154,85 272,195 356,328 84,133 125,280 125,438 0,230 -85,430 -256,600 -172,170 -373,255 -605,255 -232,0 -433,-85 -605,-255 -172,-170 -258,-370 -258,-600 0,-158 42,-305 126,-438 84,-133 202,-243 356,-328 z m 381,1420 c 182,0 337,-63 467,-191 129,-126 194,-279 194,-458 0,-182 -65,-337 -193,-464 -128,-128 -284,-191 -468,-191 -183,0 -339,63 -469,191 -128,127 -193,282 -193,464 0,179 65,332 194,458 129,128 285,191 468,191 z"
       id="path618"
       style="fill:#000000" /></g></svg>