<?xml version="1.0" encoding="UTF-8" standalone="no"?>
<!-- Created with Inkscape (http://www.inkscape.org/) -->
<svg xmlns:dc="http://purl.org/dc/elements/1.1/" xmlns:cc="http://creativecommons.org/ns#" xmlns:rdf="http://www.w3.org/1999/02/22-rdf-syntax-ns#" xmlns:svg="http://www.w3.org/2000/svg" xmlns="http://www.w3.org/2000/svg" xmlns:xlink="http://www.w3.org/1999/xlink" xmlns:sodipodi="http://sodipodi.sourceforge.net/DTD/sodipodi-0.dtd" xmlns:inkscape="http://www.inkscape.org/namespaces/inkscape" width="210mm" height="297mm" id="svg2" version="1.1" inkscape:version="0.46" sodipodi:version="0.32" inkscape:output_extension="org.inkscape.output.svg.inkscape">
  <title id="title3802">index</title>
  <defs id="defs4">
    <linearGradient inkscape:collect="always" id="linearGradient3733">
      <stop style="stop-color:#000000;stop-opacity:1;" offset="0" id="stop3735"/>
      <stop style="stop-color:#000000;stop-opacity:0;" offset="1" id="stop3737"/>
    </linearGradient>
    <linearGradient inkscape:collect="always" id="linearGradient3686">
      <stop style="stop-color:#ffffff;stop-opacity:1;" offset="0" id="stop3688"/>
      <stop style="stop-color:#ffffff;stop-opacity:0;" offset="1" id="stop3690"/>
    </linearGradient>
    <linearGradient inkscape:collect="always" id="linearGradient3635">
      <stop style="stop-color:#ffffff;stop-opacity:1;" offset="0" id="stop3637"/>
      <stop style="stop-color:#ffffff;stop-opacity:0;" offset="1" id="stop3639"/>
    </linearGradient>
    <inkscape:perspective sodipodi:type="inkscape:persp3d" inkscape:vp_x="0 : 526.18109 : 1" inkscape:vp_y="0 : 1000 : 0" inkscape:vp_z="744.09448 : 526.18109 : 1" inkscape:persp3d-origin="372.04724 : 350.78739 : 1" id="perspective10"/>
    <linearGradient inkscape:collect="always" xlink:href="#linearGradient3635" id="linearGradient3641" x1="-1138.4709" y1="-87.797882" x2="-1075.4252" y2="-16.013189" gradientUnits="userSpaceOnUse"/>
    <linearGradient inkscape:collect="always" xlink:href="#linearGradient3686" id="linearGradient3692" x1="-117.53447" y1="298.75708" x2="-92.902901" y2="348.11636" gradientUnits="userSpaceOnUse"/>
    <linearGradient inkscape:collect="always" xlink:href="#linearGradient3686" id="linearGradient3726" gradientUnits="userSpaceOnUse" x1="-117.53447" y1="298.75708" x2="-92.902901" y2="348.11636"/>
    <linearGradient inkscape:collect="always" xlink:href="#linearGradient3635" id="linearGradient3728" gradientUnits="userSpaceOnUse" x1="-1138.4709" y1="-87.797882" x2="-1075.4252" y2="-16.013189"/>
    <radialGradient inkscape:collect="always" xlink:href="#linearGradient3733" id="radialGradient3739" cx="-539.42145" cy="431.11838" fx="-539.42145" fy="431.11838" r="157.5838" gradientTransform="matrix(0.73717949,0,0,0.2884615,517.85857,648.18888)" gradientUnits="userSpaceOnUse"/>
    <radialGradient inkscape:collect="always" xlink:href="#linearGradient3733" id="radialGradient3748" gradientUnits="userSpaceOnUse" gradientTransform="matrix(0.73717949,0,0,0.2884615,517.85857,648.18888)" cx="-539.42145" cy="431.11838" fx="-539.42145" fy="431.11838" r="157.5838"/>
    <linearGradient inkscape:collect="always" xlink:href="#linearGradient3686" id="linearGradient3750" gradientUnits="userSpaceOnUse" x1="-117.53447" y1="298.75708" x2="-92.902901" y2="348.11636"/>
    <radialGradient inkscape:collect="always" xlink:href="#linearGradient3733" id="radialGradient3757" gradientUnits="userSpaceOnUse" gradientTransform="matrix(0.73717949,0,0,0.2884615,517.85857,648.18888)" cx="-539.42145" cy="431.11838" fx="-539.42145" fy="431.11838" r="157.5838"/>
    <radialGradient inkscape:collect="always" xlink:href="#linearGradient3733" id="radialGradient3761" gradientUnits="userSpaceOnUse" gradientTransform="matrix(1.6089743,0,0,0.2884615,1289.1489,535.05179)" cx="-539.42145" cy="431.11838" fx="-539.42145" fy="431.11838" r="157.5838"/>
    <filter inkscape:collect="always" id="filter3763">
      <feGaussianBlur inkscape:collect="always" stdDeviation="0.85666642" id="feGaussianBlur3765"/>
    </filter>
  </defs>
  <sodipodi:namedview id="base" pagecolor="#ffffff" bordercolor="#666666" borderopacity="1.0" inkscape:pageopacity="0.0" inkscape:pageshadow="2" inkscape:zoom="0.49497475" inkscape:cx="-604.90678" inkscape:cy="407.4175" inkscape:document-units="px" inkscape:current-layer="layer1" showgrid="false" showguides="true" inkscape:guide-bbox="true" inkscape:snap-grids="false" inkscape:snap-to-guides="false" inkscape:snap-global="false" inkscape:window-width="1280" inkscape:window-height="800" inkscape:window-x="0" inkscape:window-y="0" inkscape:window-maximized="1">
    <sodipodi:guide orientation="0,1" position="-548.57143,982.85714" id="guide3590"/>
    <sodipodi:guide orientation="0,1" position="-551.42857,231.42857" id="guide3592"/>
    <sodipodi:guide orientation="1,0" position="748.57143,54.285714" id="guide3594"/>
    <sodipodi:guide orientation="1,0" position="2.8571429,105.71429" id="guide3596"/>
  </sodipodi:namedview>
  <metadata id="metadata7">
    <rdf:RDF>
      <cc:Work rdf:about="">
        <dc:format>image/svg+xml</dc:format>
        <dc:type rdf:resource="http://purl.org/dc/dcmitype/StillImage"/>
        <dc:title>index</dc:title>
        <dc:date>April 2010</dc:date>
        <dc:creator>
          <cc:Agent>
            <dc:title>Franziska Sponsel</dc:title>
          </cc:Agent>
        </dc:creator>
        <dc:rights>
          <cc:Agent>
            <dc:title>Franziska Sponsel</dc:title>
          </cc:Agent>
        </dc:rights>
        <dc:publisher>
          <cc:Agent>
            <dc:title>RRZE</dc:title>
          </cc:Agent>
        </dc:publisher>
        <dc:subject>
          <rdf:Bag>
            <rdf:li>index</rdf:li>
            <rdf:li>list</rdf:li>
          </rdf:Bag>
        </dc:subject>
        <dc:contributor>
          <cc:Agent>
            <dc:title>Beate Kaspar</dc:title>
          </cc:Agent>
        </dc:contributor>
        <cc:license rdf:resource="http://creativecommons.org/licenses/by-sa/3.0/"/>
      </cc:Work>
      <cc:License rdf:about="http://creativecommons.org/licenses/by-sa/3.0/">
        <cc:permits rdf:resource="http://creativecommons.org/ns#Reproduction"/>
        <cc:permits rdf:resource="http://creativecommons.org/ns#Distribution"/>
        <cc:requires rdf:resource="http://creativecommons.org/ns#Notice"/>
        <cc:requires rdf:resource="http://creativecommons.org/ns#Attribution"/>
        <cc:permits rdf:resource="http://creativecommons.org/ns#DerivativeWorks"/>
        <cc:requires rdf:resource="http://creativecommons.org/ns#ShareAlike"/>
      </cc:License>
    </rdf:RDF>
  </metadata>
  <g inkscape:label="Ebene 1" inkscape:groupmode="layer" id="layer1">
    <g id="g3784">
      <rect y="69.505043" x="2.8571429" height="751.42859" width="751.42859" id="rect2816" style="color:#000000;fill:none;fill-opacity:1;fill-rule:evenodd;stroke:none;stroke-width:1px;stroke-linecap:butt;stroke-linejoin:miter;stroke-miterlimit:4;stroke-opacity:1;stroke-dasharray:none;stroke-dashoffset:0;marker:none;visibility:visible;display:inline;overflow:visible;enable-background:accumulate"/>
      <g id="g3774">
        <path id="path3759" d="m 674.78189,659.41285 c 0,25.10514 -113.51743,45.45686 -253.54828,45.45686 -140.03086,0 -253.54829,-20.35172 -253.54829,-45.45686 0,-25.10513 113.51743,-45.45686 253.54829,-45.45686 140.03085,0 253.54828,20.35173 253.54828,45.45686 z" style="opacity:0.78136202;fill:url(#radialGradient3761);fill-opacity:1;fill-rule:evenodd;stroke:none"/>
        <g id="g3718" transform="translate(32.324881,-20.203051)">
          <g id="g3714">
            <g transform="matrix(5.1742028,0,0,5.1742028,6165.9745,659.29218)" style="font-size:144px;font-style:normal;font-weight:normal;fill:#2e3436;fill-opacity:1;stroke:#000000;stroke-width:3.46790743;stroke-linejoin:round;stroke-miterlimit:4;stroke-opacity:1;stroke-dasharray:none;font-family:Forte;-inkscape-font-specification:Forte" id="flowRoot3598">
              <path d="m -1148.7969,-71.807121 21.7266,0 5.9062,-26.929687 13.2188,0 -5.9063,26.929687 24.961,0 5.7656,-26.929687 13.3594,0 -5.7657,26.929687 11.8125,0 0,13.429688 -14.414,0 -4.4297,21.304687 18.8437,0 0,13.21875 -21.3046,0 -5.9063,26.6484376 -13.2187,0 5.7656,-26.6484376 -25.2422,0 -5.4844,26.6484376 -13.3594,0 5.625,-26.6484376 -11.9531,0 0,-13.21875 14.6953,0 4.4297,-21.304687 -19.125,0 z m 32.4141,13.429688 -4.3594,21.164062 24.8906,0 4.5,-21.164062 z" id="path3607" style="fill:#2e3436;stroke:#000000;stroke-width:3.46790743;stroke-linejoin:round;stroke-miterlimit:4;stroke-opacity:1;stroke-dasharray:none"/>
            </g>
          </g>
          <g transform="matrix(5.1742028,0,0,5.1742028,6165.9745,659.29218)" style="font-size:144px;font-style:normal;font-weight:normal;fill:#2e3436;fill-opacity:1;stroke:#ffffff;stroke-width:1.93266487;stroke-linejoin:miter;stroke-miterlimit:4;stroke-opacity:1;stroke-dasharray:none;font-family:Forte;-inkscape-font-specification:Forte" id="g3623">
            <path sodipodi:nodetypes="cccccccccccccccccccccccccccccccccc" d="m -1146.312,-69.598361 21.1744,0.138047 5.6301,-27.205782 8.8013,0 -6.3205,27.34383 29.9307,0 6.0417,-27.205782 8.2517,0.138047 -5.6277,26.515545 12.3647,0.414142 -0.1381,8.736074 -13.1715,0 -6.3624,26.274396 19.672,-0.138047 0.2761,8.387088 -21.0285,-0.138048 -6.0444,26.92453274 -8.387,0 5.4895,-26.64843774 -29.7978,-0.138047 -5.4844,26.51038976 -8.5277,0.13804749 5.625,-26.64843725 -12.5053,-0.138048 0,-8.387088 14.2812,0.276095 5.534,-25.998301 -19.8152,-0.55219 0.1381,-8.598026 z m 28.1346,8.736073 -5.3257,25.719629 29.17,0.276095 6.0185,-25.857676 -29.8628,-0.138048 z" id="path3625" style="opacity:0.70707068;fill:url(#linearGradient3728);fill-opacity:1;stroke:#ffffff;stroke-width:1.15959895;stroke-linejoin:miter;stroke-miterlimit:4;stroke-opacity:1;stroke-dasharray:none"/>
            <path style="opacity:0.70707068;fill:none;stroke:#ffffff;stroke-width:1.15959895;stroke-linejoin:miter;stroke-miterlimit:4;stroke-opacity:1;stroke-dasharray:none" id="path3671" d="m -1146.312,-69.598361 21.1744,0.138047 5.6301,-27.205782 8.8013,0 -6.3205,27.34383 29.9307,0 6.0417,-27.205782 8.2517,0.138047 -5.6277,26.515545 12.3647,0.414142 -0.1381,8.736074 -13.1715,0 -6.3624,26.274396 19.672,-0.138047 0.2761,8.387088 -21.0285,-0.138048 -6.0444,26.92453274 -8.387,0 5.4895,-26.64843774 -29.7978,-0.138047 -5.4844,26.51038976 -8.5277,0.13804749 5.625,-26.64843725 -12.5053,-0.138048 0,-8.387088 14.2812,0.276095 5.534,-25.998301 -19.8152,-0.55219 0.1381,-8.598026 z m 28.1346,8.736073 -5.3257,25.719629 29.17,0.276095 6.0185,-25.857676 -29.8628,-0.138048 z" sodipodi:nodetypes="cccccccccccccccccccccccccccccccccc"/>
          </g>
        </g>
      </g>
      <g id="g3767">
        <path style="fill:url(#radialGradient3757);fill-opacity:1;fill-rule:evenodd;stroke:none;opacity:0.94623656000000000;filter:url(#filter3763)" d="m 236.37569,772.54994 c 0,25.10514 -52.00998,45.45686 -116.16754,45.45686 -64.157555,0 -116.1675363,-20.35172 -116.1675363,-45.45686 0,-25.10513 52.0099813,-45.45686 116.1675363,-45.45686 64.15756,0 116.16754,20.35173 116.16754,45.45686 z" id="path3730"/>
        <g style="font-size:144px;font-style:normal;font-weight:normal;fill:#000000;fill-opacity:1;stroke:none;font-family:ChopinScript;-inkscape-font-specification:ChopinScript" id="flowRoot3673" transform="matrix(5.2515339,-1.4536916,1.4536916,5.2515339,191.6042,-1332.9883)">
          <g id="g3710">
            <path style="fill:#3465a4;stroke:#204a87;stroke-width:1.78543913;stroke-miterlimit:4;stroke-dasharray:none" sodipodi:nodetypes="csssssssccscccssssccccc" id="path3682" d="m -88.644531,305.93136 c -2.9e-5,2.10943 -0.719999,4.0042 -2.159912,5.68432 -1.439967,1.68023 -3.072533,2.52032 -4.897705,2.52027 -1.535177,5e-5 -2.83083,-0.55146 -3.886963,-1.65454 -1.056169,-1.10298 -1.584249,-2.42353 -1.584229,-3.96167 -2e-5,-2.01557 0.74412,-3.76752 2.232422,-5.25586 1.488262,-1.48822 3.191873,-2.23236 5.11084,-2.23242 1.441381,6e-5 2.66599,0.48053 3.673828,1.4414 1.007784,0.961 1.51169,2.11383 1.511719,3.4585 z m 2.670511,45.82629 c -0.801686,2.54684 -5.436288,6.3558 -8.528264,8.83105 -11.363086,9.09662 -30.693426,14.41962 -32.299966,-1.23742 1e-5,-4.31835 1.7754,-9.78953 5.32618,-16.41357 2.01562,-3.55369 4.99218,-8.88132 8.92968,-15.98291 1.15136,-2.01559 2.44629,-3.0234 3.88477,-3.02344 1.34472,4e-5 2.47338,0.21537 3.38599,0.64599 0.91258,0.43071 1.41575,0.64604 1.50952,0.646 0.38377,4e-5 1.2722,-0.69576 2.66528,-2.0874 1.393049,-1.39156 2.329816,-2.1357 2.810303,-2.23242 l -18.290043,34.84863 c -1.69115,2.07605 -4.61548,8.19363 -0.59231,9.08114 12.35725,3.6511 22.680462,-5.20838 30.829085,-13.72301 l 0.369775,0.64736 z"/>
            <path d="m -89.978537,305.97796 c -0.02318,1.66193 -0.60234,3.58657 -1.712739,4.66448 -1.531869,1.48704 -2.850382,2.38538 -4.265615,2.20585 -1.58752,-0.20139 -2.265463,-0.61929 -2.856257,-1.35661 -0.609415,-0.76056 -1.13611,-2.01435 -1.014139,-3.54764 0.07677,-0.9651 0.837337,-2.66638 1.726926,-3.5853 1.463911,-1.51218 2.801048,-2.20091 4.156961,-2.16674 1.056757,0.0266 1.851843,0.41097 2.635082,1.06251 1.016961,0.84597 1.235244,1.72019 1.329781,2.72345 z m 3.194896,46.07541 c -1.5717,2.40721 -5.326907,6.18246 -8.614474,8.39132 -13.214045,8.87831 -29.811275,11.88501 -30.263145,-1.83507 1e-5,-4.31835 1.95961,-8.57707 5.51039,-15.20111 2.01562,-3.55369 4.59556,-8.57525 8.53306,-15.67684 1.15136,-2.01559 1.78741,-2.52109 3.22589,-2.52113 1.34472,4e-5 1.85587,0.20228 2.72549,0.71416 0.57117,0.3362 1.41608,0.57261 1.71469,0.62928 0.37705,0.0715 0.28584,0.45844 1.67892,-0.9332 -2.03363,3.74651 -11.99319,23.07935 -16.09409,30.62088 -1.8147,2.52413 -3.64698,8.72015 0.46809,9.7118 11.11965,2.27931 21.414727,-3.15492 29.707239,-11.92378 l 1.40794,-1.97631 z" id="path3684" sodipodi:nodetypes="csssssssccscccsssccccc" style="opacity:0.65319866;fill:url(#linearGradient3750);fill-opacity:1;stroke:#ffffff;stroke-width:0.79352856;stroke-miterlimit:4;stroke-opacity:1;stroke-dasharray:none"/>
          </g>
        </g>
      </g>
    </g>
  </g>
</svg>
