<?xml version="1.0" encoding="UTF-8" standalone="no"?>
<!-- Created with Inkscape (http://www.inkscape.org/) -->
<svg xmlns:dc="http://purl.org/dc/elements/1.1/" xmlns:cc="http://creativecommons.org/ns#" xmlns:rdf="http://www.w3.org/1999/02/22-rdf-syntax-ns#" xmlns:svg="http://www.w3.org/2000/svg" xmlns="http://www.w3.org/2000/svg" xmlns:xlink="http://www.w3.org/1999/xlink" xmlns:sodipodi="http://sodipodi.sourceforge.net/DTD/sodipodi-0.dtd" xmlns:inkscape="http://www.inkscape.org/namespaces/inkscape" width="210mm" height="297mm" id="svg2" version="1.1" inkscape:version="0.47 r22583">
  <title id="title3701">note</title>
  <defs id="defs4">
    <linearGradient inkscape:collect="always" id="linearGradient3673">
      <stop style="stop-color:#000000;stop-opacity:1;" offset="0" id="stop3675"/>
      <stop style="stop-color:#000000;stop-opacity:0;" offset="1" id="stop3677"/>
    </linearGradient>
    <linearGradient inkscape:collect="always" id="linearGradient3639">
      <stop style="stop-color:#ffffff;stop-opacity:1;" offset="0" id="stop3641"/>
      <stop style="stop-color:#ffffff;stop-opacity:0;" offset="1" id="stop3643"/>
    </linearGradient>
    <inkscape:perspective sodipodi:type="inkscape:persp3d" inkscape:vp_x="0 : 526.18109 : 1" inkscape:vp_y="0 : 1000 : 0" inkscape:vp_z="744.09448 : 526.18109 : 1" inkscape:persp3d-origin="372.04724 : 350.78739 : 1" id="perspective10"/>
    <radialGradient inkscape:collect="always" xlink:href="#linearGradient3639" id="radialGradient3645" cx="225.84628" cy="630.30914" fx="225.84628" fy="630.30914" r="266.9534" gradientTransform="matrix(0.84100005,0.01828779,-0.01372882,0.63134684,44.562947,287.28151)" gradientUnits="userSpaceOnUse"/>
    <radialGradient inkscape:collect="always" xlink:href="#linearGradient3639" id="radialGradient3649" gradientUnits="userSpaceOnUse" gradientTransform="matrix(0.84100005,0.01828779,-0.01372882,0.63134684,44.562947,287.28151)" cx="225.84628" cy="630.30914" fx="225.84628" fy="630.30914" r="266.9534"/>
    <radialGradient inkscape:collect="always" xlink:href="#linearGradient3639" id="radialGradient3653" gradientUnits="userSpaceOnUse" gradientTransform="matrix(0.84100005,0.01828779,-0.01372882,0.63134684,44.562947,287.28151)" cx="225.84628" cy="630.30914" fx="225.84628" fy="630.30914" r="266.9534"/>
    <radialGradient inkscape:collect="always" xlink:href="#linearGradient3639" id="radialGradient3657" gradientUnits="userSpaceOnUse" gradientTransform="matrix(0.84100005,0.01828779,-0.01372882,0.63134684,44.562947,287.28151)" cx="225.84628" cy="630.30914" fx="225.84628" fy="630.30914" r="266.9534"/>
    <radialGradient inkscape:collect="always" xlink:href="#linearGradient3639" id="radialGradient3661" gradientUnits="userSpaceOnUse" gradientTransform="matrix(0.84100005,0.01828779,-0.01372882,0.63134684,44.562947,287.28151)" cx="225.84628" cy="630.30914" fx="225.84628" fy="630.30914" r="266.9534"/>
    <radialGradient inkscape:collect="always" xlink:href="#linearGradient3639" id="radialGradient3668" gradientUnits="userSpaceOnUse" gradientTransform="matrix(0.84100005,0.01828779,-0.01372882,0.63134684,44.562947,287.28151)" cx="225.84628" cy="630.30914" fx="225.84628" fy="630.30914" r="266.9534"/>
    <radialGradient inkscape:collect="always" xlink:href="#linearGradient3673" id="radialGradient3679" cx="-17.172595" cy="401.82394" fx="-17.172595" fy="401.82394" r="229.80462" gradientTransform="matrix(1,0,0,0.36262332,0,256.11321)" gradientUnits="userSpaceOnUse"/>
    <filter inkscape:collect="always" id="filter3689" x="-0.037987912" width="1.0759758" y="-0.10516165" height="1.2103233">
      <feGaussianBlur inkscape:collect="always" stdDeviation="7.2590033" id="feGaussianBlur3691"/>
    </filter>
  </defs>
  <sodipodi:namedview id="base" pagecolor="#ffffff" bordercolor="#666666" borderopacity="1.0" inkscape:pageopacity="0.0" inkscape:pageshadow="2" inkscape:zoom="0.49497475" inkscape:cx="230.19813" inkscape:cy="589.98557" inkscape:document-units="px" inkscape:current-layer="layer1" showgrid="false" showguides="true" inkscape:guide-bbox="true" inkscape:snap-to-guides="false" inkscape:snap-grids="false" inkscape:snap-nodes="false" inkscape:snap-global="false" inkscape:window-width="1280" inkscape:window-height="750" inkscape:window-x="-8" inkscape:window-y="-8" inkscape:window-maximized="1">
    <sodipodi:guide orientation="0,1" position="-448.57143,962.85714" id="guide3592"/>
    <sodipodi:guide orientation="0,1" position="-565.71429,245.71429" id="guide3594"/>
    <sodipodi:guide orientation="1,0" position="17.142857,-62.857143" id="guide3596"/>
    <sodipodi:guide orientation="1,0" position="734.28571,37.142857" id="guide3598"/>
  </sodipodi:namedview>
  <metadata id="metadata7">
    <rdf:RDF>
      <cc:Work rdf:about="">
        <dc:format>image/svg+xml</dc:format>
        <dc:type rdf:resource="http://purl.org/dc/dcmitype/StillImage"/>
        <dc:title>note</dc:title>
        <dc:date>April 2010</dc:date>
        <dc:creator>
          <cc:Agent>
            <dc:title>Franziska Sponsel</dc:title>
          </cc:Agent>
        </dc:creator>
        <dc:rights>
          <cc:Agent>
            <dc:title>Franziska Sponsel</dc:title>
          </cc:Agent>
        </dc:rights>
        <dc:publisher>
          <cc:Agent>
            <dc:title>RRZE</dc:title>
          </cc:Agent>
        </dc:publisher>
        <dc:subject>
          <rdf:Bag>
            <rdf:li>note</rdf:li>
            <rdf:li>tune</rdf:li>
            <rdf:li>music</rdf:li>
            <rdf:li>audio</rdf:li>
          </rdf:Bag>
        </dc:subject>
        <dc:contributor>
          <cc:Agent>
            <dc:title>Beate Kaspar, Hendrik Eggers</dc:title>
          </cc:Agent>
        </dc:contributor>
        <cc:license rdf:resource="http://creativecommons.org/licenses/by-sa/3.0/"/>
      </cc:Work>
      <cc:License rdf:about="http://creativecommons.org/licenses/by-sa/3.0/">
        <cc:permits rdf:resource="http://creativecommons.org/ns#Reproduction"/>
        <cc:permits rdf:resource="http://creativecommons.org/ns#Distribution"/>
        <cc:requires rdf:resource="http://creativecommons.org/ns#Notice"/>
        <cc:requires rdf:resource="http://creativecommons.org/ns#Attribution"/>
        <cc:permits rdf:resource="http://creativecommons.org/ns#DerivativeWorks"/>
        <cc:requires rdf:resource="http://creativecommons.org/ns#ShareAlike"/>
      </cc:License>
    </rdf:RDF>
  </metadata>
  <g inkscape:label="Ebene 1" inkscape:groupmode="layer" id="layer1">
    <g id="g3693">
      <path id="rect2816" d="m 17.142857,89.505043 717.142883,0 0,717.142887 -717.142883,0 0,-717.142887 z" style="color:#000000;fill:none;stroke:none;stroke-width:1px;marker:none;visibility:visible;display:inline;overflow:visible;enable-background:accumulate"/>
      <path transform="matrix(1.1146383,0,0,0.71787424,375.72508,394.18731)" id="path3670" d="m 212.13203,401.82394 c 0,45.74714 -102.66318,82.83252 -229.304624,82.83252 -126.641446,0 -229.304626,-37.08538 -229.304626,-82.83252 0,-45.74713 102.66318,-82.83251 229.304626,-82.83251 126.641444,0 229.304624,37.08538 229.304624,82.83251 z" style="opacity:0.44444442;fill:url(#radialGradient3679);fill-opacity:1;fill-rule:evenodd;stroke:none;filter:url(#filter3689)"/>
      <g transform="matrix(0.76986668,0,0,0.76986668,117.58284,36.189011)" id="g3663">
        <path style="fill:#555753;fill-rule:evenodd;stroke:#2e3436;stroke-width:14;stroke-miterlimit:4;stroke-opacity:1;stroke-dasharray:none" d="m 407.15179,106.625 0,507.3125 c -33.25046,-32.31145 -84.32093,-53 -141.59375,-53 -100.20023,0 -181.406254,63.32866 -181.406254,141.4375 0,78.10885 81.206024,141.40625 181.406254,141.40625 100.20024,0 181.4375,-63.2974 181.4375,-141.40625 0,-5.67397 -0.44786,-11.28196 -1.28125,-16.78125 l 0,-482.625 c 9.52033,39.16067 85.38568,25.52752 114.71875,68.40625 34.94685,51.08489 1.64832,222.52484 -3.59375,243.5625 2.45499,-6.037 10.3844,-24.65688 35.03125,-80.71875 46.82039,-106.49793 30.7096,-233.63144 -47.125,-252.84375 -73.96717,-18.2577 -94.76446,-60.57628 -99.03125,-71.59375 l 0,-3.15625 -38.5625,0 z m 149.6875,408.3125 c -1.85384,4.55873 -0.6875,2.15625 -0.6875,2.15625 0.0594,0.0891 0.32169,-0.68817 0.6875,-2.15625 z" id="path3601"/>
        <path style="opacity:0.4;fill:none;stroke:#ffffff;stroke-width:7;stroke-miterlimit:4;stroke-opacity:1;stroke-dasharray:none" d="m 437,116.375 c -6.59735,0.66736 -13.23183,0.0664 -19.84375,0.21875 0.14237,165.55621 -0.33299,331.16278 0.25,496.6875 2.95995,8.29165 -9.24921,16.81846 -15.34375,9.78125 -46.27145,-45.66393 -116.54398,-60.24595 -179.1653,-48.04047 -48.54916,9.41681 -96.76138,37.50931 -118.86595,83.04047 -15.163182,32.27865 -12.673368,72.2909 7.40625,101.71875 27.821,43.13831 78.71561,66.76941 128.625,72.53125 56.63899,6.74704 117.46591,-8.82415 159.53125,-48.03125 25.06378,-23.7214 41.01361,-58.22899 36.91015,-93.12113 -1.70028,-49.77197 -0.22128,-99.58787 -0.77903,-149.37886 -0.0551,-114.4056 0.003,-228.89909 0.0876,-343.25001 1.49726,-8.10802 14.94817,-10.60531 17.75,-2.125 2.5768,11.48364 12.57457,19.80341 23.55496,22.77391 27.93929,10.97144 61.13655,14.08164 83.13254,36.50734 19.09363,18.86844 23.32736,47.21619 25.09461,72.87299 2.1674,35.93439 -0.46435,72.05333 -5.03211,107.65826 18.08379,-41.5745 29.57971,-86.60931 27.58791,-132.31133 -1.20008,-33.00266 -9.18004,-67.33124 -31.49416,-92.68867 C 563.97579,197.92551 546.71496,190.70326 529.16671,187.49544 491.42329,176.10381 454.76954,152.74389 437.5,116.3125 l -0.5,0.0625 z" id="path3619"/>
        <path style="opacity:0.6939057;fill:url(#radialGradient3668);fill-opacity:1;fill-rule:evenodd;stroke:none" d="m 438.1875,114.21875 c -7.49499,0.98493 -15.3901,0.10916 -23.03125,0.40625 0.0833,166.18786 -0.16669,332.45613 0.125,498.59375 2.85665,6.59471 -6.58582,14.2273 -11.8125,8.40625 C 359.86657,578.46388 294.72924,562.81942 234.94809,570.98886 186.24344,577.5849 137.65908,601.50027 110,643.28125 c -21.064401,31.64268 -23.997862,74.8593 -5.63293,108.29375 21.33564,40.64881 63.33841,66.4016 106.78918,77.425 60.11447,15.42727 127.94687,4.93539 177.71875,-32.875 29.92014,-22.78466 52.3267,-59.41196 49.96875,-98.375 -2.15518,-39.28125 -0.60629,-78.64601 -1.0848,-117.96875 -0.13535,-126.03651 -0.0136,-252.11436 0.0223,-378.125 -1.64762,-7.67075 10.79778,-12.37774 13.875,-4.6875 2.67662,10.46827 10.64405,19.42591 21.15625,22.625 27.97503,11.99889 61.39465,14.15858 84.3125,35.84375 18.93531,17.22092 23.73944,43.88654 25.8971,68.30891 3.07953,42.07705 -0.73594,84.48111 -6.5221,126.03484 17.54183,-38.5001 31.34925,-79.2309 33.08147,-121.80932 2.28167,-38.96402 -3.29184,-80.51209 -26.83706,-112.46679 -12.27263,-15.68983 -30.59,-25.92536 -50.23718,-29.09236 C 493.94398,175.29593 455.87491,151.75526 438.75,114.25 c -0.15144,-0.0477 -0.32942,-0.11743 -0.5625,-0.0312 z" id="path3637"/>
      </g>
    </g>
  </g>
</svg>
