<?xml version="1.0" encoding="UTF-8" standalone="no"?>
<!-- Created with Inkscape (http://www.inkscape.org/) -->
<svg xmlns:dc="http://purl.org/dc/elements/1.1/" xmlns:cc="http://creativecommons.org/ns#" xmlns:rdf="http://www.w3.org/1999/02/22-rdf-syntax-ns#" xmlns:svg="http://www.w3.org/2000/svg" xmlns="http://www.w3.org/2000/svg" xmlns:xlink="http://www.w3.org/1999/xlink" xmlns:sodipodi="http://sodipodi.sourceforge.net/DTD/sodipodi-0.dtd" xmlns:inkscape="http://www.inkscape.org/namespaces/inkscape" width="210mm" height="297mm" id="svg2" version="1.1" inkscape:version="0.47 r22583" inkscape:export-xdpi="88.603218" inkscape:export-ydpi="88.603218">
  <title id="title3859">information</title>
  <defs id="defs4">
    <linearGradient inkscape:collect="always" id="linearGradient3809">
      <stop style="stop-color:#000000;stop-opacity:1;" offset="0" id="stop3811"/>
      <stop style="stop-color:#000000;stop-opacity:0;" offset="1" id="stop3813"/>
    </linearGradient>
    <linearGradient inkscape:collect="always" id="linearGradient3719">
      <stop style="stop-color:#edd400;stop-opacity:1;" offset="0" id="stop3721"/>
      <stop style="stop-color:#edd400;stop-opacity:0;" offset="1" id="stop3723"/>
    </linearGradient>
    <linearGradient id="linearGradient3691">
      <stop style="stop-color:#000000;stop-opacity:1;" offset="0" id="stop3693"/>
      <stop style="stop-color:#000000;stop-opacity:0;" offset="1" id="stop3695"/>
    </linearGradient>
    <linearGradient id="linearGradient3683">
      <stop style="stop-color:#000000;stop-opacity:1;" offset="0" id="stop3685"/>
      <stop style="stop-color:#ffffff;stop-opacity:1;" offset="1" id="stop3687"/>
    </linearGradient>
    <linearGradient id="linearGradient3637">
      <stop style="stop-color:#ffffff;stop-opacity:1;" offset="0" id="stop3639"/>
      <stop id="stop3645" offset="1" style="stop-color:#729fcf;stop-opacity:1;"/>
    </linearGradient>
    <linearGradient inkscape:collect="always" id="linearGradient3694">
      <stop style="stop-color:#e9b96e;stop-opacity:1;" offset="0" id="stop3696"/>
      <stop style="stop-color:#e9b96e;stop-opacity:0;" offset="1" id="stop3698"/>
    </linearGradient>
    <linearGradient inkscape:collect="always" id="linearGradient3686">
      <stop style="stop-color:#e9b96e;stop-opacity:1;" offset="0" id="stop3688"/>
      <stop style="stop-color:#e9b96e;stop-opacity:0;" offset="1" id="stop3690"/>
    </linearGradient>
    <linearGradient id="linearGradient3624">
      <stop style="stop-color:#000000;stop-opacity:0.27118644;" offset="0" id="stop3626"/>
      <stop id="stop3632" offset="0.5" style="stop-color:#000000;stop-opacity:1;"/>
      <stop style="stop-color:#000000;stop-opacity:0;" offset="1" id="stop3628"/>
    </linearGradient>
    <inkscape:perspective sodipodi:type="inkscape:persp3d" inkscape:vp_x="0 : 526.18109 : 1" inkscape:vp_y="0 : 1000 : 0" inkscape:vp_z="744.09448 : 526.18109 : 1" inkscape:persp3d-origin="372.04724 : 350.78739 : 1" id="perspective10"/>
    <inkscape:perspective id="perspective2824" inkscape:persp3d-origin="0.5 : 0.33333333 : 1" inkscape:vp_z="1 : 0.5 : 1" inkscape:vp_y="0 : 1000 : 0" inkscape:vp_x="0 : 0.5 : 1" sodipodi:type="inkscape:persp3d"/>
    <linearGradient inkscape:collect="always" xlink:href="#linearGradient3624" id="linearGradient3630" x1="378.42856" y1="692.18365" x2="391.21426" y2="634.68365" gradientUnits="userSpaceOnUse"/>
    <linearGradient inkscape:collect="always" xlink:href="#linearGradient3624" id="linearGradient3648" x1="371.28571" y1="749.32648" x2="389.42853" y2="677.89789" gradientUnits="userSpaceOnUse"/>
    <filter inkscape:collect="always" id="filter3660">
      <feGaussianBlur inkscape:collect="always" stdDeviation="2.0758928" id="feGaussianBlur3662"/>
    </filter>
    <filter inkscape:collect="always" id="filter3668" x="-0.031336787" width="1.0626736" y="-0.10250848" height="1.205017">
      <feGaussianBlur inkscape:collect="always" stdDeviation="2.6999999" id="feGaussianBlur3670"/>
    </filter>
    <linearGradient inkscape:collect="always" xlink:href="#linearGradient3686" id="linearGradient3692" x1="262.88406" y1="595.90112" x2="407.95517" y2="729.4726" gradientUnits="userSpaceOnUse" gradientTransform="translate(78.791897,50.002554)"/>
    <linearGradient inkscape:collect="always" xlink:href="#linearGradient3694" id="linearGradient3700" x1="262.88406" y1="595.90112" x2="407.95517" y2="729.4726" gradientUnits="userSpaceOnUse" gradientTransform="translate(78.791897,50.002554)"/>
    <radialGradient inkscape:collect="always" xlink:href="#linearGradient3637" id="radialGradient3643" cx="374.12695" cy="444.09103" fx="374.12695" fy="444.09103" r="213.48823" gradientTransform="matrix(1,0,0,1.4647955,0,-228.84877)" gradientUnits="userSpaceOnUse"/>
    <linearGradient inkscape:collect="always" xlink:href="#linearGradient3683" id="linearGradient3689" x1="392.04071" y1="627.08795" x2="278.70059" y2="370.50922" gradientUnits="userSpaceOnUse" gradientTransform="translate(10,0)"/>
    <linearGradient inkscape:collect="always" xlink:href="#linearGradient3683" id="linearGradient3697" x1="392.04071" y1="627.08795" x2="278.70059" y2="370.50922" gradientUnits="userSpaceOnUse" gradientTransform="translate(10,0)"/>
    <linearGradient inkscape:collect="always" xlink:href="#linearGradient3683" id="linearGradient3701" gradientUnits="userSpaceOnUse" x1="392.04071" y1="627.08795" x2="278.70059" y2="370.50922" gradientTransform="matrix(-1,0,0,1,727.10168,0)"/>
    <linearGradient inkscape:collect="always" xlink:href="#linearGradient3683" id="linearGradient3703" gradientUnits="userSpaceOnUse" x1="392.04071" y1="627.08795" x2="278.70059" y2="370.50922" gradientTransform="matrix(-1,0,0,1,727.10168,0)"/>
    <radialGradient inkscape:collect="always" xlink:href="#linearGradient3719" id="radialGradient3725" cx="372.10061" cy="492.36543" fx="372.10061" fy="492.36543" r="192.46132" gradientTransform="matrix(1,0,0,1.5151947,0,-253.66408)" gradientUnits="userSpaceOnUse"/>
    <radialGradient inkscape:collect="always" xlink:href="#linearGradient3809" id="radialGradient3815" cx="376.42856" cy="808.07648" fx="376.42856" fy="808.07648" r="190.26982" gradientTransform="matrix(1,0,0,0.30549753,0,561.21111)" gradientUnits="userSpaceOnUse"/>
    <filter inkscape:collect="always" id="filter3817" x="-0.043514526" width="1.0870291" y="-0.20451827" height="1.4090365">
      <feGaussianBlur inkscape:collect="always" stdDeviation="6.0868535" id="feGaussianBlur3819"/>
    </filter>
  </defs>
  <sodipodi:namedview id="base" pagecolor="#ffffff" bordercolor="#666666" borderopacity="1.0" inkscape:pageopacity="0.0" inkscape:pageshadow="2" inkscape:zoom="0.24748738" inkscape:cx="113.69819" inkscape:cy="463.42529" inkscape:document-units="px" inkscape:current-layer="layer1" showgrid="false" showguides="true" inkscape:guide-bbox="true" inkscape:snap-to-guides="false" inkscape:snap-global="false" inkscape:window-width="1280" inkscape:window-height="750" inkscape:window-x="-8" inkscape:window-y="-8" inkscape:window-maximized="1">
    <sodipodi:guide orientation="1,0" position="371.42857,460" id="guide2830"/>
    <sodipodi:guide orientation="0,1" position="632.85714,482.85714" id="guide2832"/>
    <sodipodi:guide orientation="0,1" position="-517.14286,431.42857" id="guide2834"/>
    <sodipodi:guide orientation="0,1" position="-602.85714,322.85714" id="guide2836"/>
    <sodipodi:guide orientation="0,1" position="-574.28571,668.57143" id="guide2838"/>
    <sodipodi:guide orientation="0,1" position="-677.14286,865.71429" id="guide2840"/>
    <sodipodi:guide orientation="0,1" position="470,268.57143" id="guide2844"/>
  </sodipodi:namedview>
  <metadata id="metadata7">
    <rdf:RDF>
      <cc:Work rdf:about="">
        <dc:format>image/svg+xml</dc:format>
        <dc:type rdf:resource="http://purl.org/dc/dcmitype/StillImage"/>
        <dc:title>information</dc:title>
        <dc:date>July 2010</dc:date>
        <dc:creator>
          <cc:Agent>
            <dc:title>Franziska Sponsel</dc:title>
          </cc:Agent>
        </dc:creator>
        <dc:rights>
          <cc:Agent>
            <dc:title>Franziska Sponsel</dc:title>
          </cc:Agent>
        </dc:rights>
        <dc:publisher>
          <cc:Agent>
            <dc:title>RRZE</dc:title>
          </cc:Agent>
        </dc:publisher>
        <dc:identifier>RRZE</dc:identifier>
        <dc:subject>
          <rdf:Bag>
            <rdf:li>light bulb</rdf:li>
            <rdf:li>idea</rdf:li>
            <rdf:li>information</rdf:li>
          </rdf:Bag>
        </dc:subject>
        <dc:contributor>
          <cc:Agent>
            <dc:title>Beate Kaspar, Hendrik Eggers</dc:title>
          </cc:Agent>
        </dc:contributor>
        <cc:license rdf:resource="http://creativecommons.org/licenses/by-sa/3.0/"/>
      </cc:Work>
      <cc:License rdf:about="http://creativecommons.org/licenses/by-sa/3.0/">
        <cc:permits rdf:resource="http://creativecommons.org/ns#Reproduction"/>
        <cc:permits rdf:resource="http://creativecommons.org/ns#Distribution"/>
        <cc:requires rdf:resource="http://creativecommons.org/ns#Notice"/>
        <cc:requires rdf:resource="http://creativecommons.org/ns#Attribution"/>
        <cc:permits rdf:resource="http://creativecommons.org/ns#DerivativeWorks"/>
        <cc:requires rdf:resource="http://creativecommons.org/ns#ShareAlike"/>
      </cc:License>
    </rdf:RDF>
  </metadata>
  <g inkscape:label="Ebene 1" inkscape:groupmode="layer" id="layer1">
    <g id="g3841">
      <g id="g3821">
        <path sodipodi:type="arc" style="fill:url(#radialGradient3815);fill-opacity:1;fill-rule:evenodd;stroke:#000000;stroke-width:1px;stroke-linecap:butt;stroke-linejoin:miter;stroke-opacity:1;filter:url(#filter3817)" id="path3743" sodipodi:cx="376.42856" sodipodi:cy="808.07648" sodipodi:rx="167.85715" sodipodi:ry="35.714287" d="m 544.28571,808.07648 a 167.85715,35.714287 0 1 1 -335.7143,0 167.85715,35.714287 0 1 1 335.7143,0 z"/>
        <path style="fill:url(#radialGradient3643);stroke:#204a87;stroke-width:14;stroke-linecap:butt;stroke-linejoin:miter;stroke-opacity:1;stroke-miterlimit:4;stroke-dasharray:none;fill-opacity:1" d="m 374.28571,186.6479 c 96.47754,0.0939 206.15101,95.24518 204.28572,198.57142 C 576.70615,488.54556 499.51959,526.40953 500,569.50504 c 0.48032,43.08775 -22.85714,57.14286 -22.85714,57.14286 l 0,45.71428 c -20.95238,6.66667 -20.95238,13.33334 0,20 l 0,42.85715 c 0,0 -17.40643,5.57159 -43.45139,25.38258 -10.52068,8.00251 -12.90249,19.54443 -22.27919,26.0224 -8.47801,5.85709 -23.36241,11.27592 -37.12657,11.45216 -13.76416,0.17624 -23.8439,-4.7644 -36.23725,-11.95589 -12.04396,-6.98875 -8.16212,-11.84822 -18.3011,-20.60887 -17.35439,-14.99518 -45.46165,-33.14953 -45.46165,-33.14953 l 0,-38.57143 c 38.75618,-9.42263 25.40475,-15.78011 0,-21.42857 l 0,-48.57143 c 0,0 -28.49723,-18.13303 -28.86088,-57.74346 -0.37676,-41.03889 -75.80837,-81.05498 -79.71054,-179.39939 -3.90217,-98.34441 112.09388,-200.09392 208.57142,-200 z" id="path2842" sodipodi:nodetypes="czzccccsszsscccczzz"/>
        <path style="fill:none;stroke:#ffffff;stroke-width:14;stroke-linecap:butt;stroke-linejoin:miter;stroke-miterlimit:4;stroke-opacity:1;stroke-dasharray:none" d="m 370.59375,200.78125 c -59.94075,3.51105 -114.07884,38.3501 -151.65625,83.53125 -31.21502,36.43491 -47.83833,87.74124 -34.85473,135.06476 10.79652,43.26296 39.79607,78.19424 65.16723,113.74774 9.48954,16.67353 10.3324,36.13428 14.125,54.5 4.76194,12.06286 13.67172,22.31026 24.90625,28.65625 0.49487,15.02687 -0.85141,30.08913 0.46875,45.09375 12.41815,1.3811 26.14662,12.48531 22.90625,26.09375 -3.58389,9.86884 -13.93703,14.98599 -23.53125,17.3125 0.68004,8.08228 -2.53366,19.38766 5.96875,24.34375 21.25338,11.9544 38.42816,29.74465 54.71875,47.59375 20.75229,13.55527 53.20297,7.89693 64.90625,-14.96875 12.43807,-16.94553 32.15974,-25.85601 49.53125,-37.03125 -1.73118,-7.6434 2.84292,-17.24016 -3.125,-23.5 -13.06621,-5.32572 -17.33021,-27.1435 -3.875,-34.34375 5.32677,-2.58904 8.72751,-8.67412 6.95389,-14.59362 0.29431,-11.09267 -0.78771,-22.2915 0.48361,-33.31263 18.49218,-10.85468 23.42098,-34.2851 23.125,-54.34375 2.20361,-25.72843 20.52373,-45.76414 35.34375,-65.53125 C 552.05456,460.46381 570.68049,410.48839 562.71875,361.25 552.75387,305.52008 514.33739,257.87325 466.57908,229.17454 437.71124,211.75703 404.6912,200.0527 370.59375,200.78125 z" id="path3647"/>
        <path style="fill:url(#linearGradient3689);fill-opacity:1;stroke:url(#linearGradient3697);stroke-width:20;stroke-linecap:round;stroke-linejoin:round;stroke-miterlimit:4;stroke-opacity:1;stroke-dasharray:none" d="m 295.87317,395.76303 35.35534,98.99495" id="path3679"/>
        <path id="path3699" d="m 441.22851,395.76303 -35.35534,98.99495" style="fill:url(#linearGradient3701);fill-opacity:1;stroke:url(#linearGradient3703);stroke-width:20;stroke-linecap:round;stroke-linejoin:round;stroke-miterlimit:4;stroke-opacity:1;stroke-dasharray:none"/>
        <path style="fill:none;stroke:#ffffff;stroke-width:17;stroke-linecap:round;stroke-linejoin:miter;stroke-opacity:1;stroke-miterlimit:4;stroke-dasharray:none" d="m 294.96454,391.72242 c 16.83734,0.33964 31.60505,-3.45996 40.4061,-19.1929 27.32271,16.22836 49.43275,13.34358 68.69038,0 10.87453,8.68828 19.85114,18.64183 38.38579,22.22336" id="path3705" sodipodi:nodetypes="cccc"/>
        <path style="fill:none;stroke:#d3d7cf;stroke-width:16;stroke-linecap:round;stroke-linejoin:round;stroke-miterlimit:4;stroke-opacity:1;stroke-dasharray:none" d="m 321.2082,633.2301 0,-119.198 c 29.82268,-25.02204 61.77002,-28.7975 96.97465,0 l 0,124.24876" id="path3707" sodipodi:nodetypes="cccc"/>
        <path style="fill:#c17d11;stroke:#8f5902;stroke-width:14;stroke-linecap:butt;stroke-linejoin:round;stroke-opacity:1;stroke-miterlimit:4;stroke-dasharray:none" d="m 273.75134,624.0575 c 61.94586,13.28903 129.70622,19.24099 205.06097,3.03046 l -0.71429,45.51814 c 0,0 -15.61173,2.67903 -15.44815,9.0301 0.17852,6.93114 16.16243,9.14213 16.16243,9.14213 l -0.77555,44.93693 c 0,0 -26.47748,11.82201 -39.09384,21.03396 -8.59684,6.27706 -14.73515,19.92519 -21.39277,25.37178 -5.98379,4.89534 -23.07525,19.49303 -45.814,17.70305 -16.26918,-1.2807 -34.57979,-13.89704 -34.57979,-13.89704 -6.44512,-2.57805 -11.63586,-15.41505 -20.74401,-22.46846 -15.06927,-11.66972 -43.01814,-28.876 -43.01814,-28.876 l -0.59174,-40.82452 c 0,0 21.89262,-1.14509 22.03953,-10.63198 0.14939,-9.64685 -22.10081,-9.57107 -22.10081,-9.57107 l 1.01016,-49.49748 z" id="path3618" sodipodi:nodetypes="cccsccsssssccscc"/>
        <path style="fill:#2e3436;stroke:#555753;stroke-width:14;stroke-linecap:butt;stroke-linejoin:round;stroke-opacity:1;stroke-miterlimit:4;stroke-dasharray:none" d="m 323.24881,768.00424 c 35.18698,4.55847 69.36382,4.52237 104.5508,1.01015 2.67544,0.93676 -22.90091,31.53443 -50.00256,30.80966 -35.66263,-0.95371 -59.0145,-30.52909 -54.54824,-31.81981 z" id="path3676" sodipodi:nodetypes="ccsc"/>
        <path id="path3709" d="m 370.59375,200.78125 c -59.94075,3.51105 -114.07884,38.3501 -151.65625,83.53125 -31.21502,36.43491 -47.83833,87.74124 -34.85473,135.06476 10.79652,43.26296 39.79607,78.19424 65.16723,113.74774 9.48954,16.67353 10.3324,36.13428 14.125,54.5 4.76194,12.06286 13.67172,22.31026 24.90625,28.65625 0.49487,15.02687 -0.85141,30.08913 0.46875,45.09375 12.41815,1.3811 26.14662,12.48531 22.90625,26.09375 -3.58389,9.86884 -13.93703,14.98599 -23.53125,17.3125 0.68004,8.08228 -2.53366,19.38766 5.96875,24.34375 21.25338,11.9544 38.42816,29.74465 54.71875,47.59375 20.75229,13.55527 53.20297,7.89693 64.90625,-14.96875 12.43807,-16.94553 32.15974,-25.85601 49.53125,-37.03125 -1.73118,-7.6434 2.84292,-17.24016 -3.125,-23.5 -13.06621,-5.32572 -17.33021,-27.1435 -3.875,-34.34375 5.32677,-2.58904 8.72751,-8.67412 6.95389,-14.59362 0.29431,-11.09267 -0.78771,-22.2915 0.48361,-33.31263 18.49218,-10.85468 23.42098,-34.2851 23.125,-54.34375 2.20361,-25.72843 20.52373,-45.76414 35.34375,-65.53125 C 552.05456,460.46381 570.68049,410.48839 562.71875,361.25 552.75387,305.52008 514.33739,257.87325 466.57908,229.17454 437.71124,211.75703 404.6912,200.0527 370.59375,200.78125 z" style="fill:url(#radialGradient3725);stroke:none;stroke-width:14;stroke-linecap:butt;stroke-linejoin:miter;stroke-miterlimit:4;stroke-opacity:1;stroke-dasharray:none;fill-opacity:1;opacity:0.40740741"/>
        <path style="fill:url(#linearGradient3648);fill-opacity:1;stroke:#8f5902;stroke-width:6.80172348;stroke-linecap:butt;stroke-linejoin:miter;stroke-miterlimit:4;stroke-opacity:1;stroke-dasharray:none;filter:url(#filter3668)" d="m 277.85714,672.00504 c 0,0 13.08433,4.79841 12.5,11.78572 -0.56488,6.75482 -18.21428,12.49999 -18.21428,12.49999 69.66369,22.45931 139.97314,32.62557 206.78571,38.92857 L 477.5,727.00504 c -67.67003,-14.62605 -133.87643,-30.85594 -199.64286,-55 z" id="path3620" sodipodi:nodetypes="cscccc" transform="matrix(0.92970744,0,0,1.0624431,24.6296,-41.66292)"/>
        <path style="fill:url(#linearGradient3630);fill-opacity:1;stroke:#8f5902;stroke-width:7;stroke-linecap:butt;stroke-linejoin:miter;stroke-miterlimit:4;stroke-opacity:1;stroke-dasharray:none;filter:url(#filter3660)" d="m 275.35714,624.1479 -1.07143,18.21428 c 68.0786,16.7306 134.91765,47.09626 203.92857,53.57143 -11.17372,-9.68198 -16.1645,-14.47929 1.07143,-23.21428 C 410.6017,662.28457 343.10192,645.85343 275.35714,624.1479 z" id="path3622" sodipodi:nodetypes="ccccc" transform="matrix(0.94449013,0,0,1.0023142,19.400097,-1.5275073)"/>
        <path style="fill:none;stroke:#8f5902;stroke-width:14;stroke-linecap:butt;stroke-linejoin:round;stroke-opacity:1;stroke-miterlimit:4;stroke-dasharray:none;fill-opacity:1;opacity:0.81144781" d="m 273.75134,624.0575 c 61.94586,13.28903 129.70622,19.24099 205.06097,3.03046 l -0.71429,45.51814 c 0,0 -15.61173,2.67903 -15.44815,9.0301 0.17852,6.93114 16.16243,9.14213 16.16243,9.14213 l -0.77555,44.93693 c -3.31438,-0.8286 -53.37253,27.82143 -49.09384,28.8911 0,0 -22.77186,0.44224 -55.7782,0.21769 -31.5794,-0.31059 -45.02121,-1.74949 -56.75237,-1.3655 -15.06927,-11.66972 -43.01814,-28.876 -43.01814,-28.876 l -0.59174,-40.82452 c 0,0 21.89262,-1.14509 22.03953,-10.63198 0.14939,-9.64685 -22.10081,-9.57107 -22.10081,-9.57107 l 1.01016,-49.49748 z" id="path3704" sodipodi:nodetypes="cccscccccccscc"/>
        <path sodipodi:type="arc" style="opacity:0.40404041;fill:#ffffff;fill-opacity:1;fill-rule:evenodd;stroke:none" id="path3733" sodipodi:cx="343.57144" sodipodi:cy="367.36218" sodipodi:rx="93.571426" sodipodi:ry="96.428574" d="m 437.14287,367.36218 a 93.571426,96.428574 0 1 1 -187.14285,0 93.571426,96.428574 0 1 1 187.14285,0 z" transform="matrix(0.81311888,0.08261842,-0.46789094,0.95810676,196.09245,-54.423895)"/>
      </g>
      <rect y="159.50917" x="6.1218309" height="731.3504" width="731.3504" id="rect3839" style="color:#000000;fill:none;stroke:none;stroke-width:1px;marker:none;visibility:visible;display:inline;overflow:visible;enable-background:accumulate"/>
    </g>
  </g>
</svg>
